<svg width="162" height="190" viewBox="0 0 162 190" fill="none" xmlns="http://www.w3.org/2000/svg">
<g filter="url(#filter0_d_40_338)">
<rect x="4" width="154" height="182" rx="29" fill="#DEE2E6"/>
</g>
<g clip-path="url(#clip0_40_338)">
<path d="M110.158 29.5711C109.248 28.7654 108.288 28.0182 107.284 27.3339C107.217 27.2846 107.15 27.2384 107.077 27.1908C105.685 26.2597 104.185 25.5013 102.61 24.9323C99.3806 23.6685 95.9377 23.038 92.4696 23.0753C86.7293 23.0039 81.1557 25.004 76.7707 28.709C70.9738 33.8217 67.932 40.8526 68.8252 52.477C70.0749 61.2045 66.8522 70.702 67.5039 77.8984C67.6929 80.0568 68.7692 82.6554 71.7581 84.7075C71.7581 84.7075 81.4356 88.1179 92.3687 88.1179C103.302 88.1179 114.459 84.0758 114.459 84.0758C119.119 82.3481 119.196 79.4157 119.233 77.709C119.29 75.6097 118.979 73.5167 118.315 71.5245C117.49 68.7894 115.977 63.2367 116.17 53.4177C116.521 50.584 116.39 46.4672 116.326 44.885C116.104 39.3989 113.784 33.1992 110.267 29.6751C110.234 29.6422 110.196 29.6066 110.156 29.5715" fill="black"/>
<path d="M107.821 26.4127C105.198 24.5415 101.957 23.3487 98.823 22.6689C95.3046 21.9032 91.6746 21.7977 88.1176 22.3577C82.6104 23.2268 77.5701 25.9645 73.8431 30.1111C70.2189 34.1915 68.3526 39.2748 67.7969 44.6595C67.6364 46.2713 67.5741 47.8913 67.6106 49.5107C67.6453 51.3201 67.8916 53.098 67.9934 54.9003C68.1979 58.5325 67.7871 62.1651 67.3194 65.7618C66.8801 69.1357 66.3315 72.53 66.3462 75.9426C66.3021 77.3339 66.4745 78.7236 66.857 80.062C67.3337 81.4946 68.1201 82.8045 69.1604 83.8987C69.7845 84.5448 70.4736 85.125 71.2166 85.6299C71.4615 85.7702 71.7518 85.8087 72.0248 85.7372C72.2979 85.6656 72.5319 85.4896 72.6765 85.2471C72.8138 85.0015 72.8506 84.7122 72.7792 84.4401C72.7078 84.1679 72.5339 83.9339 72.2938 83.7872C71.0687 82.9574 70.0621 81.844 69.3596 80.5417C68.8594 79.5443 68.5759 78.4524 68.5278 77.3377C68.3295 74.1736 68.7665 70.9931 69.1782 67.8628C69.633 64.4049 70.1256 60.9399 70.178 57.4468C70.2047 55.6685 70.0037 53.9445 69.8699 52.1804C69.7427 50.5167 69.7068 48.8474 69.7623 47.1798C69.938 42.0671 71.2086 37.0483 74.297 32.9057C77.2445 29.0101 81.4125 26.2145 86.1352 24.9656C92.3117 23.3356 98.8722 24.0408 104.561 26.9462C105.317 27.334 106.047 27.7712 106.745 28.255C106.99 28.3957 107.281 28.4344 107.554 28.3628C107.827 28.2911 108.061 28.115 108.205 27.8722C108.342 27.6264 108.378 27.3372 108.307 27.0652C108.235 26.7932 108.061 26.5594 107.821 26.4127Z" fill="#211715"/>
<path d="M114.743 85.1046C117.002 84.2479 119.049 82.8817 119.891 80.5197C120.571 78.6142 120.377 76.2517 120.076 74.3134C119.785 72.435 119.124 70.6434 118.673 68.8006C118.227 66.9702 117.892 65.1143 117.671 63.2434C117.303 59.9812 117.158 56.6976 117.237 53.4156L116.454 54.4448H116.456C116.676 54.3747 116.87 54.2383 117.01 54.0542C117.15 53.87 117.23 53.6472 117.239 53.416C117.579 50.2981 117.614 47.1544 117.344 44.0297C117.057 40.3615 116.032 36.7892 114.329 33.5274C113.46 31.7776 112.305 30.1849 110.913 28.8149C109.908 27.8813 108.395 29.3862 109.404 30.3238C111.763 32.5191 113.253 35.7303 114.18 38.765C115.083 41.7223 115.305 44.6983 115.336 47.7703C115.38 49.6553 115.304 51.5413 115.106 53.4165L115.889 52.3877C115.667 52.4552 115.472 52.5908 115.331 52.7755C115.191 52.9602 115.112 53.1844 115.106 53.4165C114.948 58.4061 115.371 63.3973 116.368 68.2889C116.672 69.6831 117.08 71.0417 117.468 72.4128C117.88 73.8027 118.116 75.239 118.169 76.6878C118.182 77.1715 118.176 77.6561 118.156 78.1398C118.151 78.2701 118.145 78.3999 118.135 78.5302C118.129 78.612 118.121 78.6938 118.114 78.7756C118.088 79.0828 118.13 78.7311 118.097 78.9174C118.006 79.6776 117.712 80.3993 117.246 81.0069C116.424 81.9472 115.365 82.6508 114.179 83.0449C113.91 83.1267 113.683 83.3084 113.545 83.5525C113.406 83.7966 113.366 84.0846 113.433 84.3572C113.51 84.629 113.691 84.8594 113.937 84.9988C114.183 85.1383 114.473 85.1754 114.746 85.1024L114.743 85.1046Z" fill="#211715"/>
<path d="M81.4579 78.7928C82.3973 78.4247 83.414 78.0215 84.6548 77.472C84.9234 77.3495 85.1732 77.1894 85.3968 76.9967C88.6881 77.8784 92.162 77.8089 95.4154 76.7962C98.2452 75.8695 100.825 74.3075 102.959 72.2299C103.611 71.6389 104.23 71.0119 104.813 70.3521C105.285 71.9566 105.898 73.5163 106.645 75.013C107.073 75.8777 110.424 78.4536 112.161 79.4228C104.815 82.6491 97.0807 84.8204 88.2016 83.9912C85.2145 83.7125 81.2218 82.4352 78.9576 79.838C78.9496 79.8291 78.9416 79.8198 78.9331 79.8109C78.9553 79.8029 78.9673 79.7975 78.9673 79.7975C79.8085 79.4352 80.6012 79.1289 81.4579 78.7928Z" fill="white"/>
<path d="M78.9825 46.3782C80.2558 45.2343 81.5135 44.0753 82.7285 42.9407C82.6343 44.3238 82.4867 45.6549 82.2617 47.0442C82.2479 47.1244 82.2551 47.2068 82.2826 47.2834C82.3101 47.36 82.3569 47.4282 82.4185 47.4814C82.4801 47.5346 82.5544 47.571 82.6342 47.587C82.714 47.603 82.7966 47.5981 82.8739 47.5728C88.063 45.8074 92.8386 42.7771 95.9396 38.948C96.6988 41.0405 97.5785 43.0874 98.5741 45.0783C99.819 47.5319 102.953 51.7772 105.706 52.5063C106.427 52.7779 107.367 53.0469 108.088 53.3185C109.3 52.1337 111.386 52.1306 112.769 53.1113C113.441 53.6328 113.974 54.3104 114.325 55.0852C114.675 55.86 114.83 56.7085 114.778 57.5571C114.651 59.2596 114.023 60.8864 112.971 62.2314C111.622 64.0094 109.819 65.3915 107.751 66.2326C106.484 68.4745 104.866 70.4995 102.96 72.2308C100.827 74.308 98.247 75.8696 95.4176 76.7962C92.1643 77.8089 88.6904 77.8784 85.3991 76.9967C83.6265 76.5342 81.936 75.8006 80.3874 74.8218C78.6043 73.6303 77.06 72.1155 75.8345 70.3556C74.297 68.2638 73.1196 65.93 72.3508 63.4504C71.6199 61.2039 71.1376 58.884 70.9125 56.5324C70.7578 55.1986 70.696 54.069 70.6711 53.2532C71.1544 52.8975 71.7697 52.4085 72.3241 52.0186C74.4941 50.3238 76.7618 48.3739 78.9825 46.3782Z" fill="white"/>
<path d="M135.405 129.484C133.528 116.937 132.244 109.132 129.083 97.672C127.959 93.8729 126.188 90.2965 123.846 87.1008C122.69 85.6208 121.34 84.3025 119.832 83.1814C117.73 81.6195 115.437 80.3333 113.008 79.3541C112.896 79.3068 112.775 79.2831 112.654 79.2842C112.532 79.2854 112.412 79.3114 112.301 79.3607C104.913 82.6217 97.1381 84.8259 88.2052 83.9914C85.2181 83.7127 81.2253 82.4354 78.9611 79.8382C78.8416 79.7014 78.6829 79.6048 78.5065 79.5615C78.3301 79.5182 78.1447 79.5304 77.9755 79.5964C76.3252 80.237 74.7478 80.9007 73.1322 81.6187C71.7371 82.2628 70.4347 83.0912 69.26 84.0817C67.5332 85.5695 66.2503 87.5047 65.5522 89.6745C64.2484 93.3934 63.2449 97.211 62.5513 101.09C61.6755 105.896 60.9064 110.089 59.7327 114.814C59.7327 114.814 59.6802 115.087 59.5962 115.526C61.9267 115.599 63.8726 115.659 65.2686 115.704C65.8835 115.722 66.473 115.953 66.937 116.357C67.401 116.761 67.7107 117.314 67.8138 117.92C68.494 121.903 69.1857 125.937 69.9033 130.106C69.9362 130.295 69.9682 130.48 70.0011 130.669C72.6685 126.624 74.3744 122.555 76.3634 118.658C77.1637 120.282 78.0906 121.849 78.8482 123.493C79.3086 124.515 79.6883 125.572 79.9836 126.654C80.0414 126.858 80.1099 127.059 80.1868 127.257C80.682 128.541 80.6123 130.727 81.5921 133.043C82.9529 132.162 84.3587 131.353 85.8036 130.617C87.613 129.697 89.6403 128.879 91.6186 129.306C94.1438 129.853 95.3678 130.968 97.8752 131.582C99.7082 132.033 100.704 131.582 102.288 131.573C104.511 135.851 105.47 142.962 105.514 144.173C107.753 144.141 118.184 143.976 121.56 143.632C124.224 143.361 126.956 143.301 129.453 142.334C130.135 142.07 130.789 141.738 131.406 141.345C133.094 140.339 134.352 138.746 134.94 136.872C135.485 134.449 135.642 131.956 135.405 129.484Z" fill="white"/>
<path d="M113.138 109.731C114.717 115.53 116.157 121.364 117.459 127.233C117.757 128.573 119.816 128.006 119.517 126.665C118.215 120.797 116.775 114.963 115.196 109.164C114.836 107.841 112.777 108.403 113.138 109.731Z" fill="#211715"/>
<path d="M105.24 128.311C110.995 128.826 116.844 128.2 122.595 127.883C123.961 127.807 123.97 125.673 122.595 125.749C116.846 126.066 110.995 126.692 105.24 126.177C104.958 126.179 104.688 126.292 104.488 126.492C104.288 126.691 104.175 126.961 104.173 127.244C104.179 127.525 104.293 127.793 104.492 127.992C104.691 128.191 104.959 128.305 105.24 128.311Z" fill="#211715"/>
<path d="M72.4352 102.764C72.6181 103.672 72.72 104.594 72.7397 105.52C72.8228 106.547 72.8811 107.577 72.9513 108.605C73.048 110.648 73.3135 112.678 73.7449 114.677C74.2676 116.659 75.0371 118.567 76.0354 120.358C76.9596 122.115 77.9524 123.838 78.5828 125.73C78.9395 126.694 79.2296 127.681 79.451 128.685C79.6533 129.773 79.7925 130.863 80.0801 131.936C80.4358 133.261 82.4955 132.699 82.1381 131.369C81.8798 130.408 81.7335 129.43 81.5672 128.45C81.3936 127.608 81.1682 126.777 80.8924 125.963C80.2683 124.014 79.4491 122.133 78.4472 120.349C77.4432 118.624 76.6261 116.797 76.01 114.899C75.5106 112.975 75.2108 111.003 75.1155 109.017C75.0319 107.851 74.9688 106.685 74.875 105.52C74.8468 104.404 74.7195 103.292 74.4945 102.198C74.1419 100.872 72.0831 101.434 72.4365 102.765L72.4352 102.764Z" fill="#211715"/>
<path d="M75.3472 118.3C73.5649 121.819 71.9684 125.431 69.9189 128.808C69.204 129.985 71.049 131.058 71.7612 129.885C73.8121 126.506 75.4068 122.896 77.1895 119.377C77.8084 118.155 75.9683 117.073 75.3472 118.3Z" fill="#211715"/>
<path d="M103.788 70.6348C104.174 71.9585 104.657 73.252 105.233 74.5049C105.402 74.9445 105.613 75.3667 105.863 75.7657C106.102 76.0909 106.372 76.392 106.669 76.6646C108.122 78.0312 109.724 79.2303 111.445 80.2395C112.631 80.9366 113.706 79.0929 112.522 78.3967C110.984 77.5001 109.55 76.4351 108.248 75.2215C108.01 75.0015 107.786 74.7675 107.576 74.5209C107.648 74.6054 107.685 74.6987 107.614 74.5551C107.579 74.4836 107.539 74.4133 107.504 74.3413C107.367 74.0634 107.237 73.7825 107.108 73.5001C106.602 72.3891 106.18 71.2417 105.846 70.0676C105.474 68.7476 103.414 69.3082 103.788 70.6348Z" fill="#211715"/>
<path d="M79.5075 80.7197L79.68 80.6459C79.9548 80.5281 79.5653 80.6904 79.7245 80.6272C79.8374 80.5828 79.9503 80.5334 80.0637 80.4868C80.3171 80.3836 80.571 80.2818 80.8253 80.1813C81.3374 79.9791 81.8514 79.7812 82.3631 79.5767C82.9763 79.334 83.5862 79.084 84.1929 78.8267C84.8958 78.5752 85.5529 78.2108 86.1384 77.7477C86.3372 77.5469 86.4487 77.2758 86.4487 76.9933C86.4487 76.7107 86.3372 76.4396 86.1384 76.2388C85.9351 76.0449 85.6649 75.9368 85.384 75.9368C85.103 75.9368 84.8329 76.0449 84.6295 76.2388C84.5975 76.2664 84.5015 76.3451 84.5908 76.278C84.5326 76.3224 84.4708 76.3611 84.409 76.3989C84.2589 76.4855 84.1033 76.5622 83.9431 76.6283C83.7933 76.6936 83.6439 76.759 83.4936 76.8234L83.2224 76.939C83.322 76.8968 83.1891 76.9528 83.1611 76.9644C82.6175 77.1911 82.0713 77.4121 81.5224 77.6272C80.4878 78.0349 79.452 78.4373 78.4303 78.8769C78.1866 79.0203 78.0094 79.2544 77.9377 79.528C77.866 79.8015 77.9055 80.0924 78.0476 80.3369C78.1963 80.5748 78.4303 80.7468 78.7016 80.818C78.973 80.8891 79.2612 80.854 79.5075 80.7197Z" fill="#211715"/>
<path d="M108.844 54.0732C109.772 53.212 111.31 53.3116 112.276 54.0652C113.431 54.9685 113.85 56.5712 113.683 57.9774C113.272 61.4331 110.231 63.9939 107.236 65.301C106.993 65.4452 106.817 65.6792 106.745 65.9524C106.674 66.2257 106.713 66.5161 106.853 66.761C107.001 66.9999 107.235 67.1728 107.507 67.2441C107.779 67.3153 108.067 67.2794 108.313 67.1437C111.462 65.7695 114.162 63.3133 115.359 60.0381C116.489 56.946 115.568 52.9115 112.241 51.6458C111.418 51.3308 110.523 51.2499 109.657 51.412C108.79 51.5741 107.986 51.9729 107.332 52.5643C106.324 53.5001 107.835 55.0063 108.841 54.0732H108.844Z" fill="#211715"/>
<path d="M69.6041 53.3294C69.6959 57.3294 70.4324 61.2883 71.7852 65.0537C73.171 68.75 75.4392 72.3657 78.5775 74.8251C84.742 79.6554 93.7949 79.8933 100.327 75.6605C103.775 73.3923 106.638 70.3406 108.682 66.7547C109.364 65.5606 107.522 64.4842 106.839 65.6775C105.187 68.5667 102.962 71.0877 100.3 73.0855C97.5441 75.1776 94.2151 76.3786 90.7583 76.5278C87.3014 76.677 83.8814 75.7673 80.9555 73.9204C77.8879 71.9371 75.5993 68.6917 74.1895 65.3641C72.6478 61.5348 71.8171 57.4566 71.7381 53.3294C71.6888 51.9601 69.5543 51.9538 69.6041 53.3294Z" fill="#211715"/>
<path d="M94.9534 39.3521C95.939 42.0827 97.0567 44.9294 98.6879 47.3483C100.206 49.5992 102.188 52.0702 104.706 53.2425C104.952 53.3775 105.241 53.4131 105.512 53.3419C105.784 53.2707 106.018 53.0981 106.166 52.8597C106.307 52.6149 106.345 52.3246 106.273 52.0516C106.202 51.7786 106.026 51.5446 105.783 51.4002C103.542 50.3563 101.785 48.1628 100.448 46.1466C98.9604 43.9059 97.9214 41.3038 97.0118 38.7849C96.9306 38.5159 96.749 38.2885 96.5047 38.1497C96.2604 38.0109 95.9721 37.9714 95.6994 38.0393C95.4279 38.1167 95.1976 38.2977 95.0583 38.5433C94.9189 38.7888 94.8816 39.0793 94.9543 39.3521H94.9534Z" fill="#211715"/>
<path d="M95.1793 38.1986C93.5781 40.1348 91.6858 41.8106 89.5701 43.1659C88.4775 43.8731 87.342 44.5116 86.17 45.0776C85.5756 45.3656 84.9732 45.6382 84.3601 45.8858C83.7475 46.1772 83.107 46.406 82.4484 46.5687H83.0139C83.2078 47.1653 83.317 47.3087 83.3416 46.999C83.3527 46.9266 83.3638 46.8541 83.3745 46.7816C83.4011 46.6011 83.4269 46.4206 83.4518 46.2401C83.5038 45.8596 83.5536 45.4786 83.5981 45.0967C83.6808 44.3791 83.7439 43.6603 83.7946 42.94C83.8631 41.9709 82.6058 41.5947 81.9718 42.1843C79.9712 44.0515 77.9537 45.8969 75.8869 47.6881C74.0608 49.3682 72.1204 50.9198 70.0798 52.3317C68.931 53.076 69.9994 54.9241 71.1566 54.1745C73.2923 52.703 75.3246 51.0869 77.2393 49.3375C79.3617 47.5032 81.4326 45.6102 83.483 43.6967L81.6602 42.9409C81.5806 44.0724 81.4699 45.2016 81.3001 46.3237C81.1484 46.8298 81.1754 47.3726 81.3765 47.8611C81.5112 48.1025 81.7073 48.3041 81.945 48.4453C82.1826 48.5866 82.4534 48.6624 82.7298 48.6653C83.187 48.6142 83.6321 48.4858 84.0462 48.2856C84.5179 48.11 84.9852 47.9229 85.4493 47.7281C86.3429 47.3529 87.2227 46.9483 88.0826 46.5007C91.3792 44.8393 94.3059 42.5287 96.6869 39.7075C96.8797 39.5036 96.9871 39.2337 96.9871 38.9531C96.9871 38.6725 96.8797 38.4025 96.6869 38.1986C96.4858 38.0005 96.2148 37.8894 95.9324 37.8894C95.6501 37.8894 95.3791 38.0005 95.178 38.1986H95.1793Z" fill="#211715"/>
<path d="M77.0823 142.534C77.0823 142.482 77.0823 142.432 77.0823 142.382C77.0949 141.872 77.2886 141.383 77.6287 141.004L78.0221 140.504L77.51 140.612C77.137 140.702 76.7457 140.678 76.3862 140.544C76.0267 140.41 75.7152 140.172 75.4916 139.861C75.1182 139.309 75.3538 138.38 75.5183 138.047C75.7871 137.597 76.1212 137.189 76.5097 136.837C76.9587 136.393 78.906 134.904 79.4128 134.535C81.4346 133.06 83.5709 131.748 85.8014 130.613C87.6108 129.693 89.638 128.875 91.6164 129.302C94.1416 129.849 95.3655 130.964 97.8729 131.578C99.6388 132.012 100.629 131.611 102.115 131.572C103.572 134.38 104.486 138.408 104.956 141.187L104.647 141.279C104.013 141.546 102.409 142.54 100.563 143.305C99.7388 143.644 98.8559 143.817 97.965 143.813C97.074 143.809 96.1927 143.629 95.3718 143.283C93.9234 144.893 92.3395 146.376 90.6375 147.716C90.3209 147.97 89.2713 148.741 88.4146 148.015C87.8522 147.538 87.9838 146.447 88.2612 146.022C89.5971 143.974 90.1649 142.456 91.6427 140.567C89.1926 142.09 86.8359 143.872 84.396 145.418C83.6025 145.92 82.9409 146.357 82.0153 146.194C81.5999 146.128 81.2238 145.91 80.9595 145.583C80.6952 145.256 80.5615 144.842 80.5842 144.422C80.6334 143.974 80.7968 143.545 81.0586 143.178L80.3237 143.519C79.8755 143.749 79.3942 143.909 78.8971 143.992C78.6422 144.03 78.382 144.012 78.1348 143.939C77.8876 143.866 77.6594 143.74 77.466 143.57C77.2287 143.276 77.0939 142.912 77.0823 142.534Z" fill="white"/>
<path d="M77.2265 139.587C76.998 139.619 76.7651 139.577 76.5631 139.465C76.2666 139.262 76.348 138.927 76.4382 138.62C76.504 138.398 76.4644 138.536 76.4382 138.588C76.4845 138.492 76.539 138.4 76.6009 138.312C76.7391 138.131 76.8914 137.96 77.0562 137.802C77.2752 137.579 77.5061 137.369 77.7479 137.171C79.0899 136.06 80.494 135.026 81.9536 134.075C83.968 132.76 86.1544 131.373 88.4551 130.626C89.5637 130.227 90.767 130.174 91.9064 130.473C92.9003 130.776 93.8694 131.155 94.805 131.606C95.9797 132.173 97.23 132.567 98.5172 132.777C99.7203 132.935 100.878 132.691 102.077 132.644C103.446 132.589 103.453 130.455 102.077 130.51C100.941 130.554 99.7959 130.837 98.6586 130.657C97.4368 130.406 96.2539 129.994 95.1411 129.43C93.9937 128.86 92.7738 128.449 91.5152 128.209C90.0941 128.03 88.6509 128.223 87.3264 128.768C84.6215 129.875 82.0605 131.305 79.6992 133.027C78.2164 133.984 76.8263 135.078 75.5473 136.294C74.6239 137.243 73.9072 138.524 74.3367 139.891C74.7964 141.355 76.4106 141.892 77.7924 141.644C78.0639 141.567 78.2943 141.386 78.4337 141.141C78.573 140.895 78.6103 140.605 78.5375 140.332C78.4571 140.062 78.2757 139.834 78.0311 139.695C77.7865 139.557 77.4977 139.518 77.2251 139.587H77.2265Z" fill="#211715"/>
<path d="M84.8153 134.123C82.8442 135.335 80.9535 136.673 79.1549 138.129C77.5989 139.364 75.4547 141.011 76.1376 143.298C76.2601 143.731 76.5017 144.12 76.8349 144.422C77.1682 144.724 77.5796 144.926 78.0221 145.005C79.0367 145.195 79.9507 144.858 80.8621 144.441C81.1047 144.296 81.2809 144.062 81.3525 143.789C81.4241 143.516 81.3854 143.226 81.2449 142.981C81.0975 142.741 80.8636 142.568 80.5916 142.496C80.3197 142.425 80.0308 142.461 79.7849 142.598C79.5278 142.72 79.2599 142.818 78.9846 142.891C78.8177 142.945 78.6399 142.956 78.4676 142.922C78.4205 142.912 78.1973 142.821 78.2702 142.858C78.3302 142.888 78.2315 142.813 78.2124 142.776C78.1419 142.611 78.1228 142.428 78.1577 142.251C78.1448 142.348 78.1991 142.101 78.2115 142.065C78.1862 142.137 78.3062 141.887 78.3449 141.831C78.4045 141.739 78.5281 141.473 78.6352 141.415C78.5716 141.449 78.4596 141.619 78.5908 141.481C78.6352 141.432 78.6797 141.381 78.7241 141.332C78.8264 141.223 78.9335 141.119 79.0416 141.016C80.3947 139.783 81.8394 138.653 83.3633 137.638C84.1898 137.057 85.0269 136.488 85.8929 135.967C87.0688 135.261 85.9974 133.415 84.8162 134.125L84.8153 134.123Z" fill="#211715"/>
<path d="M88.3044 136.328C86.6924 137.342 85.1412 138.444 83.5897 139.547C82.1755 140.553 80.6394 141.491 79.8717 143.123C79.143 144.673 79.6961 146.519 81.3832 147.127C83.1962 147.78 84.8727 146.403 86.2873 145.457C88.1421 144.216 89.9498 142.907 91.833 141.709C92.9889 140.974 91.9197 139.127 90.7562 139.867C88.9868 140.991 87.2841 142.215 85.5467 143.388C84.731 144.015 83.8592 144.566 82.9424 145.033C82.5351 145.207 81.9385 145.232 81.7273 144.836C81.4895 144.392 81.8216 143.896 82.1692 143.432C82.7925 142.72 83.5235 142.109 84.3357 141.622C85.9979 140.443 87.654 139.255 89.3798 138.169C90.5397 137.439 89.4687 135.59 88.3031 136.327L88.3044 136.328Z" fill="#211715"/>
<path d="M90.4072 140.45C89.6639 141.522 88.9827 142.636 88.3671 143.786C87.7598 144.856 86.8626 145.872 86.9667 147.179C86.9799 147.542 87.0777 147.897 87.2525 148.215C87.4273 148.533 87.6741 148.806 87.9732 149.013C88.2803 149.207 88.6275 149.329 88.9885 149.369C89.3496 149.41 89.7151 149.369 90.0578 149.248C90.5869 149.049 91.0757 148.757 91.5005 148.384C92.052 147.94 92.5941 147.483 93.1267 147.015C94.2592 146.016 95.3282 144.947 96.3277 143.814C96.5218 143.611 96.6301 143.341 96.6301 143.06C96.6301 142.779 96.5218 142.508 96.3277 142.305C96.1264 142.107 95.8555 141.997 95.5732 141.997C95.291 141.997 95.0201 142.107 94.8188 142.305C94.0577 143.168 93.2574 143.994 92.4181 144.782C91.9815 145.189 91.5359 145.587 91.0812 145.974C90.8616 146.162 90.6405 146.347 90.4179 146.53C90.2946 146.631 90.171 146.732 90.0471 146.832C89.9975 146.881 89.9433 146.924 89.8853 146.963C89.9529 146.928 90.0969 146.813 89.9427 146.918C89.7983 147.017 89.6489 147.107 89.495 147.19C89.3367 147.275 89.5839 147.188 89.4016 147.221C89.3385 147.233 89.278 147.257 89.214 147.266C89.3634 147.241 89.2527 147.285 89.2056 147.253C89.2162 147.26 89.4403 147.339 89.1913 147.25C89.1856 147.25 89.0402 147.183 89.1206 147.226C89.2425 147.29 89.0531 147.101 89.1718 147.291C89.106 147.186 89.1135 147.09 89.1331 147.239C89.1193 147.198 89.1082 147.156 89.0998 147.113C89.0833 147.034 89.0846 147.056 89.1029 147.179L89.0962 147.09C89.0962 147.001 89.0962 146.912 89.0998 146.823C89.1033 146.621 89.1055 146.809 89.0953 146.851C89.1051 146.811 89.11 146.77 89.122 146.731C89.134 146.691 89.146 146.654 89.154 146.616C89.1918 146.438 89.1478 146.634 89.1251 146.67C89.1971 146.554 89.2669 146.437 89.3407 146.321C89.6559 145.826 89.9529 145.32 90.2423 144.81C90.848 143.678 91.519 142.581 92.2518 141.527C92.3927 141.282 92.4315 140.991 92.3599 140.718C92.2883 140.445 92.1119 140.211 91.869 140.067C91.6233 139.93 91.3343 139.894 91.0624 139.965C90.7905 140.036 90.5566 140.21 90.4095 140.45H90.4072Z" fill="#211715"/>
<path d="M95.7181 144.545C97.5763 145.08 99.5643 144.934 101.324 144.133C102.65 143.563 103.867 142.773 105.186 142.201C105.429 142.057 105.605 141.823 105.677 141.55C105.749 141.277 105.71 140.986 105.569 140.742C105.421 140.502 105.187 140.329 104.915 140.258C104.644 140.187 104.355 140.223 104.109 140.358C102.937 140.867 101.851 141.568 100.686 142.097C99.3185 142.771 97.749 142.91 96.2845 142.487C94.9654 142.094 94.4022 144.154 95.7172 144.545H95.7181Z" fill="#211715"/>
<path d="M60.7593 115.098C61.5751 111.8 62.2588 108.474 62.8852 105.137C63.5099 101.806 64.0825 98.4729 64.9579 95.1959C65.393 93.5658 65.8867 91.9524 66.4392 90.3558C66.8822 89.0013 67.5266 87.7212 68.3509 86.5587C70.191 84.0557 73.1407 82.7264 75.9185 81.5669C76.6298 81.2704 77.3527 81.005 78.0591 80.7022C78.2076 80.6382 78.3748 80.6302 78.1787 80.5653C78.2418 80.5862 78.3721 80.7791 78.4183 80.8285C78.6752 81.1008 78.9485 81.357 79.2368 81.5958C80.281 82.4543 81.446 83.1543 82.6943 83.6733C85.3035 84.7821 88.0532 85.1404 90.8696 85.22C97.1244 85.3939 103.299 84.0535 109.118 81.8226C109.76 81.5763 110.398 81.3206 111.033 81.0557C111.407 80.9001 111.78 80.7422 112.152 80.5822C112.61 80.3844 112.577 80.319 113.017 80.5128C114.471 81.1403 115.88 81.8654 117.236 82.6833C119.786 84.2108 121.986 86.2585 123.693 88.6931C125.345 91.1251 126.665 93.7668 127.617 96.5483C128.578 99.3491 129.229 102.288 129.916 105.166C131.244 110.727 132.281 116.348 133.184 121.992C133.431 123.541 133.672 125.09 133.906 126.64C134.165 128.003 134.345 129.38 134.445 130.763C134.484 132.032 134.429 133.303 134.282 134.565C134.212 135.646 133.94 136.705 133.477 137.685C132.197 140.077 129.619 141.371 127.061 141.917C125.44 142.209 123.804 142.406 122.16 142.505C121.317 142.582 120.477 142.656 119.632 142.704C115.525 142.937 111.407 143.004 107.293 143.075C106.7 143.085 106.107 143.095 105.514 143.104L106.581 144.171C106.475 142.622 106.252 141.084 105.915 139.569C105.494 137.232 104.846 134.942 103.98 132.731C103.533 131.547 102.93 130.429 102.185 129.406C102.036 129.168 101.803 128.997 101.531 128.925C101.26 128.854 100.972 128.889 100.726 129.023C100.483 129.167 100.306 129.401 100.235 129.674C100.163 129.948 100.202 130.238 100.343 130.483C102.045 132.689 102.817 135.561 103.448 138.235C103.749 139.513 104.001 140.801 104.204 142.1C104.244 142.359 104.282 142.618 104.318 142.878C104.28 142.604 104.33 142.971 104.336 143.021C104.349 143.123 104.361 143.224 104.373 143.326C104.405 143.606 104.436 143.888 104.447 144.171C104.452 144.452 104.566 144.721 104.765 144.92C104.964 145.119 105.233 145.233 105.514 145.238C109.41 145.18 113.307 145.104 117.201 144.952C119.264 144.871 121.31 144.712 123.366 144.533C126.54 144.256 129.806 143.844 132.455 141.915C133.636 141.093 134.615 140.016 135.322 138.762C135.895 137.592 136.248 136.326 136.361 135.028C136.536 133.711 136.612 132.384 136.589 131.056C136.508 129.589 136.33 128.128 136.059 126.684C135.149 120.678 134.191 114.677 132.914 108.737C132.277 105.77 131.568 102.819 130.789 99.8857C130.05 96.8865 128.993 93.975 127.635 91.2009C126.299 88.4282 124.473 85.9199 122.245 83.7969C119.774 81.6129 116.958 79.8536 113.912 78.5905C113.542 78.3469 113.109 78.217 112.665 78.217C112.222 78.217 111.789 78.3469 111.419 78.5905C110.701 78.9035 109.978 79.2043 109.249 79.493C107.796 80.0683 106.324 80.5951 104.832 81.0574C101.837 82.0071 98.7505 82.6379 95.6235 82.9393C92.6172 83.2083 89.4078 83.2919 86.4434 82.6401C85.1525 82.3693 83.9015 81.9344 82.7209 81.346C82.1334 81.051 81.5715 80.7076 81.0409 80.3194C80.5047 79.9193 80.0944 79.4138 79.6 78.9755C78.914 78.3664 78.0973 78.4064 77.2949 78.7221C76.4288 79.0622 75.5686 79.4165 74.7114 79.7788C73.1491 80.3753 71.6505 81.1268 70.2381 82.0222C68.9036 82.8847 67.7168 83.9565 66.7233 85.1965C65.8104 86.4232 65.0883 87.7808 64.5813 89.2234C62.1615 95.8156 61.2759 102.77 59.8306 109.605C59.482 111.254 59.1056 112.896 58.7013 114.531C58.3715 115.865 60.429 116.432 60.7593 115.098Z" fill="#211715"/>
<path d="M112.698 57.6577C113.261 58.6251 113.507 59.7443 113.403 60.8587C113.388 61.8903 113.053 62.8917 112.443 63.724C112.095 64.1454 111.627 64.4516 111.101 64.6023C110.575 64.7531 110.016 64.7413 109.497 64.5687C108.98 64.3456 108.532 63.9877 108.2 63.5324C107.715 62.9037 107.383 62.171 107.23 61.3922C107.077 60.6134 107.107 59.8096 107.318 59.0444C107.429 58.532 107.649 58.0497 107.963 57.6304C108.278 57.2112 108.68 56.865 109.141 56.6157C110.151 56.1177 112.027 56.32 112.7 57.6564" fill="white"/>
<path d="M111.778 58.1964C112.117 58.8212 112.316 59.5121 112.362 60.2213C112.408 60.9306 112.3 61.6414 112.045 62.3047C111.879 62.8148 111.523 63.2415 111.052 63.4966C110.863 63.598 110.977 63.5269 111.022 63.5109C110.958 63.5335 110.894 63.5553 110.829 63.5727C110.75 63.5949 110.669 63.6096 110.589 63.6287C110.753 63.6193 110.425 63.6683 110.589 63.6287C110.454 63.6395 110.318 63.6423 110.182 63.6371C110.125 63.634 110.068 63.6291 110.012 63.6229C110.141 63.6371 110.152 63.6518 110.022 63.6127C109.964 63.5953 109.905 63.5807 109.847 63.5629C109.899 63.5789 110.037 63.6669 109.811 63.5442C109.74 63.5055 109.669 63.466 109.6 63.422C109.422 63.3081 109.485 63.3424 109.525 63.3739C109.276 63.1747 109.061 62.9366 108.889 62.6688C108.514 62.1122 108.284 61.4701 108.222 60.8016C108.16 60.1377 108.255 59.4685 108.501 58.8486C108.566 58.6748 108.447 58.9593 108.526 58.7899C108.566 58.7031 108.609 58.6182 108.654 58.5352C108.727 58.4004 108.81 58.2709 108.9 58.1475C108.87 58.1879 108.811 58.2497 108.951 58.0928C109.003 58.0355 109.056 57.9786 109.112 57.9248C109.212 57.8166 109.331 57.7264 109.461 57.658C109.536 57.6225 109.608 57.5831 109.678 57.5398C109.521 57.6602 109.607 57.5651 109.719 57.5295C109.855 57.4865 109.994 57.4544 110.134 57.4335C110.086 57.4411 109.921 57.4415 110.118 57.4433C110.209 57.4433 110.301 57.4357 110.393 57.4379C110.455 57.4379 110.517 57.4451 110.579 57.4473C110.856 57.4562 110.399 57.3908 110.668 57.4602C110.823 57.5002 110.974 57.5358 111.125 57.5878C110.932 57.5215 111.287 57.6767 111.342 57.7069C111.386 57.7314 111.551 57.8572 111.397 57.7327C111.459 57.7829 111.514 57.8403 111.573 57.895C111.61 57.9301 111.731 58.095 111.622 57.9394C111.679 58.0222 111.731 58.1083 111.777 58.1973C111.848 58.3183 111.942 58.4241 112.053 58.5087C112.165 58.5933 112.293 58.6551 112.428 58.6905C112.564 58.7259 112.705 58.7342 112.844 58.715C112.983 58.6958 113.117 58.6494 113.238 58.5785C113.359 58.5076 113.465 58.4136 113.549 58.3018C113.634 58.19 113.696 58.0626 113.731 57.9269C113.766 57.7912 113.775 57.6499 113.756 57.511C113.736 57.3721 113.69 57.2384 113.619 57.1174C112.799 55.5827 110.768 54.9496 109.15 55.468C107.176 56.1007 106.197 58.1626 106.083 60.105C105.967 62.0651 106.906 64.4471 108.732 65.387C109.575 65.7883 110.536 65.8645 111.432 65.6011C112.327 65.3377 113.094 64.7532 113.586 63.9594C114.17 62.9581 114.479 61.82 114.481 60.6607C114.54 59.4213 114.241 58.1913 113.619 57.1174C112.925 55.9331 111.08 57.0058 111.777 58.1946L111.778 58.1964Z" fill="#211715"/>
<path d="M9.0581 116.097C11.2001 128.639 13.4616 141.713 16.3456 158.267C16.4145 158.666 16.613 159.031 16.9104 159.305C17.2077 159.58 17.5874 159.749 17.9906 159.786C27.9397 160.672 61.5871 162.129 73.2866 162.507C73.5595 162.516 73.8309 162.464 74.0811 162.354C74.3313 162.245 74.5539 162.081 74.7328 161.875C74.9117 161.669 75.0423 161.425 75.1151 161.162C75.188 160.899 75.2012 160.623 75.1538 160.354C72.2743 143.868 69.9861 130.634 67.8143 117.917C67.7113 117.311 67.4015 116.759 66.9376 116.355C66.4736 115.951 65.8841 115.72 65.2691 115.701C55.6734 115.41 20.2112 114.257 10.9222 113.958C10.6506 113.949 10.3804 114 10.1313 114.109C9.88208 114.217 9.66017 114.38 9.48166 114.585C9.30314 114.789 9.17251 115.032 9.09924 115.293C9.02598 115.555 9.01193 115.83 9.0581 116.097Z" fill="white"/>
<path d="M8.0288 116.38C9.48968 124.929 10.9615 133.477 12.4443 142.024C13.2988 146.954 14.1554 151.883 15.014 156.812C15.2181 157.982 15.2701 159.257 16.2144 160.107C16.8834 160.71 17.6815 160.827 18.5382 160.899C19.5256 160.982 20.5134 161.054 21.5017 161.121C27.5035 161.539 33.5182 161.841 39.5289 162.138C46.4918 162.482 53.4558 162.796 60.4209 163.082C63.3181 163.201 66.2157 163.315 69.1137 163.425C70.2652 163.467 71.4166 163.508 72.5681 163.547C73.3283 163.643 74.1 163.518 74.791 163.187C75.2343 162.927 75.6019 162.557 75.8573 162.111C76.1126 161.665 76.2466 161.161 76.2461 160.647C76.1975 160.012 76.0991 159.381 75.9518 158.761L75.5961 156.721C75.3703 155.427 75.1447 154.133 74.9194 152.838C74.4995 150.427 74.0799 148.015 73.6609 145.603C72.8728 141.065 72.0873 136.526 71.3046 131.986C70.5722 127.737 69.8427 123.488 69.1159 119.238C68.9483 118.257 68.8803 117.21 68.3286 116.353C68.0521 115.921 67.6893 115.551 67.263 115.265C66.8366 114.98 66.3559 114.786 65.851 114.695C64.8687 114.585 63.8802 114.539 62.8919 114.558C57.3678 114.386 51.8443 114.211 46.3211 114.032C39.6142 113.816 32.9076 113.599 26.2013 113.382C21.2594 113.222 16.3175 113.062 11.3756 112.903C10.6384 112.822 9.89519 112.987 9.26117 113.372C8.82123 113.666 8.47036 114.076 8.24662 114.556C8.02287 115.036 7.93478 115.568 7.9919 116.094C8.00059 116.375 8.1158 116.641 8.31404 116.839C8.51229 117.037 8.77866 117.153 9.05889 117.161C9.34133 117.16 9.61171 117.047 9.81143 116.847C10.0111 116.647 10.1241 116.377 10.1259 116.094C10.0401 115.427 10.3526 115.011 11.0377 115.027C11.4192 115.035 11.8002 115.052 12.1812 115.064L15.0762 115.158L22.7368 115.406C29.1034 115.612 35.4703 115.818 41.8376 116.023C47.7469 116.213 53.6562 116.402 59.5655 116.59L62.7696 116.69C63.6178 116.716 64.499 116.676 65.3428 116.771C65.6579 116.804 65.9563 116.93 66.2006 117.131C66.4448 117.333 66.6241 117.603 66.7161 117.906C66.9567 118.895 67.1339 119.898 67.2465 120.91C67.5891 122.913 67.9326 124.916 68.277 126.919C69.8061 135.82 71.3464 144.718 72.898 153.614C73.1114 154.839 73.325 156.064 73.539 157.29C73.6448 157.898 73.751 158.505 73.8574 159.113C73.9463 159.618 74.1979 160.282 74.109 160.793C74.0067 161.382 73.4786 161.444 72.9735 161.427C72.4777 161.411 71.982 161.394 71.4864 161.377C68.9283 161.288 66.3708 161.191 63.8139 161.087C57.2182 160.823 50.6236 160.535 44.0302 160.222C37.7297 159.924 31.4291 159.611 25.133 159.224C22.9573 159.091 20.7811 158.951 18.6089 158.769C18.1643 158.732 17.6815 158.746 17.453 158.278C17.273 157.725 17.1636 157.15 17.1275 156.57L16.7914 154.64C16.3664 152.199 15.942 149.759 15.5181 147.319C14.0285 138.74 12.5466 130.16 11.0724 121.578C10.7425 119.656 10.4135 117.734 10.0854 115.812C10.0083 115.54 9.82742 115.31 9.5819 115.171C9.33637 115.031 9.04585 114.994 8.77303 115.066C8.5038 115.148 8.2762 115.329 8.13758 115.574C7.99895 115.819 7.95999 116.107 8.0288 116.38Z" fill="#211715"/>
<path d="M98.9685 146.712C91.9575 151.014 84.8416 155.154 77.699 159.232C76.5653 159.879 75.4317 160.532 74.2833 161.149C73.0732 161.799 74.1499 163.643 75.3601 162.992C77.9386 161.606 80.4643 160.112 82.9979 158.645C86.8352 156.422 90.6601 154.178 94.4725 151.913C96.3361 150.804 98.1937 149.685 100.045 148.555C101.214 147.838 100.143 145.992 98.9685 146.712Z" fill="#211715"/>
<path d="M86.0539 60.6951C85.9058 61.0607 85.7783 61.4343 85.672 61.8141C85.4853 62.4472 85.2612 63.243 85.7912 63.7787C85.9079 63.8907 86.0396 63.986 86.1824 64.0619C86.3274 64.1413 86.4823 64.2011 86.643 64.2398C86.86 64.2772 87.0804 64.2921 87.3005 64.2842C87.5835 64.2842 87.8549 64.1718 88.055 63.9717C88.2551 63.7716 88.3675 63.5002 88.3675 63.2172C88.3668 62.9343 88.255 62.6629 88.0563 62.4615C87.8525 62.2662 87.5826 62.1551 87.3005 62.1502C87.1848 62.1568 87.0689 62.1561 86.9533 62.148L87.2369 62.1863C87.1785 62.1761 87.1213 62.16 87.0662 62.1382L87.3214 62.2458C87.2399 62.2093 87.1629 62.1633 87.092 62.1089L87.3081 62.2756C87.3052 62.2733 87.3027 62.2706 87.3005 62.2676L87.4672 62.4837C87.4635 62.4784 87.4604 62.4727 87.4579 62.4668L87.5655 62.7215C87.5606 62.7085 87.5573 62.6949 87.5557 62.6811L87.5939 62.9647C87.5895 62.9088 87.5917 62.8525 87.6006 62.7971L87.5623 63.0807C87.6198 62.7403 87.7066 62.4055 87.8215 62.08C87.9105 61.8048 87.9994 61.527 88.1118 61.2602C88.1497 61.1229 88.1596 60.9795 88.1411 60.8383C88.1227 60.6971 88.0761 60.5611 88.0043 60.4382C87.9335 60.3172 87.8397 60.2112 87.728 60.1265C87.6164 60.0418 87.4892 59.9799 87.3536 59.9443C87.218 59.9088 87.0767 59.9003 86.9379 59.9193C86.799 59.9384 86.6653 59.9846 86.5443 60.0554L86.3282 60.2221C86.1977 60.3528 86.1032 60.5149 86.0539 60.6929V60.6951Z" fill="#211715"/>
<path d="M78.0662 56.0109C77.7643 56.9583 77.899 59.1536 79.6253 59.3733C81.9131 59.4035 82.0927 56.756 81.3503 55.4952C80.7426 54.4629 78.8985 54.0028 78.0662 56.0109Z" fill="#211715"/>
<path d="M97.697 56.0913C97.9828 57.0925 97.7361 59.3776 95.8466 59.5337C93.3548 59.467 93.2797 56.6964 94.1452 55.4125C94.8539 54.361 96.8847 53.9609 97.697 56.0913Z" fill="#211715"/>
<path d="M90.3121 72.2692C91.03 71.6142 91.6329 70.8434 92.0958 69.9889C92.6182 69.0109 93.3019 67.4251 92.0513 66.684C91.4347 66.3181 90.5842 66.5008 89.9045 66.5608C89.178 66.6248 88.452 66.7009 87.726 66.7831C86.9129 66.8765 86.1007 66.9769 85.2915 67.0987C85.0191 67.1746 84.7877 67.3552 84.648 67.6011C84.5083 67.847 84.4716 68.1383 84.546 68.4111C84.6285 68.6793 84.8104 68.9058 85.0545 69.0443C85.2985 69.1828 85.5862 69.2229 85.8588 69.1562C86.007 69.134 86.1552 69.1127 86.3034 69.0922C86.6146 69.0478 86.1749 69.1082 86.3785 69.082L86.6075 69.0522C86.9943 69.003 87.3816 68.9563 87.7696 68.9122C88.5574 68.8233 89.3465 68.7406 90.1365 68.6743C90.4504 68.6481 90.7643 68.6236 91.0786 68.6076C91.133 68.6115 91.1876 68.6088 91.2413 68.5996C91.0939 68.5941 90.9538 68.5342 90.8479 68.4316C90.775 68.3577 90.7196 68.2686 90.6856 68.1706C90.6516 68.0726 90.6399 67.9683 90.6514 67.8652C90.6112 67.969 90.5814 68.0765 90.5624 68.1862C90.5399 68.2573 90.5159 68.3277 90.4904 68.3974C90.442 68.5174 90.4362 68.5365 90.4722 68.4552C90.2591 68.9397 89.994 69.3997 89.6817 69.8271C89.6164 69.92 89.5515 70.0138 89.4817 70.1036C89.587 69.9703 89.387 70.2063 89.3621 70.2321C89.1843 70.4175 88.9877 70.5847 88.7997 70.7598C88.6019 70.9611 88.491 71.2321 88.491 71.5143C88.491 71.7965 88.6019 72.0675 88.7997 72.2687C89.0027 72.4635 89.2731 72.5722 89.5544 72.5722C89.8357 72.5722 90.1061 72.4635 90.309 72.2687L90.3121 72.2692Z" fill="#211715"/>
<path d="M138.081 142.134C142.349 142.134 146.617 142.113 150.882 142.103C151.578 142.103 152.273 142.099 152.971 142.099C154.344 142.099 154.347 139.965 152.971 139.965C148.644 139.965 144.317 139.985 139.99 139.996C139.354 139.996 138.718 140 138.082 140C136.71 140 136.707 142.134 138.082 142.134H138.081Z" fill="#211715"/>
</g>
<defs>
<filter id="filter0_d_40_338" x="0" y="0" width="162" height="190" filterUnits="userSpaceOnUse" color-interpolation-filters="sRGB">
<feFlood flood-opacity="0" result="BackgroundImageFix"/>
<feColorMatrix in="SourceAlpha" type="matrix" values="0 0 0 0 0 0 0 0 0 0 0 0 0 0 0 0 0 0 127 0" result="hardAlpha"/>
<feOffset dy="4"/>
<feGaussianBlur stdDeviation="2"/>
<feComposite in2="hardAlpha" operator="out"/>
<feColorMatrix type="matrix" values="0 0 0 0 1 0 0 0 0 1 0 0 0 0 1 0 0 0 0.35 0"/>
<feBlend mode="normal" in2="BackgroundImageFix" result="effect1_dropShadow_40_338"/>
<feBlend mode="normal" in="SourceGraphic" in2="effect1_dropShadow_40_338" result="shape"/>
</filter>
<clipPath id="clip0_40_338">
<rect width="148" height="142" fill="white" transform="translate(7 22)"/>
</clipPath>
</defs>
</svg>
