<svg xmlns="http://www.w3.org/2000/svg" width="800px" height="800px" viewBox="0 -43.72 431.871 431.871"><defs><style>.a{fill:#ffffff;}.b{fill:#7a7473;}.c{fill:#211715;}.d{fill:#b5886a;}.e{fill:#fff;}</style></defs><path d="M333.256,43.039a64.674,64.674,0,0,0-6.465-5.032c-.151-.111-.3-.215-.465-.322a46.453,46.453,0,0,0-10.047-5.08,60.8,60.8,0,0,0-22.81-4.177A53.679,53.679,0,0,0,258.157,41.1C245.118,52.6,238.276,68.415,240.285,94.562c2.811,19.631-4.438,40.994-2.972,57.181.425,4.855,2.846,10.7,9.569,15.316,0,0,21.768,7.671,46.36,7.671s49.688-9.092,49.688-9.092c10.482-3.886,10.655-10.482,10.738-14.321a40.487,40.487,0,0,0-2.064-13.911c-1.856-6.152-5.259-18.642-4.825-40.728h0c.789-6.374.494-15.634.351-19.193-.5-12.34-5.717-26.285-13.628-34.212-.074-.074-.161-.154-.25-.233"/><path class="c" d="M328,35.935c-5.9-4.209-13.191-6.892-20.24-8.421a65.407,65.407,0,0,0-24.08-.7,54.618,54.618,0,0,0-32.108,17.44c-8.152,9.178-12.35,20.612-13.6,32.724a89.744,89.744,0,0,0-.419,10.912c.078,4.07.632,8.069.861,12.123.46,8.17-.464,16.341-1.516,24.431-.988,7.589-2.222,15.224-2.189,22.9a30.234,30.234,0,0,0,1.149,9.266,23.118,23.118,0,0,0,5.181,8.63,29.439,29.439,0,0,0,4.625,3.894,2.422,2.422,0,0,0,3.284-.861,2.449,2.449,0,0,0-.861-3.284,20.67,20.67,0,0,1-6.6-7.3,17.789,17.789,0,0,1-1.871-7.207c-.446-7.117.537-14.271,1.463-21.312,1.023-7.778,2.131-15.572,2.249-23.429.06-4-.392-7.878-.693-11.846a102.715,102.715,0,0,1-.242-11.248c.395-11.5,3.253-22.789,10.2-32.107A49.147,49.147,0,0,1,279.221,32.68a58.376,58.376,0,0,1,41.446,4.455,43.481,43.481,0,0,1,4.913,2.944,2.419,2.419,0,0,0,3.284-.861A2.452,2.452,0,0,0,328,35.935Z"/><path class="c" d="M343.568,167.952c5.083-1.927,9.686-5,11.58-10.313,1.53-4.286,1.093-9.6.417-13.96-.654-4.225-2.142-8.255-3.156-12.4a104.822,104.822,0,0,1-2.254-12.5,162.1,162.1,0,0,1-.976-22.106l-1.762,2.315.005,0a2.529,2.529,0,0,0,1.761-2.314,108.473,108.473,0,0,0,.237-21.113,61.4,61.4,0,0,0-6.782-23.623,39.534,39.534,0,0,0-7.685-10.6c-2.26-2.1-5.662,1.285-3.394,3.394,5.308,4.938,8.658,12.161,10.743,18.987,2.032,6.652,2.531,13.346,2.6,20.256a98.781,98.781,0,0,1-.517,12.7l1.762-2.314h0a2.485,2.485,0,0,0-1.762,2.314,144.587,144.587,0,0,0,2.84,33.453c.684,3.136,1.6,6.192,2.473,9.276a38.791,38.791,0,0,1,1.578,9.616c.028,1.088.014,2.178-.029,3.266-.012.293-.026.585-.048.878-.013.184-.032.368-.048.552-.058.691.036-.1-.038.319a9.6,9.6,0,0,1-1.913,4.7,15.783,15.783,0,0,1-6.9,4.584,2.468,2.468,0,0,0-1.677,2.952,2.419,2.419,0,0,0,2.953,1.676Z"/><path class="a" d="M268.7,153.755c2.113-.828,4.4-1.735,7.191-2.971a7.013,7.013,0,0,0,1.669-1.069,40.533,40.533,0,0,0,22.535-.451,43.9,43.9,0,0,0,16.967-10.271,53.394,53.394,0,0,0,4.171-4.224,63.885,63.885,0,0,0,4.121,10.484c.962,1.945,8.5,7.739,12.408,9.919-16.525,7.257-33.921,12.141-53.893,10.276-6.719-.627-15.7-3.5-20.793-9.342-.018-.02-.036-.041-.055-.061.05-.018.077-.03.077-.03C264.99,155.2,266.773,154.511,268.7,153.755Z"/><path class="a" d="M263.132,80.844c2.864-2.573,5.693-5.18,8.426-7.732-.212,3.111-.544,6.105-1.05,9.23a1.062,1.062,0,0,0,1.377,1.189c11.672-3.971,22.414-10.787,29.389-19.4A129.792,129.792,0,0,0,307.2,77.92c2.8,5.519,9.849,15.068,16.041,16.708,1.623.611,3.736,1.216,5.358,1.827,2.728-2.665,7.419-2.672,10.53-.466a11.744,11.744,0,0,1,4.518,10,19.4,19.4,0,0,1-4.063,10.514,27.975,27.975,0,0,1-11.742,9,54.354,54.354,0,0,1-10.777,13.492A43.9,43.9,0,0,1,300.1,149.264a40.533,40.533,0,0,1-22.535.451,40,40,0,0,1-11.273-4.892,38.642,38.642,0,0,1-10.241-10.046,52.457,52.457,0,0,1-7.836-15.532,72.687,72.687,0,0,1-3.235-15.561c-.348-3-.487-5.541-.543-7.376,1.087-.8,2.471-1.9,3.718-2.777C253.036,89.719,258.137,85.333,263.132,80.844Z"/><path class="e" d="M390.046,267.776c-4.222-28.223-7.111-45.778-14.222-71.556a77.324,77.324,0,0,0-11.778-23.778,47.253,47.253,0,0,0-9.029-8.816,69,69,0,0,0-15.351-8.609,2,2,0,0,0-1.589.015c-16.618,7.335-34.107,12.293-54.2,10.416-6.719-.627-15.7-3.5-20.793-9.342a1.986,1.986,0,0,0-2.217-.544c-3.712,1.441-7.26,2.934-10.894,4.549a38.637,38.637,0,0,0-8.71,5.54,27.874,27.874,0,0,0-8.34,12.58,165.851,165.851,0,0,0-6.75,25.678c-1.97,10.81-3.7,20.24-6.34,30.87,0,0-.118.612-.307,1.6,5.242.165,9.619.3,12.759.4a5.992,5.992,0,0,1,5.725,4.986c1.53,8.959,3.086,18.032,4.7,27.409.074.425.146.842.22,1.268,6-9.1,9.837-18.253,14.311-27.018,1.8,3.653,3.885,7.177,5.589,10.875a48.284,48.284,0,0,1,2.554,7.111c.13.46.284.91.457,1.356,1.114,2.888.957,7.806,3.161,13.016a105.244,105.244,0,0,1,9.473-5.457c4.07-2.07,8.63-3.91,13.08-2.95,5.68,1.23,8.433,3.739,14.073,5.119,4.123,1.015,6.362,0,9.927-.02,5,9.624,7.157,25.619,7.255,28.343,5.037-.074,28.5-.444,36.094-1.217,5.992-.61,12.136-.745,17.752-2.921a24.865,24.865,0,0,0,4.394-2.224A17.983,17.983,0,0,0,389,284.393,52.793,52.793,0,0,0,390.046,267.776Z"/><path class="c" d="M339.959,223.346q5.326,19.565,9.72,39.366c.669,3.015,5.3,1.739,4.629-1.276q-4.393-19.8-9.72-39.366c-.81-2.977-5.442-1.713-4.629,1.276Z"/><path class="c" d="M322.194,265.137c12.944,1.159,26.1-.249,39.037-.963,3.072-.169,3.092-4.971,0-4.8-12.932.714-26.093,2.122-39.037.963a2.419,2.419,0,0,0-2.4,2.4,2.45,2.45,0,0,0,2.4,2.4Z"/><path class="c" d="M248.405,207.673a35.179,35.179,0,0,1,.685,6.2c.187,2.311.318,4.627.476,6.94a83.412,83.412,0,0,0,1.785,13.656,55.085,55.085,0,0,0,5.152,12.779c2.079,3.953,4.312,7.829,5.73,12.083a50.531,50.531,0,0,1,1.953,6.647c.455,2.447.768,4.9,1.415,7.314.8,2.98,5.433,1.716,4.629-1.276-.581-2.162-.91-4.362-1.284-6.567a47.007,47.007,0,0,0-1.518-5.593,68.384,68.384,0,0,0-5.5-12.628,63.061,63.061,0,0,1-5.482-12.258,65.093,65.093,0,0,1-2.012-13.231c-.188-2.622-.33-5.246-.541-7.866a42.4,42.4,0,0,0-.856-7.473c-.793-2.983-5.424-1.718-4.629,1.276Z"/><path class="c" d="M254.955,242.619c-4.009,7.916-7.6,16.04-12.21,23.636-1.608,2.647,2.542,5.062,4.144,2.423,4.613-7.6,8.2-15.72,12.21-23.636,1.392-2.749-2.747-5.182-4.144-2.423Z"/><path class="c" d="M318.927,135.405a63.35,63.35,0,0,0,3.251,8.705,16.435,16.435,0,0,0,1.418,2.836,13.912,13.912,0,0,0,1.812,2.022,59.953,59.953,0,0,0,10.742,8.041c2.669,1.568,5.087-2.579,2.423-4.145a54,54,0,0,1-9.614-7.142,18.415,18.415,0,0,1-1.51-1.576c.16.19.245.4.084.077-.079-.161-.169-.319-.248-.481-.308-.625-.6-1.257-.889-1.892a54.974,54.974,0,0,1-2.84-7.721c-.836-2.969-5.469-1.708-4.629,1.276Z"/><path class="c" d="M264.313,158.089l.388-.166c.618-.265-.258.1.1-.042.254-.1.508-.211.763-.316q.855-.348,1.713-.687c1.152-.455,2.308-.9,3.459-1.36q2.069-.819,4.116-1.687a15.439,15.439,0,0,0,4.376-2.427,2.412,2.412,0,0,0,0-3.394,2.459,2.459,0,0,0-3.394,0c-.072.062-.288.239-.087.088-.131.1-.27.187-.409.272a8.854,8.854,0,0,1-1.048.516c-.337.147-.673.294-1.011.439l-.61.26c.224-.095-.075.031-.138.057q-1.834.765-3.686,1.491c-2.327.917-4.657,1.822-6.955,2.811a2.407,2.407,0,0,0-.861,3.284,2.476,2.476,0,0,0,3.284.861Z"/><path class="c" d="M330.3,98.152c2.088-1.937,5.548-1.713,7.719-.018,2.6,2.032,3.542,5.637,3.165,8.8-.924,7.773-7.764,13.533-14.5,16.473a2.417,2.417,0,0,0-.861,3.284,2.463,2.463,0,0,0,3.284.861c7.083-3.091,13.156-8.616,15.848-15.983,2.541-6.955.471-16.03-7.014-18.877A10.738,10.738,0,0,0,326.9,94.758c-2.269,2.105,1.131,5.493,3.394,3.394Z"/><path class="c" d="M242.037,96.479a83.671,83.671,0,0,0,4.906,26.372c3.117,8.314,8.219,16.447,15.278,21.979,13.866,10.865,34.229,11.4,48.922,1.879a58.862,58.862,0,0,0,18.792-20.032c1.536-2.686-2.609-5.107-4.145-2.423a54.914,54.914,0,0,1-14.708,16.663,38.221,38.221,0,0,1-43.512,1.878c-6.9-4.461-12.048-11.761-15.219-19.246a76.4,76.4,0,0,1-5.514-27.07c-.111-3.08-4.912-3.094-4.8,0Z"/><path class="c" d="M299.056,65.04c2.217,6.142,4.731,12.545,8.4,17.986,3.414,5.063,7.874,10.621,13.537,13.258a2.469,2.469,0,0,0,3.284-.861,2.42,2.42,0,0,0-.861-3.283c-5.042-2.348-8.993-7.282-12-11.817-3.347-5.04-5.684-10.893-7.73-16.559a2.462,2.462,0,0,0-2.952-1.677,2.422,2.422,0,0,0-1.676,2.953Z"/><path class="c" d="M299.564,62.445a54.573,54.573,0,0,1-12.617,11.173,70.477,70.477,0,0,1-7.648,4.3c-1.337.648-2.692,1.261-4.071,1.818a22.659,22.659,0,0,1-4.3,1.536H272.2q.654,2.013.737.968c.025-.163.05-.326.074-.489q.09-.609.174-1.218c.117-.856.229-1.713.329-2.572.186-1.614.328-3.231.442-4.851.154-2.18-2.674-3.026-4.1-1.7-4.5,4.2-9.038,8.351-13.687,12.38a120.851,120.851,0,0,1-13.062,10.445c-2.584,1.674-.181,5.831,2.422,4.145A127.66,127.66,0,0,0,259.211,87.5c4.774-4.126,9.432-8.384,14.044-12.688l-4.1-1.7c-.179,2.545-.428,5.085-.81,7.609a5.179,5.179,0,0,0,.172,3.458,3.527,3.527,0,0,0,3.044,1.809,9.14,9.14,0,0,0,2.961-.854c1.061-.395,2.112-.816,3.156-1.254,2.01-.844,3.989-1.754,5.923-2.761a61.6,61.6,0,0,0,19.354-15.28,2.47,2.47,0,0,0,0-3.394,2.418,2.418,0,0,0-3.394,0Z"/><path class="a" d="M258.858,297.13c0-.117,0-.231,0-.343a4.827,4.827,0,0,1,1.229-3.1l.885-1.124-1.152.243a4.339,4.339,0,0,1-4.54-1.69c-.84-1.24-.31-3.33.06-4.08a11.906,11.906,0,0,1,2.23-2.72c1.01-1,5.39-4.35,6.53-5.18a105.827,105.827,0,0,1,14.37-8.82c4.07-2.07,8.63-3.91,13.08-2.95,5.68,1.23,8.433,3.739,14.073,5.119,3.972.978,6.2.076,9.541-.012,3.278,6.315,5.335,15.376,6.39,21.626l-.693.207c-1.427.6-5.035,2.836-9.188,4.558a15.177,15.177,0,0,1-11.676-.05,85.145,85.145,0,0,1-10.649,9.971c-.712.571-3.073,2.307-5,.674-1.265-1.073-.969-3.527-.345-4.483,3.005-4.607,4.282-8.023,7.606-12.27-5.511,3.424-10.812,7.433-16.3,10.91-1.785,1.13-3.273,2.112-5.355,1.747a3.827,3.827,0,0,1-3.219-3.986,5.943,5.943,0,0,1,1.067-2.8l-1.653.767a10.958,10.958,0,0,1-3.209,1.064,3.977,3.977,0,0,1-3.219-.949A3.9,3.9,0,0,1,258.858,297.13Z"/><path class="c" d="M259.182,290.5a2.382,2.382,0,0,1-1.492-.274c-.667-.456-.484-1.209-.281-1.9.148-.5.059-.19,0-.072a4.241,4.241,0,0,1,.366-.62,9.849,9.849,0,0,1,1.024-1.148,19.359,19.359,0,0,1,1.556-1.419,103.09,103.09,0,0,1,9.46-6.964c4.531-2.958,9.449-6.078,14.624-7.759a13.116,13.116,0,0,1,7.763-.343,45.457,45.457,0,0,1,6.52,2.549,30.5,30.5,0,0,0,8.35,2.633c2.706.355,5.31-.194,8.008-.3,3.079-.123,3.094-4.923,0-4.8-2.557.1-5.132.736-7.69.332a31.585,31.585,0,0,1-7.912-2.76,31.667,31.667,0,0,0-8.156-2.747,18.652,18.652,0,0,0-9.422,1.257,81.525,81.525,0,0,0-17.156,9.581,63.635,63.635,0,0,0-9.339,7.347c-2.077,2.135-3.689,5.016-2.723,8.092,1.034,3.292,4.665,4.5,7.773,3.943a2.42,2.42,0,0,0,1.676-2.952,2.452,2.452,0,0,0-2.952-1.676Z"/><path class="c" d="M276.252,278.21a120.867,120.867,0,0,0-12.732,9.011c-3.5,2.778-8.323,6.483-6.787,11.627a5.392,5.392,0,0,0,4.239,3.839c2.282.427,4.338-.33,6.388-1.269a2.42,2.42,0,0,0,.861-3.284,2.457,2.457,0,0,0-3.284-.861,10.343,10.343,0,0,1-1.8.659,2.338,2.338,0,0,1-1.163.071c-.106-.024-.608-.228-.444-.145.135.068-.087-.1-.13-.184a2.015,2.015,0,0,1-.123-1.181c-.029.219.093-.338.121-.418-.057.161.213-.4.3-.527.134-.207.412-.806.653-.935-.143.076-.395.459-.1.147.1-.11.2-.225.3-.335.23-.244.471-.479.714-.709a81.536,81.536,0,0,1,9.721-7.6c1.859-1.307,3.742-2.587,5.69-3.757,2.645-1.589.235-5.741-2.422-4.145Z"/><path class="c" d="M284.1,283.171c-3.626,2.281-7.115,4.76-10.605,7.241-3.181,2.261-6.636,4.372-8.363,8.042-1.639,3.486-.395,7.64,3.4,9.007,4.078,1.468,7.849-1.628,11.031-3.756,4.172-2.791,8.238-5.737,12.474-8.431,2.6-1.653.195-5.808-2.422-4.144-3.98,2.53-7.81,5.283-11.718,7.921a37.617,37.617,0,0,1-5.858,3.7c-.916.391-2.258.447-2.733-.443-.535-1,.212-2.115.994-3.158a20.4,20.4,0,0,1,4.873-4.071c3.739-2.653,7.464-5.325,11.346-7.768,2.609-1.641.2-5.8-2.422-4.144Z"/><path class="c" d="M288.83,292.441a76.638,76.638,0,0,0-4.589,7.505c-1.366,2.406-3.384,4.692-3.15,7.631a5.24,5.24,0,0,0,2.264,4.125,5.41,5.41,0,0,0,4.689.529,10.52,10.52,0,0,0,3.245-1.942q1.861-1.5,3.658-3.08a81.776,81.776,0,0,0,7.2-7.2,2.457,2.457,0,0,0,0-3.394,2.421,2.421,0,0,0-3.394,0q-2.568,2.912-5.4,5.571-1.473,1.375-3.007,2.682-.741.632-1.492,1.25-.416.342-.834.68a2.421,2.421,0,0,1-.364.293c.152-.077.476-.337.129-.1a11.206,11.206,0,0,1-1.007.612c-.356.191.2-.006-.21.07-.142.027-.278.08-.422.1.336-.056.087.043-.019-.029.024.016.528.193-.032-.007-.013,0-.34-.15-.159-.054.274.144-.152-.28.115.146-.148-.236-.131-.452-.087-.116a2.325,2.325,0,0,1-.075-.284c-.037-.177-.034-.127.007.148l-.015-.2c0-.2,0-.4.008-.6.008-.454.013-.032-.01.062.022-.09.033-.182.06-.27s.054-.173.072-.257c.085-.4-.014.039-.065.122.162-.261.319-.525.485-.785.709-1.114,1.377-2.253,2.028-3.4a74.625,74.625,0,0,1,4.52-7.385,2.417,2.417,0,0,0-.861-3.284,2.454,2.454,0,0,0-3.283.861Z"/><path class="c" d="M300.776,301.654a18.258,18.258,0,0,0,12.61-.927c2.981-1.282,5.719-3.059,8.686-4.346a2.414,2.414,0,0,0,.861-3.283,2.461,2.461,0,0,0-3.283-.862c-2.636,1.144-5.08,2.721-7.7,3.911a13.764,13.764,0,0,1-9.9.878c-2.967-.884-4.234,3.748-1.276,4.629Z"/><path class="c" d="M222.142,235.417c1.835-7.417,3.373-14.9,4.782-22.406,1.405-7.491,2.693-14.989,4.662-22.36q1.468-5.5,3.332-10.887a31.924,31.924,0,0,1,4.3-8.541c4.139-5.63,10.774-8.62,17.022-11.228,1.6-.667,3.226-1.264,4.815-1.945.334-.144.71-.162.269-.308.142.047.435.481.539.592a20.574,20.574,0,0,0,1.841,1.726,30.966,30.966,0,0,0,7.777,4.673c5.869,2.494,12.054,3.3,18.389,3.479,14.069.391,27.957-2.624,41.047-7.642q2.166-.831,4.307-1.725,1.262-.525,2.516-1.065c1.032-.445.957-.592,1.947-.156a78.889,78.889,0,0,1,9.489,4.882A47.608,47.608,0,0,1,363.7,176.024a74.261,74.261,0,0,1,8.827,17.669c2.161,6.3,3.625,12.91,5.171,19.383,2.988,12.51,5.32,25.153,7.35,37.849q.836,5.224,1.626,10.455a81.387,81.387,0,0,1,1.212,9.273,58.3,58.3,0,0,1-.368,8.551,19.356,19.356,0,0,1-1.809,7.019c-2.881,5.381-8.678,8.292-14.433,9.52a94.15,94.15,0,0,1-11.024,1.321c-1.895.175-3.786.341-5.686.449-9.239.524-18.5.674-27.755.834q-2,.035-4,.064l2.4,2.4a69.442,69.442,0,0,0-1.5-10.351,81.967,81.967,0,0,0-4.352-15.38,31.735,31.735,0,0,0-4.036-7.48,2.48,2.48,0,0,0-3.283-.861,2.416,2.416,0,0,0-.861,3.284c3.829,4.962,5.565,11.423,6.984,17.437q1.017,4.311,1.7,8.694.136.873.257,1.75c-.085-.617.026.209.04.321.029.229.057.457.083.686.072.631.142,1.265.168,1.9a2.438,2.438,0,0,0,2.4,2.4c8.763-.129,17.529-.3,26.288-.642,4.639-.183,9.242-.54,13.866-.943,7.14-.623,14.486-1.549,20.444-5.888a21.5,21.5,0,0,0,6.448-7.092,23.818,23.818,0,0,0,2.339-8.4,60.229,60.229,0,0,0,.512-8.933,75.959,75.959,0,0,0-1.193-9.835c-2.046-13.509-4.2-27.007-7.073-40.369q-2.151-10.011-4.781-19.909a97.343,97.343,0,0,0-7.094-19.535,57.433,57.433,0,0,0-12.124-16.654A67.111,67.111,0,0,0,341.7,153.3a5.1,5.1,0,0,0-5.608,0q-2.423,1.056-4.88,2.03c-3.268,1.294-6.58,2.479-9.937,3.519a100.384,100.384,0,0,1-20.712,4.233c-6.762.605-13.981.793-20.649-.673a34.78,34.78,0,0,1-8.373-2.911,26.664,26.664,0,0,1-3.779-2.309c-1.206-.9-2.129-2.037-3.241-3.023-1.543-1.37-3.38-1.28-5.185-.57-1.948.765-3.883,1.562-5.811,2.377a56.288,56.288,0,0,0-10.062,5.046,33.278,33.278,0,0,0-7.906,7.14,34.127,34.127,0,0,0-4.818,9.058c-5.443,14.828-7.435,30.47-10.686,45.845q-1.176,5.562-2.54,11.08c-.742,3,3.886,4.278,4.629,1.276Z"/><path class="a" d="M338.969,106.215a12.072,12.072,0,0,1,1.586,7.2,11.176,11.176,0,0,1-2.159,6.445,6.1,6.1,0,0,1-6.626,1.9,7.085,7.085,0,0,1-2.919-2.331,11.527,11.527,0,0,1-1.983-10.095,8.171,8.171,0,0,1,4.1-5.463c2.272-1.12,6.491-.665,8.006,2.341"/><path class="c" d="M336.9,107.427a11.06,11.06,0,0,1,.6,9.241,4.7,4.7,0,0,1-2.234,2.681c-.424.228-.168.068-.067.032-.143.051-.287.1-.433.139-.178.05-.36.083-.54.126-.369.089.369-.021,0,0a7.793,7.793,0,0,1-.917.019c-.127-.007-.255-.018-.382-.032.291.032.316.065.022-.023-.13-.039-.262-.072-.393-.112.118.036.428.234-.08-.042-.161-.087-.32-.176-.475-.275-.4-.256-.259-.179-.169-.108a6.657,6.657,0,0,1-1.431-1.586,9.009,9.009,0,0,1-1.5-4.2,9.506,9.506,0,0,1,.628-4.393c.147-.391-.122.249.055-.132q.135-.293.29-.573a7.459,7.459,0,0,1,.553-.872c-.068.091-.2.23.114-.123.116-.129.236-.257.362-.378a2.922,2.922,0,0,1,.786-.6,5.144,5.144,0,0,0,.488-.266c-.355.271-.16.057.091-.023a6.006,6.006,0,0,1,.935-.216c-.11.017-.481.018-.038.022.206,0,.412-.017.619-.012.14,0,.279.016.419.021.623.02-.406-.127.2.029.348.09.688.17,1.029.287-.434-.149.364.2.486.268.1.055.472.338.125.058.14.113.264.242.395.365.084.079.357.45.112.1a5.66,5.66,0,0,1,.347.58A2.4,2.4,0,1,0,341.041,105c-1.845-3.452-6.412-4.876-10.052-3.71-4.44,1.423-6.642,6.061-6.9,10.43-.261,4.409,1.852,9.767,5.96,11.881a8.528,8.528,0,0,0,10.917-3.211,14.785,14.785,0,0,0,2.014-7.42,14.537,14.537,0,0,0-1.939-7.97c-1.561-2.664-5.711-.251-4.144,2.423Z"/><path class="a" d="M105.849,237.665c4.818,28.211,9.905,57.617,16.392,94.853a4.138,4.138,0,0,0,3.7,3.417c22.379,1.992,98.063,5.27,124.379,6.12a4.128,4.128,0,0,0,4.2-4.842c-6.477-37.082-11.624-66.851-16.509-95.454a5.992,5.992,0,0,0-5.725-4.986c-21.584-.653-101.35-3.247-122.244-3.92A4.115,4.115,0,0,0,105.849,237.665Z"/><path class="c" d="M103.534,238.3q4.929,28.846,9.932,57.682,2.883,16.634,5.78,33.263c.459,2.633.576,5.5,2.7,7.412,1.505,1.356,3.3,1.619,5.227,1.781,2.221.187,4.443.35,6.666.5,13.5.939,27.029,1.62,40.549,2.288q23.493,1.159,46.993,2.123,9.775.4,19.553.771,3.885.142,7.77.275a8.974,8.974,0,0,0,5-.811,6.608,6.608,0,0,0,3.273-5.712,27.347,27.347,0,0,0-.662-4.242l-.8-4.59q-.762-4.366-1.522-8.733-1.417-8.136-2.831-16.274-2.659-15.312-5.3-30.629-2.471-14.336-4.923-28.676c-.377-2.205-.53-4.56-1.771-6.488a8.373,8.373,0,0,0-5.573-3.729,50.756,50.756,0,0,0-6.656-.309q-18.638-.579-37.273-1.184-22.629-.728-45.256-1.46-16.674-.54-33.348-1.079a7.582,7.582,0,0,0-4.756,1.055,6.524,6.524,0,0,0-2.855,6.124,2.478,2.478,0,0,0,2.4,2.4,2.415,2.415,0,0,0,2.4-2.4c-.193-1.5.51-2.436,2.051-2.4.858.018,1.715.056,2.572.083l6.512.211,17.231.558q21.481.695,42.964,1.387,19.938.642,39.876,1.275l7.207.226c1.908.059,3.89-.031,5.788.182a3.625,3.625,0,0,1,3.089,2.553,53.727,53.727,0,0,1,1.193,6.756q1.156,6.759,2.318,13.518,5.159,30.03,10.394,60.046.72,4.132,1.442,8.267.357,2.051.716,4.1c.2,1.138.766,2.63.566,3.78-.23,1.325-1.418,1.464-2.554,1.426q-1.673-.054-3.345-.113-8.631-.3-17.258-.652-22.254-.89-44.5-1.945c-14.172-.671-28.344-1.374-42.506-2.245-4.894-.3-9.789-.614-14.675-1.023-1-.084-2.086-.052-2.6-1.105A15.548,15.548,0,0,1,124,328.7l-.756-4.341q-1.434-8.234-2.864-16.467-5.026-28.944-10-57.9-1.113-6.484-2.22-12.969a2.42,2.42,0,0,0-2.952-1.677A2.457,2.457,0,0,0,103.534,238.3Z"/><path class="c" d="M308.087,306.528c-15.77,9.675-31.776,18.988-47.842,28.161-2.55,1.456-5.1,2.923-7.683,4.313-2.722,1.462-.3,5.608,2.422,4.144,5.8-3.118,11.481-6.478,17.18-9.778q12.947-7.5,25.81-15.141,6.288-3.742,12.535-7.554c2.629-1.613.221-5.766-2.422-4.145Z"/><path class="c" d="M55.331,296.23q8.344,0,16.69-.027l26.385-.043q3.351,0,6.7-.01c3.089,0,3.094-4.8,0-4.8q-8.625,0-17.252.027l-26.229.043q-3.149,0-6.3.01c-3.089,0-3.094,4.8,0,4.8Z"/><path class="c" d="M279.038,113.047a23.763,23.763,0,0,0-.859,2.517c-.42,1.424-.924,3.214.268,4.419a3.957,3.957,0,0,0,.88.637,4.215,4.215,0,0,0,1.036.4,7.176,7.176,0,0,0,1.479.1,2.4,2.4,0,0,0,2.4-2.4,2.429,2.429,0,0,0-.7-1.7,2.519,2.519,0,0,0-1.7-.7,6.168,6.168,0,0,1-.781-.005l.638.086a1.975,1.975,0,0,1-.384-.108l.574.242a2.589,2.589,0,0,1-.516-.308l.486.375a.1.1,0,0,1-.017-.018l.375.486a.2.2,0,0,1-.021-.038l.242.573a.4.4,0,0,1-.022-.091l.086.638a1.589,1.589,0,0,1,.015-.377l-.086.638a13.513,13.513,0,0,1,.583-2.251c.2-.619.4-1.244.653-1.844a2.4,2.4,0,0,0-.242-1.849,2.4,2.4,0,0,0-3.284-.861l-.486.375a2.407,2.407,0,0,0-.617,1.059Z"/><path class="c" d="M261.071,102.511c-.679,2.131-.376,7.069,3.507,7.563,5.146.068,5.55-5.887,3.88-8.723C267.091,99.029,262.943,97.994,261.071,102.511Z"/><path class="c" d="M305.227,102.692c.643,2.252.088,7.392-4.162,7.743-5.605-.15-5.774-6.382-3.827-9.27C298.832,98.8,303.4,97.9,305.227,102.692Z"/><path class="c" d="M288.616,139.081a19.55,19.55,0,0,0,4.012-5.129c1.175-2.2,2.713-5.767-.1-7.434-1.387-.823-3.3-.412-4.829-.277-1.634.144-3.267.315-4.9.5-1.829.21-3.656.436-5.476.71a2.407,2.407,0,0,0-1.677,2.952,2.475,2.475,0,0,0,2.953,1.676q.5-.075,1-.144c.7-.1-.289.036.169-.023l.515-.067q1.305-.166,2.614-.315c1.772-.2,3.547-.386,5.324-.535.706-.059,1.412-.114,2.119-.15a1.532,1.532,0,0,0,.366-.018,1.345,1.345,0,0,1-.885-.378,1.568,1.568,0,0,1-.442-1.274,3.8,3.8,0,0,0-.2.722q-.076.24-.162.475c-.109.27-.122.313-.041.13a16.469,16.469,0,0,1-1.778,3.086c-.147.209-.293.42-.45.622.237-.3-.213.231-.269.289-.4.417-.842.793-1.265,1.187a2.421,2.421,0,0,0,0,3.394,2.452,2.452,0,0,0,3.395,0Z"/><path class="c" d="M396.063,296.23c9.6,0,19.2-.047,28.794-.07,1.565,0,3.13-.009,4.7-.01,3.088,0,3.094-4.8,0-4.8-9.733,0-19.467.046-29.2.07-1.43,0-2.86.009-4.29.01-3.088,0-3.094,4.8,0,4.8Z"/></svg>