<svg width="556" height="190" viewBox="0 0 556 190" fill="none" xmlns="http://www.w3.org/2000/svg">
<g filter="url(#filter0_d_40_387)">
<rect x="398" width="154" height="182" rx="29" fill="#DEE2E6"/>
</g>
<g clip-path="url(#clip0_40_387)">
<path d="M504.158 29.5711C503.248 28.7654 502.288 28.0182 501.284 27.3339C501.217 27.2846 501.15 27.2384 501.077 27.1908C499.685 26.2597 498.185 25.5013 496.61 24.9323C493.381 23.6685 489.938 23.038 486.47 23.0753C480.729 23.0039 475.156 25.004 470.771 28.709C464.974 33.8217 461.932 40.8526 462.825 52.477C464.075 61.2045 460.852 70.702 461.504 77.8984C461.693 80.0568 462.769 82.6554 465.758 84.7075C465.758 84.7075 475.436 88.1179 486.369 88.1179C497.302 88.1179 508.459 84.0758 508.459 84.0758C513.119 82.3481 513.196 79.4157 513.233 77.709C513.29 75.6097 512.979 73.5167 512.315 71.5245C511.49 68.7894 509.977 63.2367 510.17 53.4177C510.521 50.584 510.39 46.4672 510.326 44.885C510.104 39.3989 507.784 33.1992 504.267 29.6751C504.234 29.6422 504.196 29.6066 504.156 29.5715" fill="black"/>
<path d="M501.821 26.4127C499.198 24.5415 495.957 23.3487 492.823 22.6689C489.305 21.9032 485.675 21.7977 482.118 22.3577C476.61 23.2268 471.57 25.9645 467.843 30.1111C464.219 34.1915 462.353 39.2748 461.797 44.6595C461.636 46.2713 461.574 47.8913 461.611 49.5107C461.645 51.3201 461.892 53.098 461.993 54.9003C462.198 58.5325 461.787 62.1651 461.319 65.7618C460.88 69.1357 460.332 72.53 460.346 75.9426C460.302 77.3339 460.474 78.7236 460.857 80.062C461.334 81.4946 462.12 82.8045 463.16 83.8987C463.785 84.5448 464.474 85.125 465.217 85.6299C465.462 85.7702 465.752 85.8087 466.025 85.7372C466.298 85.6656 466.532 85.4896 466.677 85.2471C466.814 85.0015 466.851 84.7122 466.779 84.4401C466.708 84.1679 466.534 83.9339 466.294 83.7872C465.069 82.9574 464.062 81.844 463.36 80.5417C462.859 79.5443 462.576 78.4524 462.528 77.3377C462.329 74.1736 462.766 70.9931 463.178 67.8628C463.633 64.4049 464.126 60.9399 464.178 57.4468C464.205 55.6685 464.004 53.9445 463.87 52.1804C463.743 50.5167 463.707 48.8474 463.762 47.1798C463.938 42.0671 465.209 37.0483 468.297 32.9057C471.245 29.0101 475.413 26.2145 480.135 24.9656C486.312 23.3356 492.872 24.0408 498.561 26.9462C499.317 27.334 500.047 27.7712 500.745 28.255C500.99 28.3957 501.281 28.4344 501.554 28.3628C501.827 28.2911 502.061 28.115 502.205 27.8722C502.342 27.6264 502.378 27.3372 502.307 27.0652C502.235 26.7932 502.061 26.5594 501.821 26.4127Z" fill="#211715"/>
<path d="M508.743 85.1046C511.002 84.2479 513.049 82.8817 513.891 80.5197C514.571 78.6142 514.377 76.2517 514.076 74.3134C513.785 72.435 513.124 70.6434 512.673 68.8006C512.227 66.9702 511.892 65.1143 511.671 63.2434C511.303 59.9812 511.158 56.6976 511.237 53.4156L510.454 54.4448H510.456C510.676 54.3747 510.87 54.2383 511.01 54.0542C511.15 53.87 511.23 53.6472 511.239 53.416C511.579 50.2981 511.614 47.1544 511.344 44.0297C511.057 40.3615 510.032 36.7892 508.329 33.5274C507.46 31.7776 506.305 30.1849 504.913 28.8149C503.908 27.8813 502.395 29.3862 503.404 30.3238C505.763 32.5191 507.253 35.7303 508.18 38.765C509.083 41.7223 509.305 44.6983 509.336 47.7703C509.38 49.6553 509.304 51.5413 509.106 53.4165L509.889 52.3877C509.667 52.4552 509.472 52.5908 509.331 52.7755C509.191 52.9602 509.112 53.1844 509.106 53.4165C508.948 58.4061 509.371 63.3973 510.368 68.2889C510.672 69.6831 511.08 71.0417 511.468 72.4128C511.88 73.8027 512.116 75.239 512.169 76.6878C512.182 77.1715 512.176 77.6561 512.156 78.1398C512.151 78.2701 512.145 78.3999 512.135 78.5302C512.129 78.612 512.121 78.6938 512.114 78.7756C512.088 79.0828 512.13 78.7311 512.097 78.9174C512.006 79.6776 511.712 80.3993 511.246 81.0069C510.424 81.9472 509.365 82.6508 508.179 83.0449C507.91 83.1267 507.683 83.3084 507.545 83.5525C507.406 83.7966 507.366 84.0846 507.433 84.3572C507.51 84.629 507.691 84.8594 507.937 84.9988C508.183 85.1383 508.473 85.1754 508.746 85.1024L508.743 85.1046Z" fill="#211715"/>
<path d="M475.458 78.7928C476.397 78.4247 477.414 78.0215 478.655 77.472C478.923 77.3495 479.173 77.1894 479.397 76.9967C482.688 77.8784 486.162 77.8089 489.415 76.7962C492.245 75.8695 494.825 74.3075 496.959 72.2299C497.611 71.6389 498.23 71.0119 498.813 70.3521C499.285 71.9566 499.898 73.5163 500.645 75.013C501.073 75.8777 504.424 78.4536 506.161 79.4228C498.815 82.6491 491.081 84.8204 482.202 83.9912C479.215 83.7125 475.222 82.4352 472.958 79.838C472.95 79.8291 472.942 79.8198 472.933 79.8109C472.955 79.8029 472.967 79.7975 472.967 79.7975C473.808 79.4352 474.601 79.1289 475.458 78.7928Z" fill="white"/>
<path d="M472.983 46.3782C474.256 45.2343 475.513 44.0753 476.729 42.9407C476.634 44.3238 476.487 45.6549 476.262 47.0442C476.248 47.1244 476.255 47.2068 476.283 47.2834C476.31 47.36 476.357 47.4282 476.418 47.4814C476.48 47.5346 476.554 47.571 476.634 47.587C476.714 47.603 476.797 47.5981 476.874 47.5728C482.063 45.8074 486.839 42.7771 489.94 38.948C490.699 41.0405 491.578 43.0874 492.574 45.0783C493.819 47.5319 496.953 51.7772 499.706 52.5063C500.427 52.7779 501.367 53.0469 502.088 53.3185C503.3 52.1337 505.386 52.1306 506.769 53.1113C507.441 53.6328 507.974 54.3104 508.325 55.0852C508.675 55.86 508.83 56.7085 508.778 57.5571C508.651 59.2596 508.023 60.8864 506.971 62.2314C505.622 64.0094 503.819 65.3915 501.751 66.2326C500.484 68.4745 498.866 70.4995 496.96 72.2308C494.827 74.308 492.247 75.8696 489.418 76.7962C486.164 77.8089 482.69 77.8784 479.399 76.9967C477.626 76.5342 475.936 75.8006 474.387 74.8218C472.604 73.6303 471.06 72.1155 469.834 70.3556C468.297 68.2638 467.12 65.93 466.351 63.4504C465.62 61.2039 465.138 58.884 464.913 56.5324C464.758 55.1986 464.696 54.069 464.671 53.2532C465.154 52.8975 465.77 52.4085 466.324 52.0186C468.494 50.3238 470.762 48.3739 472.983 46.3782Z" fill="white"/>
<path d="M529.405 129.484C527.528 116.937 526.244 109.132 523.083 97.672C521.959 93.8729 520.188 90.2965 517.846 87.1008C516.69 85.6208 515.34 84.3025 513.832 83.1814C511.73 81.6195 509.437 80.3333 507.008 79.3541C506.896 79.3068 506.775 79.2831 506.654 79.2842C506.532 79.2854 506.412 79.3114 506.301 79.3607C498.913 82.6217 491.138 84.8259 482.205 83.9914C479.218 83.7127 475.225 82.4354 472.961 79.8382C472.842 79.7014 472.683 79.6048 472.506 79.5615C472.33 79.5182 472.145 79.5304 471.975 79.5964C470.325 80.237 468.748 80.9007 467.132 81.6187C465.737 82.2628 464.435 83.0912 463.26 84.0817C461.533 85.5695 460.25 87.5047 459.552 89.6745C458.248 93.3934 457.245 97.211 456.551 101.09C455.675 105.896 454.906 110.089 453.733 114.814C453.733 114.814 453.68 115.087 453.596 115.526C455.927 115.599 457.873 115.659 459.269 115.704C459.884 115.722 460.473 115.953 460.937 116.357C461.401 116.761 461.711 117.314 461.814 117.92C462.494 121.903 463.186 125.937 463.903 130.106C463.936 130.295 463.968 130.48 464.001 130.669C466.669 126.624 468.374 122.555 470.363 118.658C471.164 120.282 472.091 121.849 472.848 123.493C473.309 124.515 473.688 125.572 473.984 126.654C474.041 126.858 474.11 127.059 474.187 127.257C474.682 128.541 474.612 130.727 475.592 133.043C476.953 132.162 478.359 131.353 479.804 130.617C481.613 129.697 483.64 128.879 485.619 129.306C488.144 129.853 489.368 130.968 491.875 131.582C493.708 132.033 494.704 131.582 496.288 131.573C498.511 135.851 499.47 142.962 499.514 144.173C501.753 144.141 512.184 143.976 515.56 143.632C518.224 143.361 520.956 143.301 523.453 142.334C524.135 142.07 524.789 141.738 525.406 141.345C527.094 140.339 528.352 138.746 528.94 136.872C529.485 134.449 529.642 131.956 529.405 129.484Z" fill="white"/>
<path d="M507.138 109.731C508.717 115.53 510.157 121.364 511.459 127.233C511.757 128.573 513.816 128.006 513.517 126.665C512.215 120.797 510.775 114.963 509.196 109.164C508.836 107.841 506.777 108.403 507.138 109.731Z" fill="#211715"/>
<path d="M499.24 128.311C504.995 128.826 510.844 128.2 516.595 127.883C517.961 127.807 517.97 125.673 516.595 125.749C510.846 126.066 504.995 126.692 499.24 126.177C498.958 126.179 498.688 126.292 498.488 126.492C498.288 126.691 498.175 126.961 498.173 127.244C498.179 127.525 498.293 127.793 498.492 127.992C498.691 128.191 498.959 128.305 499.24 128.311Z" fill="#211715"/>
<path d="M466.435 102.764C466.618 103.672 466.72 104.594 466.74 105.52C466.823 106.547 466.881 107.577 466.951 108.605C467.048 110.648 467.313 112.678 467.745 114.677C468.268 116.659 469.037 118.567 470.035 120.358C470.96 122.115 471.952 123.838 472.583 125.73C472.939 126.694 473.23 127.681 473.451 128.685C473.653 129.773 473.792 130.863 474.08 131.936C474.436 133.261 476.496 132.699 476.138 131.369C475.88 130.408 475.734 129.43 475.567 128.45C475.394 127.608 475.168 126.777 474.892 125.963C474.268 124.014 473.449 122.133 472.447 120.349C471.443 118.624 470.626 116.797 470.01 114.899C469.511 112.975 469.211 111.003 469.116 109.017C469.032 107.851 468.969 106.685 468.875 105.52C468.847 104.404 468.719 103.292 468.494 102.198C468.142 100.872 466.083 101.434 466.437 102.765L466.435 102.764Z" fill="#211715"/>
<path d="M469.347 118.3C467.565 121.819 465.968 125.431 463.919 128.808C463.204 129.985 465.049 131.058 465.761 129.885C467.812 126.506 469.407 122.896 471.19 119.377C471.808 118.155 469.968 117.073 469.347 118.3Z" fill="#211715"/>
<path d="M497.788 70.6348C498.174 71.9585 498.657 73.252 499.233 74.5049C499.402 74.9445 499.613 75.3667 499.863 75.7657C500.102 76.0909 500.372 76.392 500.669 76.6646C502.122 78.0312 503.724 79.2303 505.445 80.2395C506.631 80.9366 507.706 79.0929 506.522 78.3967C504.984 77.5001 503.55 76.4351 502.248 75.2215C502.01 75.0015 501.786 74.7675 501.576 74.5209C501.648 74.6054 501.685 74.6987 501.614 74.5551C501.579 74.4836 501.539 74.4133 501.504 74.3413C501.367 74.0634 501.237 73.7825 501.108 73.5001C500.602 72.3891 500.18 71.2417 499.846 70.0676C499.474 68.7476 497.414 69.3082 497.788 70.6348Z" fill="#211715"/>
<path d="M473.508 80.7197L473.68 80.6459C473.955 80.5281 473.565 80.6904 473.724 80.6272C473.837 80.5828 473.95 80.5334 474.064 80.4868C474.317 80.3836 474.571 80.2818 474.825 80.1813C475.337 79.9791 475.851 79.7812 476.363 79.5767C476.976 79.334 477.586 79.084 478.193 78.8267C478.896 78.5752 479.553 78.2108 480.138 77.7477C480.337 77.5469 480.449 77.2758 480.449 76.9933C480.449 76.7107 480.337 76.4396 480.138 76.2388C479.935 76.0449 479.665 75.9368 479.384 75.9368C479.103 75.9368 478.833 76.0449 478.63 76.2388C478.598 76.2664 478.501 76.3451 478.591 76.278C478.533 76.3224 478.471 76.3611 478.409 76.3989C478.259 76.4855 478.103 76.5622 477.943 76.6283C477.793 76.6936 477.644 76.759 477.494 76.8234L477.222 76.939C477.322 76.8968 477.189 76.9528 477.161 76.9644C476.618 77.1911 476.071 77.4121 475.522 77.6272C474.488 78.0349 473.452 78.4373 472.43 78.8769C472.187 79.0203 472.009 79.2544 471.938 79.528C471.866 79.8015 471.905 80.0924 472.048 80.3369C472.196 80.5748 472.43 80.7468 472.702 80.818C472.973 80.8891 473.261 80.854 473.508 80.7197Z" fill="#211715"/>
<path d="M502.844 54.0732C503.772 53.212 505.31 53.3116 506.276 54.0652C507.431 54.9685 507.85 56.5712 507.683 57.9774C507.272 61.4331 504.231 63.9939 501.236 65.301C500.993 65.4452 500.817 65.6792 500.745 65.9524C500.674 66.2257 500.713 66.5161 500.853 66.761C501.001 66.9999 501.235 67.1728 501.507 67.2441C501.779 67.3153 502.067 67.2794 502.313 67.1437C505.462 65.7695 508.162 63.3133 509.359 60.0381C510.489 56.946 509.568 52.9115 506.241 51.6458C505.418 51.3308 504.523 51.2499 503.657 51.412C502.79 51.5741 501.986 51.9729 501.332 52.5643C500.324 53.5001 501.835 55.0063 502.841 54.0732H502.844Z" fill="#211715"/>
<path d="M463.604 53.3294C463.696 57.3294 464.432 61.2883 465.785 65.0537C467.171 68.75 469.439 72.3657 472.577 74.8251C478.742 79.6554 487.795 79.8933 494.327 75.6605C497.775 73.3923 500.638 70.3406 502.682 66.7547C503.364 65.5606 501.522 64.4842 500.839 65.6775C499.187 68.5667 496.962 71.0877 494.3 73.0855C491.544 75.1776 488.215 76.3786 484.758 76.5278C481.301 76.677 477.881 75.7673 474.956 73.9204C471.888 71.9371 469.599 68.6917 468.189 65.3641C466.648 61.5348 465.817 57.4566 465.738 53.3294C465.689 51.9601 463.554 51.9538 463.604 53.3294Z" fill="#211715"/>
<path d="M488.953 39.3521C489.939 42.0827 491.057 44.9294 492.688 47.3483C494.206 49.5992 496.188 52.0702 498.706 53.2425C498.952 53.3775 499.241 53.4131 499.512 53.3419C499.784 53.2707 500.018 53.0981 500.166 52.8597C500.307 52.6149 500.345 52.3246 500.273 52.0516C500.202 51.7786 500.026 51.5446 499.783 51.4002C497.542 50.3563 495.785 48.1628 494.448 46.1466C492.96 43.9059 491.921 41.3038 491.012 38.7849C490.931 38.5159 490.749 38.2885 490.505 38.1497C490.26 38.0109 489.972 37.9714 489.699 38.0393C489.428 38.1167 489.198 38.2977 489.058 38.5433C488.919 38.7888 488.882 39.0793 488.954 39.3521H488.953Z" fill="#211715"/>
<path d="M489.179 38.1986C487.578 40.1348 485.686 41.8106 483.57 43.1659C482.478 43.8731 481.342 44.5116 480.17 45.0776C479.576 45.3656 478.973 45.6382 478.36 45.8858C477.747 46.1772 477.107 46.406 476.448 46.5687H477.014C477.208 47.1653 477.317 47.3087 477.342 46.999C477.353 46.9266 477.364 46.8541 477.374 46.7816C477.401 46.6011 477.427 46.4206 477.452 46.2401C477.504 45.8596 477.554 45.4786 477.598 45.0967C477.681 44.3791 477.744 43.6603 477.795 42.94C477.863 41.9709 476.606 41.5947 475.972 42.1843C473.971 44.0515 471.954 45.8969 469.887 47.6881C468.061 49.3682 466.12 50.9198 464.08 52.3317C462.931 53.076 463.999 54.9241 465.157 54.1745C467.292 52.703 469.325 51.0869 471.239 49.3375C473.362 47.5032 475.433 45.6102 477.483 43.6967L475.66 42.9409C475.581 44.0724 475.47 45.2016 475.3 46.3237C475.148 46.8298 475.175 47.3726 475.377 47.8611C475.511 48.1025 475.707 48.3041 475.945 48.4453C476.183 48.5866 476.453 48.6624 476.73 48.6653C477.187 48.6142 477.632 48.4858 478.046 48.2856C478.518 48.11 478.985 47.9229 479.449 47.7281C480.343 47.3529 481.223 46.9483 482.083 46.5007C485.379 44.8393 488.306 42.5287 490.687 39.7075C490.88 39.5036 490.987 39.2337 490.987 38.9531C490.987 38.6725 490.88 38.4025 490.687 38.1986C490.486 38.0005 490.215 37.8894 489.932 37.8894C489.65 37.8894 489.379 38.0005 489.178 38.1986H489.179Z" fill="#211715"/>
<path d="M471.082 142.534C471.082 142.482 471.082 142.432 471.082 142.382C471.095 141.872 471.289 141.383 471.629 141.004L472.022 140.504L471.51 140.612C471.137 140.702 470.746 140.678 470.386 140.544C470.027 140.41 469.715 140.172 469.492 139.861C469.118 139.309 469.354 138.38 469.518 138.047C469.787 137.597 470.121 137.189 470.51 136.837C470.959 136.393 472.906 134.904 473.413 134.535C475.435 133.06 477.571 131.748 479.801 130.613C481.611 129.693 483.638 128.875 485.616 129.302C488.142 129.849 489.366 130.964 491.873 131.578C493.639 132.012 494.629 131.611 496.115 131.572C497.572 134.38 498.486 138.408 498.956 141.187L498.647 141.279C498.013 141.546 496.409 142.54 494.563 143.305C493.739 143.644 492.856 143.817 491.965 143.813C491.074 143.809 490.193 143.629 489.372 143.283C487.923 144.893 486.339 146.376 484.637 147.716C484.321 147.97 483.271 148.741 482.415 148.015C481.852 147.538 481.984 146.447 482.261 146.022C483.597 143.974 484.165 142.456 485.643 140.567C483.193 142.09 480.836 143.872 478.396 145.418C477.602 145.92 476.941 146.357 476.015 146.194C475.6 146.128 475.224 145.91 474.959 145.583C474.695 145.256 474.562 144.842 474.584 144.422C474.633 143.974 474.797 143.545 475.059 143.178L474.324 143.519C473.875 143.749 473.394 143.909 472.897 143.992C472.642 144.03 472.382 144.012 472.135 143.939C471.888 143.866 471.659 143.74 471.466 143.57C471.229 143.276 471.094 142.912 471.082 142.534Z" fill="white"/>
<path d="M471.226 139.587C470.998 139.619 470.765 139.577 470.563 139.465C470.267 139.262 470.348 138.927 470.438 138.62C470.504 138.398 470.464 138.536 470.438 138.588C470.485 138.492 470.539 138.4 470.601 138.312C470.739 138.131 470.891 137.96 471.056 137.802C471.275 137.579 471.506 137.369 471.748 137.171C473.09 136.06 474.494 135.026 475.954 134.075C477.968 132.76 480.154 131.373 482.455 130.626C483.564 130.227 484.767 130.174 485.906 130.473C486.9 130.776 487.869 131.155 488.805 131.606C489.98 132.173 491.23 132.567 492.517 132.777C493.72 132.935 494.878 132.691 496.077 132.644C497.446 132.589 497.453 130.455 496.077 130.51C494.941 130.554 493.796 130.837 492.659 130.657C491.437 130.406 490.254 129.994 489.141 129.43C487.994 128.86 486.774 128.449 485.515 128.209C484.094 128.03 482.651 128.223 481.326 128.768C478.622 129.875 476.061 131.305 473.699 133.027C472.216 133.984 470.826 135.078 469.547 136.294C468.624 137.243 467.907 138.524 468.337 139.891C468.796 141.355 470.411 141.892 471.792 141.644C472.064 141.567 472.294 141.386 472.434 141.141C472.573 140.895 472.61 140.605 472.538 140.332C472.457 140.062 472.276 139.834 472.031 139.695C471.787 139.557 471.498 139.518 471.225 139.587H471.226Z" fill="#211715"/>
<path d="M478.815 134.123C476.844 135.335 474.953 136.673 473.155 138.129C471.599 139.364 469.455 141.011 470.138 143.298C470.26 143.731 470.502 144.12 470.835 144.422C471.168 144.724 471.58 144.926 472.022 145.005C473.037 145.195 473.951 144.858 474.862 144.441C475.105 144.296 475.281 144.062 475.352 143.789C475.424 143.516 475.385 143.226 475.245 142.981C475.098 142.741 474.864 142.568 474.592 142.496C474.32 142.425 474.031 142.461 473.785 142.598C473.528 142.72 473.26 142.818 472.985 142.891C472.818 142.945 472.64 142.956 472.468 142.922C472.42 142.912 472.197 142.821 472.27 142.858C472.33 142.888 472.232 142.813 472.212 142.776C472.142 142.611 472.123 142.428 472.158 142.251C472.145 142.348 472.199 142.101 472.212 142.065C472.186 142.137 472.306 141.887 472.345 141.831C472.404 141.739 472.528 141.473 472.635 141.415C472.572 141.449 472.46 141.619 472.591 141.481C472.635 141.432 472.68 141.381 472.724 141.332C472.826 141.223 472.934 141.119 473.042 141.016C474.395 139.783 475.839 138.653 477.363 137.638C478.19 137.057 479.027 136.488 479.893 135.967C481.069 135.261 479.997 133.415 478.816 134.125L478.815 134.123Z" fill="#211715"/>
<path d="M482.304 136.328C480.692 137.342 479.141 138.444 477.59 139.547C476.175 140.553 474.639 141.491 473.872 143.123C473.143 144.673 473.696 146.519 475.383 147.127C477.196 147.78 478.873 146.403 480.287 145.457C482.142 144.216 483.95 142.907 485.833 141.709C486.989 140.974 485.92 139.127 484.756 139.867C482.987 140.991 481.284 142.215 479.547 143.388C478.731 144.015 477.859 144.566 476.942 145.033C476.535 145.207 475.938 145.232 475.727 144.836C475.489 144.392 475.822 143.896 476.169 143.432C476.792 142.72 477.523 142.109 478.336 141.622C479.998 140.443 481.654 139.255 483.38 138.169C484.54 137.439 483.469 135.59 482.303 136.327L482.304 136.328Z" fill="#211715"/>
<path d="M484.407 140.45C483.664 141.522 482.983 142.636 482.367 143.786C481.76 144.856 480.863 145.872 480.967 147.179C480.98 147.542 481.078 147.897 481.253 148.215C481.427 148.533 481.674 148.806 481.973 149.013C482.28 149.207 482.627 149.329 482.989 149.369C483.35 149.41 483.715 149.369 484.058 149.248C484.587 149.049 485.076 148.757 485.5 148.384C486.052 147.94 486.594 147.483 487.127 147.015C488.259 146.016 489.328 144.947 490.328 143.814C490.522 143.611 490.63 143.341 490.63 143.06C490.63 142.779 490.522 142.508 490.328 142.305C490.126 142.107 489.855 141.997 489.573 141.997C489.291 141.997 489.02 142.107 488.819 142.305C488.058 143.168 487.257 143.994 486.418 144.782C485.981 145.189 485.536 145.587 485.081 145.974C484.862 146.162 484.641 146.347 484.418 146.53C484.295 146.631 484.171 146.732 484.047 146.832C483.998 146.881 483.943 146.924 483.885 146.963C483.953 146.928 484.097 146.813 483.943 146.918C483.798 147.017 483.649 147.107 483.495 147.19C483.337 147.275 483.584 147.188 483.402 147.221C483.338 147.233 483.278 147.257 483.214 147.266C483.363 147.241 483.253 147.285 483.206 147.253C483.216 147.26 483.44 147.339 483.191 147.25C483.186 147.25 483.04 147.183 483.121 147.226C483.242 147.29 483.053 147.101 483.172 147.291C483.106 147.186 483.114 147.09 483.133 147.239C483.119 147.198 483.108 147.156 483.1 147.113C483.083 147.034 483.085 147.056 483.103 147.179L483.096 147.09C483.096 147.001 483.096 146.912 483.1 146.823C483.103 146.621 483.106 146.809 483.095 146.851C483.105 146.811 483.11 146.77 483.122 146.731C483.134 146.691 483.146 146.654 483.154 146.616C483.192 146.438 483.148 146.634 483.125 146.67C483.197 146.554 483.267 146.437 483.341 146.321C483.656 145.826 483.953 145.32 484.242 144.81C484.848 143.678 485.519 142.581 486.252 141.527C486.393 141.282 486.432 140.991 486.36 140.718C486.288 140.445 486.112 140.211 485.869 140.067C485.623 139.93 485.334 139.894 485.062 139.965C484.79 140.036 484.557 140.21 484.409 140.45H484.407Z" fill="#211715"/>
<path d="M489.718 144.545C491.576 145.08 493.564 144.934 495.324 144.133C496.65 143.563 497.867 142.773 499.186 142.201C499.429 142.057 499.605 141.823 499.677 141.55C499.749 141.277 499.71 140.986 499.569 140.742C499.421 140.502 499.187 140.329 498.915 140.258C498.644 140.187 498.355 140.223 498.109 140.358C496.937 140.867 495.851 141.568 494.686 142.097C493.319 142.771 491.749 142.91 490.284 142.487C488.965 142.094 488.402 144.154 489.717 144.545H489.718Z" fill="#211715"/>
<path d="M454.759 115.098C455.575 111.8 456.259 108.474 456.885 105.137C457.51 101.806 458.082 98.4729 458.958 95.1959C459.393 93.5658 459.887 91.9524 460.439 90.3558C460.882 89.0013 461.527 87.7212 462.351 86.5587C464.191 84.0557 467.141 82.7264 469.918 81.5669C470.63 81.2704 471.353 81.005 472.059 80.7022C472.208 80.6382 472.375 80.6302 472.179 80.5653C472.242 80.5862 472.372 80.7791 472.418 80.8285C472.675 81.1008 472.949 81.357 473.237 81.5958C474.281 82.4543 475.446 83.1543 476.694 83.6733C479.303 84.7821 482.053 85.1404 484.87 85.22C491.124 85.3939 497.299 84.0535 503.118 81.8226C503.76 81.5763 504.398 81.3206 505.033 81.0557C505.407 80.9001 505.78 80.7422 506.152 80.5822C506.61 80.3844 506.577 80.319 507.017 80.5128C508.471 81.1403 509.88 81.8654 511.236 82.6833C513.786 84.2108 515.986 86.2585 517.693 88.6931C519.345 91.1251 520.665 93.7668 521.617 96.5483C522.578 99.3491 523.229 102.288 523.916 105.166C525.244 110.727 526.281 116.348 527.184 121.992C527.431 123.541 527.672 125.09 527.906 126.64C528.165 128.003 528.345 129.38 528.445 130.763C528.484 132.032 528.429 133.303 528.282 134.565C528.212 135.646 527.94 136.705 527.477 137.685C526.197 140.077 523.619 141.371 521.061 141.917C519.44 142.209 517.804 142.406 516.16 142.505C515.317 142.582 514.477 142.656 513.632 142.704C509.525 142.937 505.407 143.004 501.293 143.075C500.7 143.085 500.107 143.095 499.514 143.104L500.581 144.171C500.475 142.622 500.252 141.084 499.915 139.569C499.494 137.232 498.846 134.942 497.98 132.731C497.533 131.547 496.93 130.429 496.185 129.406C496.036 129.168 495.803 128.997 495.531 128.925C495.26 128.854 494.972 128.889 494.726 129.023C494.483 129.167 494.306 129.401 494.235 129.674C494.163 129.948 494.202 130.238 494.343 130.483C496.045 132.689 496.817 135.561 497.448 138.235C497.749 139.513 498.001 140.801 498.204 142.1C498.244 142.359 498.282 142.618 498.318 142.878C498.28 142.604 498.33 142.971 498.336 143.021C498.349 143.123 498.361 143.224 498.373 143.326C498.405 143.606 498.436 143.888 498.447 144.171C498.452 144.452 498.566 144.721 498.765 144.92C498.964 145.119 499.233 145.233 499.514 145.238C503.41 145.18 507.307 145.104 511.201 144.952C513.264 144.871 515.31 144.712 517.366 144.533C520.54 144.256 523.806 143.844 526.455 141.915C527.636 141.093 528.615 140.016 529.322 138.762C529.895 137.592 530.248 136.326 530.361 135.028C530.536 133.711 530.612 132.384 530.589 131.056C530.508 129.589 530.33 128.128 530.059 126.684C529.149 120.678 528.191 114.677 526.914 108.737C526.277 105.77 525.568 102.819 524.789 99.8857C524.05 96.8865 522.993 93.975 521.635 91.2009C520.299 88.4282 518.473 85.9199 516.245 83.7969C513.774 81.6129 510.958 79.8536 507.912 78.5905C507.542 78.3469 507.109 78.217 506.665 78.217C506.222 78.217 505.789 78.3469 505.419 78.5905C504.701 78.9035 503.978 79.2043 503.249 79.493C501.796 80.0683 500.324 80.5951 498.832 81.0574C495.837 82.0071 492.751 82.6379 489.623 82.9393C486.617 83.2083 483.408 83.2919 480.443 82.6401C479.152 82.3693 477.901 81.9344 476.721 81.346C476.133 81.051 475.571 80.7076 475.041 80.3194C474.505 79.9193 474.094 79.4138 473.6 78.9755C472.914 78.3664 472.097 78.4064 471.295 78.7221C470.429 79.0622 469.569 79.4165 468.711 79.7788C467.149 80.3753 465.651 81.1268 464.238 82.0222C462.904 82.8847 461.717 83.9565 460.723 85.1965C459.81 86.4232 459.088 87.7808 458.581 89.2234C456.161 95.8156 455.276 102.77 453.831 109.605C453.482 111.254 453.106 112.896 452.701 114.531C452.371 115.865 454.429 116.432 454.759 115.098Z" fill="#211715"/>
<path d="M506.698 57.6577C507.261 58.6251 507.507 59.7443 507.403 60.8587C507.388 61.8903 507.053 62.8917 506.443 63.724C506.095 64.1454 505.627 64.4516 505.101 64.6023C504.575 64.7531 504.016 64.7413 503.497 64.5687C502.98 64.3456 502.532 63.9877 502.2 63.5324C501.715 62.9037 501.383 62.171 501.23 61.3922C501.077 60.6134 501.107 59.8096 501.318 59.0444C501.429 58.532 501.649 58.0497 501.963 57.6304C502.278 57.2112 502.68 56.865 503.141 56.6157C504.151 56.1177 506.027 56.32 506.7 57.6564" fill="white"/>
<path d="M505.778 58.1964C506.117 58.8212 506.316 59.5121 506.362 60.2213C506.408 60.9306 506.3 61.6414 506.045 62.3047C505.879 62.8148 505.523 63.2415 505.052 63.4966C504.863 63.598 504.977 63.5269 505.022 63.5109C504.958 63.5335 504.894 63.5553 504.829 63.5727C504.75 63.5949 504.669 63.6096 504.589 63.6287C504.753 63.6193 504.425 63.6683 504.589 63.6287C504.454 63.6395 504.318 63.6423 504.182 63.6371C504.125 63.634 504.068 63.6291 504.012 63.6229C504.141 63.6371 504.152 63.6518 504.022 63.6127C503.964 63.5953 503.905 63.5807 503.847 63.5629C503.899 63.5789 504.037 63.6669 503.811 63.5442C503.74 63.5055 503.669 63.466 503.6 63.422C503.422 63.3081 503.485 63.3424 503.525 63.3739C503.276 63.1747 503.061 62.9366 502.889 62.6688C502.514 62.1122 502.284 61.4701 502.222 60.8016C502.16 60.1377 502.255 59.4685 502.501 58.8486C502.566 58.6748 502.447 58.9593 502.526 58.7899C502.566 58.7031 502.609 58.6182 502.654 58.5352C502.727 58.4004 502.81 58.2709 502.9 58.1475C502.87 58.1879 502.811 58.2497 502.951 58.0928C503.003 58.0355 503.056 57.9786 503.112 57.9248C503.212 57.8166 503.331 57.7264 503.461 57.658C503.536 57.6225 503.608 57.5831 503.678 57.5398C503.521 57.6602 503.607 57.5651 503.719 57.5295C503.855 57.4865 503.994 57.4544 504.134 57.4335C504.086 57.4411 503.921 57.4415 504.118 57.4433C504.209 57.4433 504.301 57.4357 504.393 57.4379C504.455 57.4379 504.517 57.4451 504.579 57.4473C504.856 57.4562 504.399 57.3908 504.668 57.4602C504.823 57.5002 504.974 57.5358 505.125 57.5878C504.932 57.5215 505.287 57.6767 505.342 57.7069C505.386 57.7314 505.551 57.8572 505.397 57.7327C505.459 57.7829 505.514 57.8403 505.573 57.895C505.61 57.9301 505.731 58.095 505.622 57.9394C505.679 58.0222 505.731 58.1083 505.777 58.1973C505.848 58.3183 505.942 58.4241 506.053 58.5087C506.165 58.5933 506.293 58.6551 506.428 58.6905C506.564 58.7259 506.705 58.7342 506.844 58.715C506.983 58.6958 507.117 58.6494 507.238 58.5785C507.359 58.5076 507.465 58.4136 507.549 58.3018C507.634 58.19 507.696 58.0626 507.731 57.9269C507.766 57.7912 507.775 57.6499 507.756 57.511C507.736 57.3721 507.69 57.2384 507.619 57.1174C506.799 55.5827 504.768 54.9496 503.15 55.468C501.176 56.1007 500.197 58.1626 500.083 60.105C499.967 62.0651 500.906 64.4471 502.732 65.387C503.575 65.7883 504.536 65.8645 505.432 65.6011C506.327 65.3377 507.094 64.7532 507.586 63.9594C508.17 62.9581 508.479 61.82 508.481 60.6607C508.54 59.4213 508.241 58.1913 507.619 57.1174C506.925 55.9331 505.08 57.0058 505.777 58.1946L505.778 58.1964Z" fill="#211715"/>
<path d="M403.058 116.097C405.2 128.639 407.462 141.713 410.346 158.267C410.414 158.666 410.613 159.031 410.91 159.305C411.208 159.58 411.587 159.749 411.991 159.786C421.94 160.672 455.587 162.129 467.287 162.507C467.559 162.516 467.831 162.464 468.081 162.354C468.331 162.245 468.554 162.081 468.733 161.875C468.912 161.669 469.042 161.425 469.115 161.162C469.188 160.899 469.201 160.623 469.154 160.354C466.274 143.868 463.986 130.634 461.814 117.917C461.711 117.311 461.402 116.759 460.938 116.355C460.474 115.951 459.884 115.72 459.269 115.701C449.673 115.41 414.211 114.257 404.922 113.958C404.651 113.949 404.38 114 404.131 114.109C403.882 114.217 403.66 114.38 403.482 114.585C403.303 114.789 403.173 115.032 403.099 115.293C403.026 115.555 403.012 115.83 403.058 116.097Z" fill="white"/>
<path d="M402.029 116.38C403.49 124.929 404.962 133.477 406.444 142.024C407.299 146.954 408.155 151.883 409.014 156.812C409.218 157.982 409.27 159.257 410.214 160.107C410.883 160.71 411.681 160.827 412.538 160.899C413.526 160.982 414.513 161.054 415.502 161.121C421.504 161.539 427.518 161.841 433.529 162.138C440.492 162.482 447.456 162.796 454.421 163.082C457.318 163.201 460.216 163.315 463.114 163.425C464.265 163.467 465.417 163.508 466.568 163.547C467.328 163.643 468.1 163.518 468.791 163.187C469.234 162.927 469.602 162.557 469.857 162.111C470.113 161.665 470.247 161.161 470.246 160.647C470.198 160.012 470.099 159.381 469.952 158.761L469.596 156.721C469.37 155.427 469.145 154.133 468.919 152.838C468.499 150.427 468.08 148.015 467.661 145.603C466.873 141.065 466.087 136.526 465.305 131.986C464.572 127.737 463.843 123.488 463.116 119.238C462.948 118.257 462.88 117.21 462.329 116.353C462.052 115.921 461.689 115.551 461.263 115.265C460.837 114.98 460.356 114.786 459.851 114.695C458.869 114.585 457.88 114.539 456.892 114.558C451.368 114.386 445.844 114.211 440.321 114.032C433.614 113.816 426.908 113.599 420.201 113.382C415.259 113.222 410.317 113.062 405.376 112.903C404.638 112.822 403.895 112.987 403.261 113.372C402.821 113.666 402.47 114.076 402.247 114.556C402.023 115.036 401.935 115.568 401.992 116.094C402.001 116.375 402.116 116.641 402.314 116.839C402.512 117.037 402.779 117.153 403.059 117.161C403.341 117.16 403.612 117.047 403.811 116.847C404.011 116.647 404.124 116.377 404.126 116.094C404.04 115.427 404.353 115.011 405.038 115.027C405.419 115.035 405.8 115.052 406.181 115.064L409.076 115.158L416.737 115.406C423.103 115.612 429.47 115.818 435.838 116.023C441.747 116.213 447.656 116.402 453.566 116.59L456.77 116.69C457.618 116.716 458.499 116.676 459.343 116.771C459.658 116.804 459.956 116.93 460.201 117.131C460.445 117.333 460.624 117.603 460.716 117.906C460.957 118.895 461.134 119.898 461.246 120.91C461.589 122.913 461.933 124.916 462.277 126.919C463.806 135.82 465.346 144.718 466.898 153.614C467.111 154.839 467.325 156.064 467.539 157.29C467.645 157.898 467.751 158.505 467.857 159.113C467.946 159.618 468.198 160.282 468.109 160.793C468.007 161.382 467.479 161.444 466.974 161.427C466.478 161.411 465.982 161.394 465.486 161.377C462.928 161.288 460.371 161.191 457.814 161.087C451.218 160.823 444.624 160.535 438.03 160.222C431.73 159.924 425.429 159.611 419.133 159.224C416.957 159.091 414.781 158.951 412.609 158.769C412.164 158.732 411.681 158.746 411.453 158.278C411.273 157.725 411.164 157.15 411.128 156.57L410.791 154.64C410.366 152.199 409.942 149.759 409.518 147.319C408.029 138.74 406.547 130.16 405.072 121.578C404.743 119.656 404.414 117.734 404.085 115.812C404.008 115.54 403.827 115.31 403.582 115.171C403.336 115.031 403.046 114.994 402.773 115.066C402.504 115.148 402.276 115.329 402.138 115.574C401.999 115.819 401.96 116.107 402.029 116.38Z" fill="#211715"/>
<path d="M492.968 146.712C485.957 151.014 478.842 155.154 471.699 159.232C470.565 159.879 469.432 160.532 468.283 161.149C467.073 161.799 468.15 163.643 469.36 162.992C471.939 161.606 474.464 160.112 476.998 158.645C480.835 156.422 484.66 154.178 488.472 151.913C490.336 150.804 492.194 149.685 494.045 148.555C495.214 147.838 494.143 145.992 492.968 146.712Z" fill="#211715"/>
<path d="M480.054 60.6951C479.906 61.0607 479.778 61.4343 479.672 61.8141C479.485 62.4472 479.261 63.243 479.791 63.7787C479.908 63.8907 480.04 63.986 480.182 64.0619C480.327 64.1413 480.482 64.2011 480.643 64.2398C480.86 64.2772 481.08 64.2921 481.3 64.2842C481.583 64.2842 481.855 64.1718 482.055 63.9717C482.255 63.7716 482.367 63.5002 482.367 63.2172C482.367 62.9343 482.255 62.6629 482.056 62.4615C481.853 62.2662 481.583 62.1551 481.3 62.1502C481.185 62.1568 481.069 62.1561 480.953 62.148L481.237 62.1863C481.179 62.1761 481.121 62.16 481.066 62.1382L481.321 62.2458C481.24 62.2093 481.163 62.1633 481.092 62.1089L481.308 62.2756C481.305 62.2733 481.303 62.2706 481.3 62.2676L481.467 62.4837C481.463 62.4784 481.46 62.4727 481.458 62.4668L481.565 62.7215C481.561 62.7085 481.557 62.6949 481.556 62.6811L481.594 62.9647C481.589 62.9088 481.592 62.8525 481.601 62.7971L481.562 63.0807C481.62 62.7403 481.707 62.4055 481.822 62.08C481.91 61.8048 481.999 61.527 482.112 61.2602C482.15 61.1229 482.16 60.9795 482.141 60.8383C482.123 60.6971 482.076 60.5611 482.004 60.4382C481.934 60.3172 481.84 60.2112 481.728 60.1265C481.616 60.0418 481.489 59.9799 481.354 59.9443C481.218 59.9088 481.077 59.9003 480.938 59.9193C480.799 59.9384 480.665 59.9846 480.544 60.0554L480.328 60.2221C480.198 60.3528 480.103 60.5149 480.054 60.6929V60.6951Z" fill="#211715"/>
<path d="M472.066 56.0109C471.764 56.9583 471.899 59.1536 473.625 59.3733C475.913 59.4035 476.093 56.756 475.35 55.4952C474.743 54.4629 472.898 54.0028 472.066 56.0109Z" fill="#211715"/>
<path d="M491.697 56.0913C491.983 57.0925 491.736 59.3776 489.847 59.5337C487.355 59.467 487.28 56.6964 488.145 55.4125C488.854 54.361 490.885 53.9609 491.697 56.0913Z" fill="#211715"/>
<path d="M484.312 72.2692C485.03 71.6142 485.633 70.8434 486.096 69.9889C486.618 69.0109 487.302 67.4251 486.051 66.684C485.435 66.3181 484.584 66.5008 483.904 66.5608C483.178 66.6248 482.452 66.7009 481.726 66.7831C480.913 66.8765 480.101 66.9769 479.292 67.0987C479.019 67.1746 478.788 67.3552 478.648 67.6011C478.508 67.847 478.472 68.1383 478.546 68.4111C478.629 68.6793 478.81 68.9058 479.054 69.0443C479.299 69.1828 479.586 69.2229 479.859 69.1562C480.007 69.134 480.155 69.1127 480.303 69.0922C480.615 69.0478 480.175 69.1082 480.379 69.082L480.607 69.0522C480.994 69.003 481.382 68.9563 481.77 68.9122C482.557 68.8233 483.347 68.7406 484.137 68.6743C484.45 68.6481 484.764 68.6236 485.079 68.6076C485.133 68.6115 485.188 68.6088 485.241 68.5996C485.094 68.5941 484.954 68.5342 484.848 68.4316C484.775 68.3577 484.72 68.2686 484.686 68.1706C484.652 68.0726 484.64 67.9683 484.651 67.8652C484.611 67.969 484.581 68.0765 484.562 68.1862C484.54 68.2573 484.516 68.3277 484.49 68.3974C484.442 68.5174 484.436 68.5365 484.472 68.4552C484.259 68.9397 483.994 69.3997 483.682 69.8271C483.616 69.92 483.551 70.0138 483.482 70.1036C483.587 69.9703 483.387 70.2063 483.362 70.2321C483.184 70.4175 482.988 70.5847 482.8 70.7598C482.602 70.9611 482.491 71.2321 482.491 71.5143C482.491 71.7965 482.602 72.0675 482.8 72.2687C483.003 72.4635 483.273 72.5722 483.554 72.5722C483.836 72.5722 484.106 72.4635 484.309 72.2687L484.312 72.2692Z" fill="#211715"/>
<path d="M532.081 142.134C536.349 142.134 540.617 142.113 544.882 142.103C545.578 142.103 546.273 142.099 546.971 142.099C548.344 142.099 548.347 139.965 546.971 139.965C542.644 139.965 538.317 139.985 533.99 139.996C533.354 139.996 532.718 140 532.082 140C530.71 140 530.707 142.134 532.082 142.134H532.081Z" fill="#211715"/>
</g>
<g filter="url(#filter1_d_40_387)">
<rect x="4" width="154" height="182" rx="29" fill="#DEE2E6"/>
</g>
<path d="M40.3269 162.16C37.1958 161.22 30.5367 158.82 28.079 157.407C24.4059 155.293 21.5345 151.5 21.2833 147.27C21.1208 144.543 21.7999 139.553 22.4658 136.903C23.9593 130.969 28.3683 117.409 30.1168 112.914C33.2536 104.848 34.7071 100.338 37.8659 97.8535C42.0768 94.5397 53.3459 90.42 60.5183 87.526C61.7729 86.3245 63.1434 85.2501 64.6098 84.3188C66.8928 94.0935 70.942 104.643 74.153 114.151C76.5951 121.378 78.4953 126.177 81.3705 133.306C83.5271 126.922 85.6834 120.537 87.8394 114.151C91.0503 104.643 95.1001 94.0935 97.3811 84.3179C98.8488 85.25 100.22 86.3256 101.475 87.5288C108.649 90.4223 119.913 94.5406 124.123 97.8535C127.28 100.338 128.734 104.848 131.872 112.914C133.62 117.409 138.029 130.969 139.523 136.903C140.189 139.553 140.868 144.543 140.705 147.27C140.454 151.497 137.583 155.295 133.91 157.407C131.452 158.82 124.793 161.22 121.662 162.16H40.3269Z" fill="#BDBDBD"/>
<path d="M105.168 49.1294C105.56 48.7893 106.02 48.5377 106.517 48.3918C107.015 48.2459 107.538 48.2091 108.051 48.284C108.554 48.3552 109.036 48.5384 109.459 48.8201C109.883 49.1018 110.238 49.4748 110.498 49.9118C110.8 50.5144 110.971 51.1736 111.001 51.8467C111.221 54.4805 110.712 57.1239 109.53 59.4878C108.974 60.6825 108.166 61.743 107.162 62.5969C106.346 63.2581 105.373 63.6966 104.338 63.8696L103.854 63.9448C103.622 64.8117 103.362 65.5416 103.234 65.9304C102.42 68.142 97.8941 75.746 92.1766 78.6258C92.1355 80.0549 92.3488 81.4799 92.8064 82.8343C93.9669 85.7085 100.237 89.3248 100.669 89.5136C100.669 89.5136 101.329 100.044 81.0123 100.044C60.6959 100.044 61.321 89.5136 61.321 89.5136C61.7531 89.3257 67.038 86.212 68.2027 83.3378C68.8217 81.8114 68.8457 79.8389 68.8349 78.035C66.7101 76.7244 64.8208 75.0658 63.2461 73.1287C61.0641 70.4526 59.4723 67.3457 58.575 64.0115L57.6545 63.8706C56.6188 63.6976 55.6457 63.2591 54.8301 62.5978C53.8261 61.744 53.0182 60.6835 52.4616 59.4888C51.2796 57.1246 50.7704 54.4809 50.9898 51.8467C51.0201 51.1736 51.1916 50.5144 51.4932 49.9118C51.7537 49.4754 52.1085 49.1028 52.5318 48.8214C52.955 48.5401 53.4359 48.3571 53.9391 48.2859C54.4521 48.211 54.9752 48.2478 55.4726 48.3937C55.97 48.5396 56.4301 48.7912 56.8214 49.1312C56.8214 49.1312 51.7924 27.6821 80.1772 27.6821C108.562 27.6821 105.168 49.1294 105.168 49.1294Z" fill="white"/>
<path d="M82.1854 89.9814L78.7875 89.9884L64.6042 84.2949C66.8858 94.0762 70.9397 104.635 74.1531 114.151C76.5952 121.378 78.4954 126.177 81.3705 133.307C83.5272 126.922 85.6834 120.536 87.8394 114.151C91.0527 104.635 95.1067 94.0762 97.3882 84.2949L82.865 89.9776L82.1854 89.9814Z" fill="white"/>
<path d="M60.2746 86.4166C56.6833 87.865 53.0647 89.2462 49.4869 90.7289C46.0585 92.1491 42.5921 93.5937 39.3896 95.4808C38.2031 96.1382 37.1091 96.9503 36.1363 97.8957C35.1815 98.9109 34.3711 100.053 33.728 101.289C31.8274 104.807 30.556 108.679 29.1133 112.397C26.8332 118.274 24.9616 124.339 23.1441 130.372C22.2188 133.2 21.4638 136.08 20.8832 138.998C20.5333 140.954 20.2981 142.929 20.1788 144.913C20.016 146.76 20.2145 148.622 20.763 150.393C22.0907 154.068 24.7953 157.083 28.305 158.8C31.4542 160.291 34.7025 161.563 38.0267 162.607C38.6921 162.829 39.36 163.044 40.032 163.247C41.4241 163.667 42.0186 161.492 40.6313 161.073C37.4754 160.123 34.3732 159.002 31.3385 157.716C28.2679 156.413 25.5229 154.629 23.8087 151.672C22.9143 150.155 22.4252 148.433 22.3884 146.672C22.3827 144.903 22.5127 143.136 22.7773 141.386C23.2366 138.434 23.9162 135.52 24.8104 132.669C26.6054 126.564 28.5356 120.471 30.7232 114.494C31.9537 111.131 33.2058 107.736 34.6762 104.47C35.2463 103.139 35.9419 101.865 36.7535 100.666C37.0799 100.204 37.4459 99.7711 37.8473 99.3727C38.0407 99.1805 38.2421 98.9968 38.4512 98.8218C38.5066 98.7748 38.563 98.7279 38.6194 98.6847C38.7635 98.5691 38.4972 98.7758 38.6452 98.6645C38.7792 98.564 38.9149 98.4655 39.0524 98.3691C41.7462 96.4811 44.8534 95.145 47.8591 93.845C51.3772 92.3233 54.9536 90.9407 58.5172 89.5308C59.304 89.2199 60.0896 88.9068 60.8739 88.5915C61.1572 88.5042 61.3964 88.3121 61.5428 88.0543C61.6892 87.7966 61.7316 87.4927 61.6615 87.2047C61.5802 86.9175 61.3891 86.6739 61.1296 86.5266C60.87 86.3793 60.5629 86.3401 60.2746 86.4176V86.4166Z" fill="#211715"/>
<path d="M101.112 88.5908C104.591 89.9936 108.095 91.3331 111.563 92.7636C114.879 94.0577 118.107 95.5701 121.223 97.291C121.823 97.6376 122.414 98.002 122.981 98.4022C123.411 98.6987 123.812 99.0368 124.177 99.4114C125.037 100.303 125.756 101.32 126.311 102.427C128.12 105.776 129.325 109.458 130.698 112.994C132.905 118.682 134.72 124.547 136.493 130.384C137.392 133.124 138.152 135.908 138.769 138.725C139.119 140.52 139.365 142.333 139.505 144.156C139.713 145.843 139.622 147.554 139.234 149.209C138.276 152.612 135.612 155.337 132.493 156.877C129.512 158.277 126.44 159.471 123.296 160.453C122.653 160.667 122.008 160.876 121.359 161.071C119.974 161.488 120.564 163.664 121.959 163.245C125.253 162.244 128.492 161.066 131.659 159.715C133.096 159.152 134.465 158.429 135.74 157.561C137.422 156.369 138.852 154.856 139.948 153.109C141.03 151.372 141.673 149.399 141.823 147.358C141.899 145.557 141.803 143.753 141.538 141.969C141.116 138.801 140.437 135.672 139.508 132.613C137.676 126.32 135.688 120.048 133.436 113.893C132.147 110.371 130.822 106.825 129.287 103.401C128.109 100.773 126.664 98.3082 124.302 96.587C121.595 94.6145 118.402 93.2577 115.346 91.9337C111.648 90.3313 107.892 88.8693 104.145 87.3876C103.333 87.0664 102.521 86.7428 101.711 86.4168C101.423 86.3394 101.116 86.3785 100.856 86.5258C100.596 86.6732 100.405 86.9168 100.324 87.204C100.252 87.492 100.293 87.7968 100.44 88.0551C100.587 88.3133 100.828 88.5052 101.112 88.5908Z" fill="#211715"/>
<path d="M109.38 31.9066C109.241 31.4194 109.085 30.9352 108.914 30.454C107.312 25.9755 104.086 20.4586 99.5983 18.5551L95.712 15.6057C94.0908 13.7953 90.5957 11.9195 87.767 11.1441C84.9196 10.3187 81.9499 9.99675 78.9917 10.1926C71.6841 10.7252 65.4726 13.4567 60.6371 18.9975L57.7812 22.7373C52.8856 28.04 50.1547 35.8028 52.7494 47.4528L52.9983 48.571C53.2957 48.4303 53.6122 48.3343 53.9376 48.2859C54.4506 48.2111 54.9737 48.2478 55.4711 48.3937C55.9685 48.5396 56.4286 48.7912 56.8198 49.1313L60.6399 46.2909C62.9055 45.0632 63.81 43.5435 65.211 40.7068C66.2235 38.6568 66.8261 36.2612 68.5581 34.8025C69.8623 33.7044 71.6028 33.332 73.2818 33.1549C76.1903 32.8518 79.126 32.9323 82.0134 33.3945C85.0539 33.9111 88.3349 32.6078 91.7351 33.448C95.5796 34.2746 97.9428 36.6209 99.8764 39.6332C100.616 40.7907 101.229 42.0245 101.705 43.3133C101.983 44.0641 102.215 44.8314 102.399 45.6108C102.581 46.3839 102.693 47.1391 102.811 47.9365C102.853 48.1737 102.942 48.4003 103.072 48.6031C103.202 48.8059 103.371 48.9809 103.569 49.1181C103.818 49.2379 104.091 49.3011 104.368 49.3033C104.644 49.3054 104.918 49.2466 105.169 49.1308C105.56 48.7908 106.02 48.5392 106.518 48.3933C107.015 48.2474 107.538 48.2106 108.051 48.2855C108.288 48.321 108.521 48.3808 108.746 48.4639C110.654 43.1412 110.875 37.3597 109.38 31.9066Z" fill="#7A7473"/>
<path d="M91.4351 34.5332C93.0786 34.8712 94.6148 35.6049 95.9108 36.6706C97.2144 37.8129 98.3216 39.1615 99.1884 40.6625C100.33 42.5686 101.115 44.6668 101.505 46.8543C101.693 47.8965 101.734 48.9334 102.533 49.7276C102.926 50.0789 103.41 50.3114 103.93 50.3982C104.449 50.4849 104.983 50.4222 105.468 50.2175C105.752 50.1313 105.992 49.9394 106.138 49.6814C106.285 49.4234 106.327 49.119 106.255 48.8311C106.174 48.5441 105.983 48.3007 105.723 48.1534C105.464 48.006 105.157 47.9665 104.869 48.0435C104.665 48.1181 104.336 48.2698 104.127 48.1336C103.864 47.9627 103.875 47.4761 103.833 47.2056C103.681 46.1372 103.45 45.0815 103.142 44.0473C102.509 41.9948 101.561 40.0531 100.332 38.2913C98.29 35.3654 95.5736 33.1492 92.0343 32.3606C90.6212 32.046 90.0177 34.219 91.4351 34.5346V34.5332Z" fill="#211715"/>
<path d="M82.3131 32.3057C80.3487 31.961 78.3553 31.8097 76.3613 31.8539C74.4094 31.8075 72.4605 32.0308 70.5697 32.5176C68.697 33.0621 67.1094 34.3134 66.1424 36.007C65.1941 37.6268 64.6592 39.45 63.7359 41.0862C62.7243 42.8788 61.4013 44.5494 59.5359 45.4976C58.2425 46.1551 59.3818 48.1003 60.6738 47.4438C64.0895 45.7061 65.7962 42.1908 67.2488 38.8493C67.9265 37.291 68.7094 35.7877 70.3015 35.0179C71.8678 34.2613 73.768 34.1932 75.4751 34.1312C77.5601 34.0201 79.6511 34.1374 81.7106 34.4811C81.9985 34.5524 82.3028 34.5105 82.5608 34.3641C82.8187 34.2176 83.0106 33.9778 83.097 33.694C83.1738 33.4058 83.1344 33.099 82.9871 32.8396C82.8399 32.5801 82.5967 32.389 82.3099 32.3071L82.3131 32.3057Z" fill="#211715"/>
<path d="M99.0296 19.5282C102.562 21.063 104.921 24.4679 106.576 27.8136C109.537 33.8704 110.04 40.8375 107.981 47.2569C107.532 48.64 109.707 49.2322 110.155 47.8562C111.547 43.4919 111.856 38.854 111.054 34.3436C110.252 29.8333 108.364 25.5861 105.552 21.9694C104.141 20.0894 102.292 18.5831 100.166 17.5815C99.9055 17.44 99.6011 17.4031 99.3147 17.4783C99.0282 17.5534 98.7811 17.7349 98.6238 17.9858C98.475 18.2445 98.434 18.5513 98.5096 18.8399C98.5853 19.1286 98.7716 19.3758 99.0282 19.5282H99.0296Z" fill="#211715"/>
<path d="M56.9843 21.9397C54.8725 24.2261 53.2302 26.9049 52.1507 29.8241C50.9673 33.1971 50.4576 36.7696 50.6507 40.339C50.7705 42.835 51.1092 45.3156 51.6628 47.7523C51.9746 49.1688 54.1486 48.5695 53.8368 47.1531C52.3696 40.4968 52.3226 33.2516 55.8464 27.2214C56.6196 25.896 57.5357 24.6594 58.5783 23.5337C59.558 22.4662 57.9678 20.868 56.9843 21.9397Z" fill="#211715"/>
<path d="M96.509 14.8087C94.7713 12.9113 92.3221 11.6423 89.9645 10.7007C87.1753 9.62586 84.218 9.05268 81.2291 9.00761C76.0129 8.88735 70.863 10.1946 66.3358 12.7882C63.8964 14.235 61.7036 16.0619 59.8401 18.2C58.8858 19.2858 60.4741 20.8863 61.4341 19.7939C64.4365 16.3258 68.3595 13.7786 72.7492 12.4473C77.7619 10.8892 83.1286 10.8841 88.1442 12.4327C90.5718 13.2152 93.1694 14.4968 94.915 16.4026C95.8966 17.4753 97.4873 15.878 96.509 14.8087Z" fill="#211715"/>
<path d="M89.2103 33.3286C88.4941 31.0743 86.5686 29.3976 84.4585 28.4522C82.0395 27.3672 79.352 27.0281 76.7394 27.4782C76.4525 27.5597 76.2091 27.7508 76.0618 28.0101C75.9146 28.2695 75.8752 28.5764 75.9523 28.8646C76.0376 29.149 76.2293 29.3896 76.4876 29.5362C76.7458 29.6828 77.0507 29.7242 77.3387 29.6517C79.363 29.3217 81.4396 29.5811 83.3205 30.3989C84.8703 31.0794 86.5014 32.2432 87.0363 33.9278C87.4745 35.3053 89.6513 34.7164 89.2103 33.3286Z" fill="#211715"/>
<path d="M103.171 61.186C103.111 62.2314 102.916 63.2646 102.59 64.2599C102.475 64.6426 102.349 65.0211 102.222 65.4001C102.188 65.5025 102.15 65.604 102.116 65.7064C102.016 66.005 102.172 65.5955 102.099 65.7533C101.632 66.759 101.1 67.7331 100.506 68.6693C98.8089 71.4867 96.6377 73.9897 94.0885 76.0681C92.7106 77.1967 91.1015 78.0089 89.3752 78.4473C87.962 78.7728 88.5603 80.9468 89.9744 80.6213C93.5569 79.7966 96.5621 77.2305 98.9338 74.5338C100.958 72.3058 102.651 69.7974 103.959 67.0862C104.825 65.2322 105.323 63.2281 105.427 61.1846C105.474 59.7334 103.219 59.7353 103.172 61.1846L103.171 61.186Z" fill="#211715"/>
<path d="M56.71 60.8497C58.0208 68.4109 62.1147 75.8158 69.1115 79.4786C71.0254 80.4821 73.1138 81.1099 75.2638 81.328C75.5621 81.3261 75.8477 81.2067 76.0586 80.9957C76.2696 80.7848 76.389 80.4992 76.3909 80.2009C76.3845 79.904 76.2636 79.621 76.0537 79.411C75.8437 79.201 75.5607 79.0802 75.2638 79.0737C68.0463 78.3223 62.4289 71.8375 60.1713 65.3343C59.6054 63.6773 59.175 61.9771 58.8845 60.2504C58.8029 59.9635 58.6118 59.7202 58.3524 59.573C58.0931 59.4257 57.7862 59.3863 57.4981 59.4633C57.2135 59.5484 56.9727 59.7401 56.826 59.9984C56.6793 60.2567 56.6374 60.5616 56.71 60.8497Z" fill="#211715"/>
<path d="M105.965 49.9262C106.456 49.5264 107.082 49.3323 107.713 49.3849C108.344 49.4374 108.929 49.7325 109.347 50.208C109.837 50.8242 109.879 51.7142 109.91 52.4661C109.954 53.3634 109.903 54.2629 109.759 55.1496C109.219 58.3155 107.561 62.1727 104.036 62.7823C103.749 62.8639 103.505 63.0549 103.358 63.3143C103.211 63.5737 103.171 63.8805 103.248 64.1687C103.334 64.4532 103.525 64.6939 103.784 64.8406C104.042 64.9873 104.347 65.0285 104.635 64.9558C108.339 64.3157 110.533 60.8084 111.532 57.4626C112.048 55.7435 112.256 53.947 112.148 52.1556C112.032 50.3578 111.49 48.668 109.832 47.7325C108.971 47.2581 107.984 47.0611 107.006 47.1684C106.028 47.2758 105.107 47.6822 104.369 48.3323C104.16 48.5448 104.043 48.8311 104.043 49.1292C104.043 49.4274 104.16 49.7136 104.369 49.9262C104.583 50.132 104.869 50.2469 105.166 50.2469C105.463 50.2469 105.749 50.132 105.963 49.9262H105.965Z" fill="#211715"/>
<path d="M57.6183 48.3323C56.9732 47.7606 56.1851 47.3748 55.338 47.216C54.4908 47.0572 53.6165 47.1314 52.8082 47.4306C51.0409 48.127 50.134 49.6135 49.9067 51.4484C49.481 55.0429 50.3807 58.6693 52.4372 61.6481C53.5777 63.3532 55.3433 64.5412 57.3525 64.9553C57.6404 65.0261 57.9446 64.984 58.2024 64.8375C58.4603 64.691 58.6522 64.4513 58.7389 64.1677C58.8158 63.8796 58.7764 63.5727 58.6291 63.3134C58.4819 63.054 58.2386 62.8629 57.9517 62.7813C54.4266 62.1708 52.7678 58.3141 52.2282 55.1487C52.0896 54.2959 52.0379 53.4312 52.0741 52.568C52.1004 51.81 52.1295 50.9111 52.5954 50.2738C52.7972 50.0251 53.0462 49.8188 53.328 49.6667C53.6097 49.5146 53.9188 49.4197 54.2374 49.3874C54.556 49.3551 54.8778 49.3861 55.1844 49.4785C55.491 49.571 55.7762 49.7232 56.0238 49.9262C56.2389 50.1305 56.5242 50.2444 56.8208 50.2444C57.1174 50.2444 57.4027 50.1305 57.6178 49.9262C57.8269 49.7137 57.9441 49.4274 57.9441 49.1293C57.9441 48.8311 57.8274 48.5448 57.6183 48.3323Z" fill="#211715"/>
<path d="M91.0494 78.6358C91.0828 80.4674 91.187 82.5155 92.2038 84.1034C92.9608 85.2057 93.8858 86.1827 94.9451 86.9987C95.9998 87.8582 97.1034 88.6557 98.2505 89.3873C98.8402 89.7963 99.458 90.1631 100.099 90.4849C100.36 90.6272 100.664 90.6645 100.951 90.5893C101.238 90.5142 101.485 90.3321 101.642 90.0805C101.79 89.8219 101.831 89.5152 101.756 89.2267C101.68 88.9382 101.494 88.6911 101.237 88.5387C100.659 88.2491 100.102 87.9207 99.5683 87.5557C98.5935 86.9457 97.6519 86.2842 96.7476 85.5738C96.23 85.1632 95.7337 84.7263 95.2607 84.2649C94.9017 83.9178 94.5705 83.543 94.2702 83.1439C94.1133 82.9195 93.9745 82.683 93.8551 82.4366C93.9809 82.6977 93.7809 82.2309 93.7687 82.1947C93.6898 81.9599 93.625 81.7218 93.5695 81.4813C93.3831 80.5445 93.2941 79.5909 93.3037 78.6358C93.2774 77.1869 91.0231 77.1822 91.0494 78.6358Z" fill="#211715"/>
<path d="M61.8897 90.4843C62.5114 90.17 63.1067 89.8059 63.6697 89.3957C64.7435 88.6832 65.7638 87.8932 66.7224 87.032C67.6894 86.2173 68.4912 85.2247 69.0842 84.108C69.8826 82.4224 69.9526 80.4818 69.9615 78.6488C69.9681 77.1981 67.7143 77.1962 67.7072 78.6488C67.7203 79.5117 67.677 80.3746 67.5776 81.2319C67.4915 81.9023 67.3091 82.5569 67.0361 83.1752C66.4848 84.1136 65.7678 84.9441 64.9199 85.6263C64.1078 86.3361 63.2465 86.9875 62.3425 87.5758C61.8368 87.9372 61.3042 88.2594 60.7494 88.5395C60.493 88.6918 60.3068 88.939 60.2311 89.2275C60.1554 89.5161 60.1964 89.8228 60.3451 90.0814C60.5006 90.3344 60.7478 90.5176 61.0351 90.5929C61.3224 90.6683 61.6277 90.6299 61.8874 90.4857L61.8897 90.4843Z" fill="#211715"/>
<path d="M74.9928 116.514C75.9636 108.559 77.2992 98.8045 77.2992 98.5269C77.2794 98.0312 77.1992 97.5398 77.0606 97.0635C77.0052 96.8409 76.9493 96.6258 76.9019 96.4032C76.6032 95.1262 76.4144 94.2428 76.1425 92.8301C76.5342 92.4225 76.9216 92.0129 77.2941 91.6043C77.9328 90.9027 78.4527 90.3772 78.8439 89.9892C80.3467 89.9864 81.5176 89.9827 83.1345 89.9766C83.5286 90.3682 84.0518 90.8966 84.6961 91.6043C85.1507 92.1026 85.6269 92.6023 86.105 93.0988C85.8702 94.0409 85.6561 94.9952 85.2987 96.0927C84.9796 96.9238 84.7866 97.7979 84.7262 98.6861C84.7182 99.1393 86.0149 107.699 87.2397 115.892L74.9928 116.514Z" fill="#3F88C9"/>
<path d="M77.6364 99.5855C79.9273 99.5855 82.2183 99.5353 84.5092 99.5343C84.8081 99.5343 85.0948 99.4156 85.3062 99.2042C85.5176 98.9928 85.6363 98.7061 85.6363 98.4072C85.6363 98.1082 85.5176 97.8215 85.3062 97.6102C85.0948 97.3988 84.8081 97.28 84.5092 97.28C82.2183 97.28 79.9273 97.3307 77.6364 97.3312C77.3375 97.3312 77.0508 97.45 76.8394 97.6614C76.628 97.8727 76.5093 98.1594 76.5093 98.4584C76.5093 98.7573 76.628 99.044 76.8394 99.2554C77.0508 99.4668 77.3375 99.5855 77.6364 99.5855Z" fill="#211715"/>
<path d="M75.1694 93.7193C75.3601 94.6811 75.5691 95.6387 75.7889 96.5949C76.0072 97.2437 76.1336 97.9198 76.1646 98.6036C76.1237 99.2874 75.9941 99.9763 75.9053 100.655C75.4939 103.802 75.0764 106.948 74.6716 110.095C74.3964 112.234 74.1273 114.373 73.8643 116.513C73.866 116.811 73.9853 117.097 74.1963 117.308C74.4073 117.519 74.693 117.638 74.9914 117.64C75.2881 117.633 75.5708 117.512 75.7806 117.302C75.9905 117.092 76.1115 116.81 76.1185 116.513C76.575 112.776 77.0578 109.046 77.5477 105.312C77.8365 103.108 78.2348 100.89 78.4114 98.6731C78.4167 97.95 78.3086 97.2305 78.0911 96.5409C77.8154 95.4058 77.5697 94.2641 77.3429 93.1186C77.261 92.8319 77.0699 92.5888 76.8106 92.4415C76.5514 92.2943 76.2447 92.2546 75.9565 92.331C75.6716 92.4157 75.4304 92.6074 75.2836 92.8659C75.1368 93.1244 75.0957 93.4297 75.1689 93.7179L75.1694 93.7193Z" fill="#211715"/>
<path d="M82.8636 88.8528C81.5048 88.855 80.1461 88.8578 78.7875 88.8612C78.4886 88.8612 78.2019 88.98 77.9905 89.1914C77.7792 89.4028 77.6604 89.6894 77.6604 89.9884C77.6604 90.2873 77.7792 90.574 77.9905 90.7854C78.2019 90.9968 78.4886 91.1155 78.7875 91.1155C80.1461 91.1133 81.5048 91.1105 82.8636 91.1071C83.1625 91.1071 83.4492 90.9883 83.6606 90.7769C83.872 90.5656 83.9907 90.2789 83.9907 89.9799C83.9907 89.681 83.872 89.3943 83.6606 89.1829C83.4492 88.9715 83.1625 88.8528 82.8636 88.8528Z" fill="#211715"/>
<path d="M88.3307 115.591C87.7985 112.022 87.2651 108.454 86.7307 104.888C86.5334 103.56 86.3387 102.232 86.1464 100.903C86.0816 100.451 86.0181 99.9975 85.9557 99.5442C85.9243 99.3187 85.9825 99.756 85.9459 99.4714C85.9365 99.4005 85.9271 99.3305 85.9182 99.2596C85.9031 99.1422 85.8858 99.0248 85.8754 98.9064C85.8519 98.4163 85.9147 97.9259 86.0609 97.4576C86.3282 96.4563 86.6776 95.4813 86.9307 94.4748C87.2853 93.0659 85.1118 92.4671 84.7572 93.8756C84.3632 95.44 83.5324 97.1161 83.6066 98.7524C83.6371 99.4333 83.7771 100.12 83.8719 100.794C84.2871 103.744 84.7347 106.688 85.1752 109.634C85.5027 111.82 85.83 114.005 86.1572 116.19C86.2384 116.477 86.4294 116.721 86.6889 116.868C86.9484 117.016 87.2554 117.055 87.5436 116.977C87.8278 116.892 88.0681 116.7 88.2146 116.442C88.3612 116.184 88.4028 115.879 88.3307 115.591Z" fill="#211715"/>
<path d="M80.714 135.248C83.0888 128.216 85.4635 121.183 87.838 114.151C91.0513 104.635 95.1053 94.0762 97.3868 84.2949C100.304 86.0584 104.387 89.9579 105.868 92.9077C105.948 93.0306 105.981 93.178 105.962 93.3234C105.921 93.4844 105.762 93.5817 105.615 93.662L101.67 95.8369C103.153 97.1782 104.666 98.5716 106.048 100.024C106.257 100.232 106.384 100.508 106.407 100.801C106.402 101.044 106.332 101.282 106.206 101.49C101.084 111.16 94.9498 121.622 89.2794 131.109L80.714 135.248Z" fill="#BDBDBD"/>
<path d="M73.7097 131.92C67.7058 122.252 60.9053 111.162 55.7801 101.487C55.654 101.279 55.5847 101.042 55.5791 100.799C55.6019 100.505 55.7292 100.229 55.9379 100.022C57.3201 98.5692 58.8333 97.1758 60.3159 95.8345L56.3709 93.6595C56.2249 93.5792 56.0657 93.482 56.0243 93.3209C56.005 93.1756 56.0384 93.0282 56.1183 92.9053C57.599 89.9555 61.6826 86.056 64.5996 84.2925C66.8811 94.0738 70.9351 104.632 74.1484 114.149C76.5229 121.181 78.3874 125.914 81.1353 132.732L73.7097 131.92Z" fill="#BDBDBD"/>
<path d="M81.8026 135.548C84.1508 128.589 86.5 121.63 88.8501 114.671C91.0062 108.287 93.3385 101.961 95.389 95.5414C96.5429 91.9289 97.608 88.2859 98.4736 84.5931C98.8023 83.1841 96.6312 82.5792 96.3001 83.9933C94.747 90.6181 92.5701 97.079 90.3403 103.501C88.0656 110.051 85.8195 116.61 83.6018 123.179L79.6272 134.949C79.1618 136.327 81.3386 136.918 81.8007 135.549L81.8026 135.548Z" fill="#211715"/>
<path d="M63.5161 84.5946C65.0857 91.2903 67.292 97.8188 69.5477 104.309C71.7161 110.548 73.7872 116.828 76.1115 123.01C77.3748 126.371 78.71 129.704 80.0518 133.034C80.1391 133.317 80.3312 133.556 80.5889 133.703C80.8465 133.849 81.1503 133.891 81.4382 133.821C81.7254 133.74 81.969 133.549 82.1163 133.289C82.2636 133.03 82.3028 132.723 82.2253 132.434C79.8076 126.434 77.4636 120.412 75.385 114.284C73.1964 107.832 70.8473 101.434 68.7742 94.9437C67.6208 91.3312 66.5556 87.6882 65.6896 83.9949C65.3609 82.5831 63.185 83.181 63.5161 84.5946Z" fill="#211715"/>
<path d="M89.4935 96.7098C92.527 93.1709 95.0292 89.2092 96.9214 84.9495C96 83.1723 95.3805 82.0208 93.8133 80.5818C92.0212 82.9911 87.9292 86.0001 83.0247 87.9731C82.6743 88.0878 82.3502 88.2711 82.0713 88.5122C81.9539 88.7306 82.1821 88.9227 82.2897 89.095C82.4583 89.3646 83.2867 90.0578 84.6966 91.6053C86.2962 93.3589 88.1696 95.1281 89.4935 96.7098Z" fill="white"/>
<path d="M72.4961 96.7098C69.4627 93.1709 66.9605 89.2092 65.0682 84.9495C65.9897 83.1723 66.6091 82.0208 68.1763 80.5818C69.9685 82.9911 74.0605 86.0001 78.965 87.9731C79.3154 88.0878 79.6395 88.2711 79.9184 88.5122C80.0358 88.7306 79.8075 88.9227 79.7 89.095C79.5314 89.3646 78.7029 90.0578 77.2931 91.6053C75.6935 93.3589 73.8186 95.1281 72.4961 96.7098Z" fill="white"/>
<path d="M90.2905 97.5069C92.5858 94.8145 94.5942 91.8902 96.2832 88.7814C96.6955 88.0093 97.0892 87.228 97.4643 86.4374C97.6752 85.995 98.0486 85.4422 98.0486 84.9496C97.9726 84.4783 97.7878 84.0313 97.5089 83.6439C96.7655 82.2039 95.7857 80.8988 94.6103 79.783C94.4865 79.665 94.3379 79.5761 94.1754 79.5229C94.0128 79.4697 93.8405 79.4534 93.6709 79.4753C93.5012 79.4971 93.3386 79.5566 93.1949 79.6493C93.0512 79.7421 92.93 79.8657 92.8402 80.0112C92.4408 80.5072 92.0086 80.9757 91.5463 81.4136C90.9992 81.9358 90.4228 82.4264 89.8199 82.8831C88.2943 84.0264 86.6665 85.0266 84.9572 85.871C84.0489 86.3251 83.1087 86.6929 82.1863 87.1141C81.247 87.5429 80.5318 88.4075 81.1587 89.4455C81.4268 89.8471 81.7434 90.2142 82.1013 90.5383C82.6874 91.1193 83.2637 91.7082 83.8221 92.3159C85.4273 94.063 87.165 95.6931 88.6961 97.5069C88.9086 97.716 89.1949 97.8332 89.4931 97.8332C89.7912 97.8332 90.0775 97.716 90.29 97.5069C90.4958 97.2926 90.6107 97.007 90.6107 96.7099C90.6107 96.4128 90.4958 96.1272 90.29 95.9129C88.8759 94.2377 87.2763 92.7316 85.7871 91.1254C85.1568 90.4463 84.5275 89.7695 83.87 89.1172C83.6779 88.9265 83.4886 88.733 83.2956 88.5433C83.2247 88.4738 83.0472 88.2272 83.2839 88.5559C83.2552 88.5165 83.1054 88.253 83.1247 88.339V88.9382L83.1575 88.81L82.8678 89.3074C82.7494 89.4459 82.9105 89.2717 82.9899 89.2271C83.0988 89.1665 83.2101 89.1092 83.3238 89.058C83.6713 88.9007 84.0283 88.7673 84.381 88.6156C85.0544 88.3244 85.7179 88.0113 86.3713 87.6763C87.5722 87.064 88.7338 86.3776 89.8495 85.6211C91.7285 84.4099 93.3961 82.8987 94.7859 81.1478L93.0158 81.3756C94.2296 82.5723 95.2221 83.9743 95.9474 85.5169V84.3789C94.0568 88.5301 91.618 92.4089 88.6961 95.9115C88.4921 96.1267 88.3784 96.412 88.3784 96.7085C88.3784 97.005 88.4921 97.2903 88.6961 97.5055C88.9085 97.7148 89.1947 97.8322 89.493 97.8325C89.7912 97.8328 90.0777 97.7158 90.2905 97.5069Z" fill="#211715"/>
<path d="M73.2932 95.9129C70.3712 92.4099 67.9323 88.5306 66.0419 84.3789V85.5169C66.7673 83.9744 67.7597 82.5724 68.9734 81.3756L67.2033 81.1478C68.5935 82.8984 70.2611 84.4095 72.1397 85.6212C73.2267 86.3588 74.3577 87.0294 75.5263 87.6294C76.1776 87.9647 76.8392 88.2789 77.5111 88.5719C77.8609 88.7246 78.2155 88.8636 78.5664 89.0162C78.687 89.0688 78.8073 89.1214 78.9233 89.1839C79.0008 89.2252 79.26 89.4685 79.1215 89.306L78.8317 88.8086L78.8646 88.9368V88.3376C78.8838 88.2516 78.734 88.5151 78.7054 88.5546C78.9402 88.2258 78.7645 88.4724 78.6936 88.5419C78.5006 88.7297 78.3113 88.9251 78.1193 89.1158C77.4618 89.7681 76.8324 90.4449 76.2022 91.124C74.7129 92.7302 73.1133 94.2363 71.6992 95.9115C71.4949 96.1266 71.381 96.4119 71.381 96.7085C71.381 97.0051 71.4949 97.2904 71.6992 97.5055C71.9118 97.7146 72.198 97.8318 72.4962 97.8318C72.7944 97.8318 73.0806 97.7146 73.2932 97.5055C74.6368 95.9139 76.1486 94.4754 77.5726 92.9575C78.2183 92.2694 78.851 91.5716 79.5183 90.9037C79.9151 90.5395 80.285 90.1471 80.6253 89.7296C81.1973 88.9627 81.2386 88.03 80.3872 87.4387C79.616 86.9038 78.6316 86.6342 77.7835 86.2355C76.0206 85.413 74.3354 84.4332 72.7484 83.3082C71.3997 82.3841 70.1881 81.2743 69.1495 80.0117C69.0597 79.8662 68.9385 79.7425 68.7948 79.6498C68.6511 79.5571 68.4885 79.4976 68.3189 79.4757C68.1492 79.4539 67.9769 79.4701 67.8144 79.5234C67.6518 79.5766 67.5032 79.6655 67.3794 79.7835C66.224 80.8772 65.2586 82.1555 64.5226 83.566C64.2248 83.9764 64.0258 84.4501 63.9412 84.95C64.0358 85.4797 64.2344 85.9853 64.5254 86.4379C64.9011 87.2272 65.2948 88.0085 65.7066 88.7819C67.3956 91.8907 69.404 94.815 71.6992 97.5074C71.9118 97.7165 72.198 97.8337 72.4962 97.8337C72.7944 97.8337 73.0806 97.7165 73.2932 97.5074C73.4989 97.293 73.6138 97.0073 73.6138 96.7102C73.6138 96.413 73.4989 96.1274 73.2932 95.9129Z" fill="#211715"/>
<path d="M96.772 85.268C98.4625 86.3365 100.02 87.602 101.412 89.0378C102.152 89.7697 102.847 90.5454 103.494 91.3607C103.769 91.712 104.029 92.0764 104.271 92.4503C104.394 92.6381 104.512 92.8302 104.624 93.0246C104.671 93.1073 104.718 93.1904 104.765 93.2745C104.799 93.3356 104.831 93.3971 104.862 93.4591C104.916 93.5693 104.907 93.5392 104.835 93.3689L104.989 92.7997C105.076 92.7151 105.062 92.7119 104.946 92.7908L104.649 92.9547L104.253 93.1731L103.163 93.7742L101.082 94.9215C100.935 95.0097 100.809 95.1302 100.715 95.274C100.621 95.4177 100.561 95.581 100.539 95.7514C100.517 95.9219 100.534 96.0951 100.588 96.258C100.643 96.421 100.734 96.5694 100.854 96.6921C101.887 97.6262 102.913 98.5665 103.907 99.5396C104.149 99.7763 104.389 100.015 104.627 100.256C104.807 100.437 105.157 100.668 105.253 100.901C105.305 101.027 105.284 100.916 105.283 100.885C105.283 100.955 105.214 101.043 105.186 101.101C105.032 101.419 104.853 101.727 104.686 102.04C103.441 104.372 102.173 106.691 100.882 108.998C98.243 113.729 95.5284 118.42 92.7824 123.088C91.2711 125.655 89.7501 128.217 88.2193 130.775C87.4731 132.023 89.4212 133.158 90.1655 131.913C95.9384 122.255 101.648 112.55 106.932 102.614C107.305 101.91 107.663 101.232 107.474 100.413C107.291 99.6208 106.61 99.0511 106.061 98.5026C104.893 97.3285 103.673 96.2102 102.445 95.0991L102.217 96.8692L104.991 95.3391C105.801 94.892 107.041 94.4632 107.086 93.3698C107.115 92.6546 106.632 91.9609 106.258 91.3781C105.832 90.7262 105.369 90.099 104.872 89.4995C102.911 87.0679 100.558 84.9799 97.9114 83.3213C96.6701 82.5629 95.5364 84.5114 96.7734 85.268H96.772Z" fill="#211715"/>
<path d="M64.0796 83.3214C61.4317 84.9796 59.0784 87.067 57.1162 89.4982C56.6189 90.0977 56.1558 90.7249 55.7293 91.3767C55.3578 91.9558 54.8652 92.6542 54.9018 93.3685C54.9577 94.4628 56.1797 94.8869 56.9969 95.3377L59.7711 96.8678L59.5428 95.0977C58.3716 96.1582 57.2064 97.2262 56.0867 98.3416C55.5822 98.7747 55.1349 99.2704 54.7558 99.8167C54.5619 100.176 54.4647 100.579 54.4739 100.988C54.483 101.396 54.5981 101.795 54.8079 102.145C56.0379 104.64 57.4698 107.057 58.844 109.475C61.7187 114.53 64.7075 119.522 67.7424 124.487C69.4262 127.242 71.1215 129.99 72.8281 132.731C73.5918 133.961 75.5427 132.83 74.7743 131.593C68.9883 122.276 63.2211 112.928 57.9794 103.29C57.6294 102.647 57.2826 102.002 56.9391 101.357C56.8776 101.241 56.8128 101.126 56.7546 101.009C56.6799 100.859 56.7151 100.939 56.7193 100.929C56.9469 100.616 57.2167 100.336 57.521 100.097C58.6895 98.923 59.9101 97.8048 61.1373 96.6936C61.2576 96.5709 61.3485 96.4225 61.4032 96.2595C61.4579 96.0966 61.4749 95.9234 61.4529 95.7529C61.4309 95.5824 61.3706 95.4192 61.2764 95.2754C61.1822 95.1317 61.0566 95.0112 60.909 94.923L58.829 93.7757L57.838 93.229L57.3426 92.9561C57.2538 92.9092 56.8988 92.6077 57.0025 92.8012L57.1566 93.3704C57.1641 93.5502 57.0782 93.5404 57.1932 93.3375C57.2402 93.2553 57.2834 93.1712 57.3299 93.0891C57.4398 92.8946 57.5563 92.7044 57.6765 92.5166C57.916 92.1437 58.172 91.7792 58.4429 91.4289C60.3591 89.0283 62.6463 86.949 65.218 85.2695C66.4537 84.5138 65.3223 82.5634 64.0801 83.3228L64.0796 83.3214Z" fill="#211715"/>
<path d="M122.087 142.916L124.313 142.634C124.61 142.622 124.892 142.506 125.111 142.305C125.216 142.201 125.299 142.076 125.356 141.94C125.412 141.803 125.442 141.656 125.442 141.508C125.442 141.36 125.412 141.213 125.356 141.077C125.299 140.94 125.216 140.815 125.111 140.711C125.008 140.604 124.884 140.52 124.746 140.463C124.609 140.407 124.461 140.379 124.313 140.382L122.087 140.664C121.79 140.675 121.507 140.792 121.288 140.993C121.077 141.204 120.958 141.491 120.958 141.79C120.958 142.089 121.077 142.375 121.288 142.587C121.392 142.693 121.516 142.777 121.653 142.834C121.791 142.891 121.938 142.919 122.087 142.916Z" fill="#211715"/>
<path d="M39.777 140.662L37.5509 140.38C37.4026 140.379 37.2557 140.408 37.1187 140.464C36.9816 140.521 36.8572 140.604 36.7525 140.709C36.6477 140.813 36.5647 140.938 36.508 141.074C36.4513 141.211 36.4221 141.358 36.4221 141.506C36.4221 141.654 36.4513 141.801 36.508 141.937C36.5647 142.074 36.6477 142.198 36.7525 142.303L36.9807 142.479C37.1533 142.58 37.3496 142.633 37.5494 142.633L39.7756 142.915C39.9237 142.916 40.0706 142.887 40.2076 142.83C40.3446 142.774 40.4692 142.691 40.574 142.586C40.7853 142.375 40.9041 142.088 40.9041 141.789C40.9041 141.49 40.7853 141.204 40.574 140.992L40.3457 140.816C40.1732 140.715 39.9769 140.662 39.777 140.662V140.662Z" fill="#211715"/>
<path d="M80.9948 111.378C64.3163 111.499 47.7182 111.596 41.8265 111.616C41.6036 111.616 41.383 111.66 41.1774 111.746C40.9717 111.832 40.785 111.958 40.6279 112.116C40.4709 112.274 40.3466 112.461 40.2621 112.668C40.1776 112.874 40.1347 113.095 40.1358 113.318C40.17 122.893 40.6317 156.03 40.9811 168.21C40.994 168.657 41.1825 169.08 41.5056 169.388C41.8288 169.697 42.2605 169.865 42.7071 169.857C48.0328 169.775 64.5291 169.826 80.9925 169.882C97.4558 169.826 113.952 169.775 119.278 169.857C119.725 169.866 120.157 169.698 120.481 169.389C120.804 169.081 120.993 168.657 121.006 168.211C121.358 156.03 121.82 122.893 121.854 113.318C121.855 113.095 121.812 112.874 121.728 112.668C121.643 112.462 121.519 112.274 121.362 112.116C121.205 111.958 121.018 111.833 120.812 111.747C120.607 111.661 120.386 111.616 120.163 111.616C114.271 111.596 97.6733 111.499 80.9948 111.378Z" fill="white"/>
<path d="M80.9948 110.251C69.3476 110.335 57.6992 110.408 46.0495 110.47C45.175 110.475 44.3009 110.479 43.427 110.482C42.6169 110.486 41.671 110.372 40.9013 110.649C40.3115 110.872 39.8092 111.279 39.4685 111.81C39.1278 112.34 38.9669 112.966 39.0095 113.595C39.0117 114.161 39.015 114.726 39.0194 115.291C39.0419 118.579 39.0745 121.866 39.1171 125.151C39.2204 133.906 39.3481 142.661 39.5003 151.416C39.5689 155.349 39.6457 159.283 39.7309 163.216C39.765 164.734 39.8028 166.253 39.8441 167.772C39.8774 168.972 40.2386 170.073 41.3765 170.665C42.1904 171.088 43.1255 170.978 44.0103 170.97C54.7022 170.87 65.3974 170.959 76.0894 170.994C88.3057 171.034 100.523 170.923 112.739 170.947C114.518 170.95 116.297 170.955 118.076 170.972C118.991 170.981 119.919 171.073 120.748 170.593C121.875 169.941 122.118 168.79 122.151 167.592C122.245 164.231 122.312 160.869 122.377 157.507C122.548 148.703 122.689 139.898 122.8 131.093C122.851 127.23 122.897 123.368 122.936 119.506C122.95 118.058 122.963 116.611 122.973 115.165C122.977 114.596 122.987 114.026 122.982 113.457C123.004 112.797 122.797 112.149 122.398 111.622C121.999 111.095 121.431 110.721 120.789 110.563C119.981 110.451 119.164 110.425 118.351 110.484L115.742 110.472C113.468 110.461 111.195 110.448 108.921 110.435C102.857 110.401 96.7922 110.363 90.7272 110.322C87.4832 110.3 84.2397 110.277 80.9967 110.254C79.5459 110.243 79.5441 112.498 80.9967 112.508C92.4197 112.591 103.843 112.663 115.266 112.724C116.863 112.732 118.487 112.656 120.083 112.746C120.809 112.786 120.729 113.399 120.726 113.961C120.723 114.538 120.719 115.115 120.715 115.691C120.691 118.935 120.659 122.179 120.617 125.423C120.515 133.989 120.39 142.555 120.242 151.12C120.175 154.977 120.1 158.834 120.018 162.69C119.984 164.202 119.948 165.713 119.908 167.223C119.895 167.693 120.049 168.585 119.444 168.726C119.129 168.759 118.81 168.757 118.495 168.721C118.138 168.717 117.78 168.713 117.423 168.711C106.878 168.629 96.3305 168.705 85.7856 168.74C73.836 168.779 61.8868 168.673 49.9372 168.69C48.0957 168.693 46.2543 168.697 44.4133 168.712C43.7894 168.788 43.1586 168.788 42.5347 168.712C41.9176 168.543 42.0927 167.576 42.0791 167.08C41.989 163.706 41.9204 160.331 41.8556 156.956C41.6912 148.384 41.5552 139.811 41.4475 131.239C41.3977 127.46 41.3531 123.681 41.3136 119.901C41.2989 118.468 41.2862 117.034 41.2756 115.6C41.2718 115.028 41.2684 114.457 41.2652 113.885C41.2619 113.21 41.2779 112.746 42.0791 112.743C51.8834 112.708 61.6877 112.651 71.492 112.573C74.6596 112.551 77.8272 112.529 80.9948 112.506C82.4446 112.495 82.4479 110.24 80.9948 110.251Z" fill="#211715"/>
<path d="M48.1808 164.176C56.2517 164.126 64.3235 164.169 72.3943 164.194C82.2827 164.225 92.1701 164.178 102.058 164.164C105.975 164.158 109.892 164.152 113.809 164.176C115.26 164.186 115.262 161.932 113.809 161.922C105.738 161.872 97.6663 161.915 89.5955 161.94C79.7071 161.971 69.8197 161.924 59.9318 161.909C56.015 161.904 52.0977 161.898 48.1808 161.922C46.7306 161.931 46.7273 164.186 48.1808 164.176Z" fill="#211715"/>
<path d="M80.9949 134.789C79.7766 134.801 78.5584 134.817 77.3401 134.818C77.0426 134.823 76.7585 134.943 76.5481 135.153C76.3376 135.364 76.2174 135.648 76.213 135.945C76.2083 137.223 76.2065 138.501 76.2078 139.779C76.2078 140.53 76.2078 141.282 76.2172 142.033C76.2195 142.303 76.2172 142.574 76.228 142.843C76.2213 143.009 76.2494 143.174 76.3106 143.328C76.3717 143.482 76.4646 143.622 76.583 143.737C76.7015 143.853 76.843 143.943 76.9983 144.001C77.1537 144.058 77.3194 144.083 77.4848 144.073C79.6747 144.073 81.8647 144.057 84.0541 144.068C84.4422 144.124 84.8382 144.074 85.2005 143.924C85.735 143.612 85.7599 143.053 85.7674 142.509C85.7773 141.804 85.7791 141.103 85.781 140.4C85.7845 138.916 85.7831 137.432 85.7768 135.948C85.7723 135.65 85.6521 135.366 85.4417 135.156C85.2313 134.945 84.9472 134.825 84.6496 134.821C83.4314 134.821 82.2131 134.803 80.9949 134.791C80.6959 134.791 80.4092 134.91 80.1979 135.122C79.9865 135.333 79.8677 135.62 79.8677 135.919C79.8677 136.217 79.9865 136.504 80.1979 136.716C80.4092 136.927 80.6959 137.046 80.9949 137.046C82.2131 137.057 83.4314 137.074 84.6496 137.075L83.5225 135.948C83.5314 138.281 83.5629 140.618 83.5051 142.951L83.6592 142.382L84.6323 141.823C84.2307 141.786 83.816 141.812 83.4135 141.812C82.6076 141.812 81.8013 141.82 80.9953 141.82C80.2082 141.82 79.4211 141.813 78.634 141.812C78.2113 141.812 77.7788 141.785 77.3584 141.823L78.3311 142.38L78.4846 142.949C78.4269 140.616 78.4583 138.279 78.4672 135.946L77.3401 137.073C78.5584 137.073 79.7766 137.056 80.9949 137.044C81.2938 137.044 81.5805 136.925 81.7919 136.714C82.0033 136.502 82.122 136.216 82.122 135.917C82.122 135.618 82.0033 135.331 81.7919 135.12C81.5805 134.908 81.2938 134.79 80.9949 134.79V134.789Z" fill="#211715"/>
<path d="M76.6366 68.5087C78.0603 69.2443 79.6459 69.6107 81.248 69.5743C82.895 69.5635 84.5656 69.2418 85.8857 68.2123C86.0956 68.0002 86.2133 67.7138 86.2133 67.4153C86.2133 67.1169 86.0956 66.8305 85.8857 66.6184C85.6708 66.4139 85.3854 66.2998 85.0887 66.2998C84.7921 66.2998 84.5067 66.4139 84.2918 66.6184C84.6285 66.3558 84.3491 66.569 84.2626 66.6245C84.1762 66.6799 84.0748 66.7395 83.9752 66.7912C83.9015 66.8297 83.5563 66.9706 83.8498 66.8602C83.7179 66.91 83.5873 66.9612 83.453 67.0044C82.6937 67.2507 81.896 67.3574 81.0987 67.3191C80.8638 67.3191 80.629 67.3097 80.3942 67.2937C80.2862 67.2862 80.1782 67.2777 80.0706 67.2669C80.0706 67.2669 79.6949 67.2167 79.8926 67.2472C79.5418 67.1942 79.195 67.1171 78.8547 67.0166C78.7096 66.9734 78.5677 66.9227 78.4245 66.872C78.3775 66.856 78.3329 66.8316 78.2836 66.818C78.5654 66.8987 78.3804 66.8612 78.3019 66.8241C78.1239 66.7405 77.9487 66.6531 77.7745 66.5611C77.5149 66.4166 77.2095 66.378 76.9221 66.4533C76.6347 66.5287 76.3875 66.7121 76.2322 66.9654C76.0845 67.2244 76.0442 67.5309 76.1199 67.8192C76.1955 68.1075 76.3812 68.3547 76.637 68.5077L76.6366 68.5087Z" fill="#211715"/>
<path d="M80.7098 57.5959C80.9243 58.3695 81.0958 59.1544 81.2235 59.947L81.1836 59.6473C81.1988 59.7548 81.2018 59.8637 81.1925 59.9719L81.2325 59.6722C81.2253 59.722 81.2133 59.7709 81.1968 59.8183L81.3104 59.5487C81.2964 59.5816 81.2792 59.613 81.2592 59.6427L81.4354 59.4149C81.4123 59.4426 81.3865 59.468 81.3583 59.4905L81.5866 59.3144C81.5263 59.3513 81.4635 59.3841 81.3987 59.4125L81.6678 59.2989C81.5675 59.3429 81.4621 59.3745 81.3541 59.3928L81.6537 59.3529C81.5558 59.3644 81.4568 59.3644 81.3588 59.3529L81.6584 59.3928C81.5476 59.3773 81.4386 59.3505 81.3273 59.3355C81.0337 59.2672 80.7252 59.3075 80.459 59.4492C80.3311 59.5239 80.2192 59.623 80.1297 59.7409C80.0402 59.8589 79.9748 59.9933 79.9372 60.1365C79.8997 60.2798 79.8907 60.429 79.9109 60.5757C79.931 60.7224 79.9798 60.8637 80.0546 60.9915C80.126 61.1187 80.2225 61.2301 80.3383 61.319C80.454 61.4078 80.5867 61.4721 80.7281 61.5081C80.9742 61.5414 81.2127 61.602 81.4626 61.6152C81.8356 61.6174 82.2037 61.5302 82.5362 61.3611C82.7453 61.2671 82.9307 61.1274 83.0786 60.9522C83.2266 60.777 83.3333 60.5709 83.391 60.349C83.4664 59.986 83.4625 59.611 83.3797 59.2496C83.2515 58.492 83.0768 57.7415 82.8819 56.9986C82.8024 56.7103 82.6117 56.4654 82.3516 56.3177C82.0916 56.17 81.7835 56.1317 81.4952 56.2112C81.2069 56.2907 80.962 56.4814 80.8144 56.7414C80.6667 57.0015 80.6284 57.3095 80.7079 57.5978L80.7098 57.5959Z" fill="#211715"/>
<path d="M68.2036 50.959C67.8109 52.235 68.0669 55.1698 70.4842 55.4206C73.6777 55.4013 73.8487 51.8513 72.7732 50.1845C71.8931 48.8178 69.3035 48.2496 68.2036 50.959Z" fill="#211715"/>
<path d="M93.7861 50.959C94.1787 52.235 93.9228 55.1698 91.506 55.4206C88.3124 55.4013 88.141 51.8513 89.2165 50.1845C90.097 48.8178 92.6857 48.2496 93.7861 50.959Z" fill="#211715"/>
<path d="M52.1596 45.6399C48.8894 46.2195 47.5322 50.6435 47.798 54.4124C48.0493 57.9817 48.9965 61.7943 52.1065 63.5958C53.3351 64.1528 55.1921 64.4309 56.2732 63.2629C57.3543 62.0949 57.5957 60.3483 57.6901 58.72C57.8563 55.8559 57.737 52.9824 57.3341 50.1419C57.1078 48.5494 56.7837 47.3809 55.5894 46.374C54.5411 45.4925 53.0871 45.4756 52.1596 45.6399Z" fill="white"/>
<path d="M51.86 44.5532C48.6523 45.1792 47.18 48.5922 46.7831 51.5039C46.5826 53.1972 46.6268 54.9105 46.9141 56.5911C47.1339 58.2572 47.6505 59.8705 48.4396 61.3543C49.2445 62.7989 50.5022 64.1848 52.0694 64.7935C53.6446 65.404 55.5819 65.404 56.896 64.2299C58.3152 62.9619 58.6609 60.8837 58.7933 59.0849C58.9442 56.9308 58.9258 54.7682 58.7384 52.617C58.5712 50.6182 58.5003 48.2117 57.2581 46.5318C55.9534 44.7669 53.9668 44.2085 51.86 44.5532C51.5729 44.6345 51.3294 44.8255 51.1821 45.085C51.0348 45.3444 50.9955 45.6514 51.0728 45.9396C51.1582 46.224 51.3499 46.4646 51.6082 46.6112C51.8664 46.7579 52.1713 46.7992 52.4592 46.7267C53.0267 46.61 53.6158 46.6613 54.1545 46.8743C54.6932 47.0874 55.1581 47.4529 55.4922 47.9262C56.2605 49.0815 56.3037 50.7196 56.4315 52.0534C56.6101 53.8935 56.6705 55.7432 56.6123 57.591C56.5653 59.0347 56.5738 60.7047 55.8172 61.9897C55.2067 63.0318 54.1687 63.0938 53.089 62.7665C51.9539 62.4222 51.0545 61.3721 50.4656 60.3596C49.1656 58.1245 48.7566 55.1817 48.9158 52.6302C48.9724 51.2943 49.3133 49.9859 49.9156 48.7922C50.1485 48.2736 50.4995 47.8166 50.9405 47.4578C51.3815 47.099 51.9003 46.8483 52.4555 46.7258C52.743 46.6452 52.9874 46.4547 53.1357 46.1955C53.284 45.9363 53.3244 45.6291 53.2482 45.3403C53.1635 45.0551 52.9716 44.8138 52.7127 44.667C52.4539 44.5202 52.1482 44.4794 51.86 44.5532Z" fill="#211715"/>
<defs>
<filter id="filter0_d_40_387" x="394" y="0" width="162" height="190" filterUnits="userSpaceOnUse" color-interpolation-filters="sRGB">
<feFlood flood-opacity="0" result="BackgroundImageFix"/>
<feColorMatrix in="SourceAlpha" type="matrix" values="0 0 0 0 0 0 0 0 0 0 0 0 0 0 0 0 0 0 127 0" result="hardAlpha"/>
<feOffset dy="4"/>
<feGaussianBlur stdDeviation="2"/>
<feComposite in2="hardAlpha" operator="out"/>
<feColorMatrix type="matrix" values="0 0 0 0 1 0 0 0 0 1 0 0 0 0 1 0 0 0 0.35 0"/>
<feBlend mode="normal" in2="BackgroundImageFix" result="effect1_dropShadow_40_387"/>
<feBlend mode="normal" in="SourceGraphic" in2="effect1_dropShadow_40_387" result="shape"/>
</filter>
<filter id="filter1_d_40_387" x="0" y="0" width="162" height="190" filterUnits="userSpaceOnUse" color-interpolation-filters="sRGB">
<feFlood flood-opacity="0" result="BackgroundImageFix"/>
<feColorMatrix in="SourceAlpha" type="matrix" values="0 0 0 0 0 0 0 0 0 0 0 0 0 0 0 0 0 0 127 0" result="hardAlpha"/>
<feOffset dy="4"/>
<feGaussianBlur stdDeviation="2"/>
<feComposite in2="hardAlpha" operator="out"/>
<feColorMatrix type="matrix" values="0 0 0 0 1 0 0 0 0 1 0 0 0 0 1 0 0 0 0.35 0"/>
<feBlend mode="normal" in2="BackgroundImageFix" result="effect1_dropShadow_40_387"/>
<feBlend mode="normal" in="SourceGraphic" in2="effect1_dropShadow_40_387" result="shape"/>
</filter>
<clipPath id="clip0_40_387">
<rect width="148" height="142" fill="white" transform="translate(401 22)"/>
</clipPath>
</defs>
</svg>
