<svg width="129" height="158" viewBox="0 0 129 158" fill="none" xmlns="http://www.w3.org/2000/svg">
<g clip-path="url(#clip0_25_86)">
<path fill-rule="evenodd" clip-rule="evenodd" d="M31.2062 0.146733H97.794C99.3712 0.14666 100.821 0.146586 102.038 0.229327C103.347 0.31823 104.785 0.520754 106.246 1.12385C109.403 2.42673 111.912 4.92568 113.22 8.07101C113.825 9.52705 114.028 10.9599 114.117 12.2629C114.2 13.4756 114.2 14.9194 114.2 16.4911V16.8106C114.2 18.3822 114.2 19.8262 114.117 21.0389C114.028 22.3419 113.825 23.7748 113.22 25.2309C111.912 28.3762 109.403 30.8752 106.246 32.178C104.946 32.7145 103.664 32.9341 102.476 33.0386L115.958 43.9113C124.161 50.5266 128.926 60.4782 128.926 70.9922V119.82C128.926 127.902 126.106 135.731 120.95 141.969L118.312 145.161C111.668 153.198 101.765 157.853 91.3139 157.853H41.6894C37.8702 157.854 35.4138 157.854 33.0421 157.53C26.0214 156.57 19.4591 153.508 14.2242 148.749C12.4558 147.142 10.8834 145.262 8.43887 142.339L8.17992 142.029C2.94209 135.767 0.0736084 127.874 0.0736084 119.724V71.0964C0.0736084 60.5119 4.90323 50.5013 13.1997 43.8893L26.7874 33.0601C25.5265 32.965 24.1509 32.7544 22.7539 32.178C19.5966 30.8752 17.0883 28.3762 15.7805 25.2309C15.1751 23.7748 14.9718 22.342 14.8825 21.0389C14.7994 19.8262 14.7996 18.3823 14.7996 16.8105V16.4914C14.7996 14.9196 14.7994 13.4757 14.8825 12.2629C14.9718 10.9599 15.1751 9.52705 15.7805 8.07101C17.0883 4.92568 19.5966 2.42673 22.7539 1.12385C24.2155 0.520754 25.6538 0.31823 26.9618 0.229327C28.179 0.146586 29.6287 0.14666 31.2062 0.146733ZM52.742 33.1551H76.5952C82.1373 33.1551 83.5967 33.228 84.8801 33.6808C86.1642 34.1336 87.3437 34.9913 91.6518 38.4655L109.009 52.4631C111.241 54.2635 113.101 56.425 114.532 58.8283H14.5299C15.9759 56.428 17.8516 54.2722 20.0991 52.481L37.7934 38.3791C42.082 34.9611 43.2559 34.1172 44.53 33.672C45.8041 33.2268 47.25 33.1551 52.742 33.1551ZM11.1518 69.831H117.854C117.872 70.2169 117.882 70.6042 117.882 70.9922V117.51H11.1181V71.0964C11.1181 70.6731 11.1294 70.2513 11.1518 69.831ZM12.8038 128.513H116.234C115.321 130.836 114.041 133.02 112.424 134.975L109.786 138.166C105.24 143.665 98.4648 146.851 91.3139 146.851H42.0938C37.7358 146.851 36.0759 146.839 34.5439 146.629C29.7403 145.973 25.2503 143.877 21.6686 140.621C20.5264 139.583 19.4544 138.32 16.6645 134.985C15.0293 133.03 13.7316 130.843 12.8038 128.513ZM97.6335 22.1523H78.7975C78.3277 22.1511 77.8469 22.1515 77.3551 22.1519H51.9895C51.5021 22.1515 51.0257 22.1511 50.5603 22.1523H31.3664C29.5755 22.1523 28.5088 22.1494 27.7136 22.0953C27.2216 22.0619 27.0124 22.0171 26.9583 22.0034C26.5251 21.818 26.1798 21.474 25.9936 21.0424C25.9799 20.9885 25.935 20.7802 25.9014 20.2899C25.8472 19.4977 25.8442 18.4351 25.8442 16.6509C25.8442 14.8668 25.8472 13.8042 25.9014 13.0119C25.935 12.5217 25.9799 12.3134 25.9936 12.2594C26.1798 11.8279 26.5251 11.4839 26.9583 11.2985C27.0124 11.2848 27.2216 11.24 27.7136 11.2066C28.5088 11.1525 29.5755 11.1495 31.3664 11.1495H97.6335C99.4242 11.1495 100.491 11.1525 101.286 11.2066C101.778 11.24 101.987 11.2848 102.042 11.2985C102.475 11.4839 102.82 11.8279 103.006 12.2594C103.02 12.3134 103.065 12.5217 103.098 13.0119C103.153 13.8042 103.156 14.8668 103.156 16.6509C103.156 18.4351 103.153 19.4977 103.098 20.2899C103.065 20.7801 103.02 20.9885 103.006 21.0424C102.82 21.474 102.475 21.818 102.042 22.0034C101.987 22.0171 101.778 22.0619 101.286 22.0953C100.491 22.1494 99.4242 22.1523 97.6335 22.1523Z" fill="#343A40"/>
<path d="M52.6493 76.4988H58.5993V78.1488H54.8593V79.0988H58.0593V80.6788H54.8593V81.7288H58.6693V83.3788H52.6493V76.4988ZM63.2061 77.9788C63.9194 77.9788 64.4694 78.2121 64.8561 78.6788C65.2428 79.1455 65.4361 79.8355 65.4361 80.7488C65.4361 81.6555 65.2428 82.3421 64.8561 82.8088C64.4694 83.2688 63.9194 83.4988 63.2061 83.4988C62.5928 83.4988 62.0994 83.2988 61.7261 82.8988V85.3488H59.7361V78.0988H61.3561L61.5261 78.8488C61.9128 78.2688 62.4728 77.9788 63.2061 77.9788ZM62.5861 79.4488C62.2928 79.4488 62.0728 79.5521 61.9261 79.7588C61.7794 79.9655 61.7061 80.2355 61.7061 80.5688V80.8988C61.7061 81.2321 61.7794 81.5055 61.9261 81.7188C62.0728 81.9255 62.2928 82.0288 62.5861 82.0288C63.1594 82.0288 63.4461 81.6855 63.4461 80.9988V80.4688C63.4461 79.7888 63.1594 79.4488 62.5861 79.4488ZM68.906 77.9788C69.6127 77.9788 70.2094 78.1188 70.696 78.3988C71.1894 78.6721 71.436 79.0988 71.436 79.6788H69.586C69.586 79.4855 69.4994 79.3488 69.326 79.2688C69.206 79.2021 69.056 79.1688 68.876 79.1688C68.396 79.1688 68.156 79.2821 68.156 79.5088C68.156 79.6355 68.2394 79.7255 68.406 79.7788C68.5727 79.8321 68.846 79.8888 69.226 79.9488C69.6927 80.0155 70.0827 80.0955 70.396 80.1888C70.7094 80.2755 70.9827 80.4355 71.216 80.6688C71.4494 80.8955 71.566 81.2155 71.566 81.6288C71.566 82.3021 71.3127 82.7821 70.806 83.0688C70.306 83.3555 69.6494 83.4988 68.836 83.4988C68.3694 83.4988 67.9294 83.4355 67.516 83.3088C67.1027 83.1755 66.766 82.9721 66.506 82.6988C66.246 82.4255 66.116 82.0788 66.116 81.6588H67.966V81.6988C67.9727 81.9255 68.066 82.0855 68.246 82.1788C68.4327 82.2655 68.6294 82.3088 68.836 82.3088C69.3894 82.3088 69.666 82.1788 69.666 81.9188C69.666 81.7855 69.5794 81.6888 69.406 81.6288C69.2327 81.5688 68.9494 81.5055 68.556 81.4388C68.0827 81.3588 67.6927 81.2721 67.386 81.1788C67.086 81.0855 66.8227 80.9288 66.596 80.7088C66.3694 80.4821 66.256 80.1688 66.256 79.7688C66.256 79.1221 66.4994 78.6621 66.986 78.3888C67.4794 78.1155 68.1194 77.9788 68.906 77.9788ZM72.5793 77.4788V76.1288H74.5693V77.4788H72.5793ZM72.5793 83.3788V78.0988H74.5693V83.3788H72.5793ZM75.9094 83.3788V76.1288H77.8994V83.3788H75.9094ZM81.8995 77.9788C82.8261 77.9788 83.5528 78.2155 84.0795 78.6888C84.6128 79.1555 84.8795 79.8388 84.8795 80.7388C84.8795 81.6388 84.6128 82.3255 84.0795 82.7988C83.5528 83.2655 82.8261 83.4988 81.8995 83.4988C80.9728 83.4988 80.2461 83.2655 79.7195 82.7988C79.1928 82.3321 78.9295 81.6455 78.9295 80.7388C78.9295 79.8321 79.1928 79.1455 79.7195 78.6788C80.2461 78.2121 80.9728 77.9788 81.8995 77.9788ZM81.8995 79.3288C81.2461 79.3288 80.9195 79.7055 80.9195 80.4588V81.0288C80.9195 81.7755 81.2461 82.1488 81.8995 82.1488C82.5595 82.1488 82.8895 81.7755 82.8895 81.0288V80.4588C82.8895 79.7055 82.5595 79.3288 81.8995 79.3288ZM89.4794 77.9788C90.0927 77.9788 90.5527 78.1488 90.8594 78.4888C91.166 78.8288 91.3194 79.3188 91.3194 79.9588V83.3788H89.3294V80.1988C89.3294 79.9721 89.2694 79.7921 89.1494 79.6588C89.036 79.5188 88.8727 79.4488 88.6594 79.4488C88.4127 79.4488 88.2127 79.5288 88.0594 79.6888C87.906 79.8488 87.8294 80.0455 87.8294 80.2788V83.3788H85.8394V78.0988H87.4694L87.5994 78.8988C87.806 78.6188 88.076 78.3955 88.4094 78.2288C88.7494 78.0621 89.106 77.9788 89.4794 77.9788Z" fill="white"/>
<rect x="51.9093" y="89.1226" width="61.8493" height="3.52089" rx="1.76045" fill="#777777"/>
<rect x="51.9093" y="93.7438" width="61.8493" height="3.52089" rx="1.76045" fill="#777777"/>
<rect x="51.9093" y="98.365" width="61.8493" height="3.52089" rx="1.76045" fill="#777777"/>
<rect x="51.9093" y="102.986" width="61.8493" height="3.52089" rx="1.76045" fill="#777777"/>
<rect x="51.9093" y="107.607" width="61.8493" height="3.52089" rx="1.76045" fill="#777777"/>
<g clip-path="url(#clip1_25_86)">
<g clip-path="url(#clip2_25_86)">
<path d="M42.9016 80.0745C42.5062 79.8649 39.3434 82.3482 32.044 84.0863C28.4969 84.9309 18.6621 87.8117 18.8254 102.122L15 104.418L16.1917 106.547C19.8874 104.114 30.0206 99.3683 40.2014 87.1938C40.2014 87.1938 38.6267 95.2324 20.6255 105.796C26.7008 109.011 35.2507 109.011 41.7766 101.202C48.3015 93.3949 42.9016 80.0745 42.9016 80.0745Z" fill="#52B69A"/>
</g>
</g>
</g>
<defs>
<clipPath id="clip0_25_86">
<rect width="129" height="158" fill="white"/>
</clipPath>
<clipPath id="clip1_25_86">
<rect width="30.0411" height="27.507" fill="white" transform="translate(15.0205 80.1003)"/>
</clipPath>
<clipPath id="clip2_25_86">
<rect width="30" height="28" fill="white" transform="translate(15 80)"/>
</clipPath>
</defs>
</svg>
