<svg width="603" height="753" viewBox="0 0 603 753" fill="none" xmlns="http://www.w3.org/2000/svg">
<g clip-path="url(#clip0_1_2)">
<rect x="71" width="463" height="98" rx="44" fill="#34A0A4"/>
<path d="M593.432 261.22L536.247 155.061C522.291 129.154 495.241 113 465.815 113H133.178C103.017 113 75.4188 129.964 61.799 156.875L8.62085 261.949C2.95319 273.148 0 285.523 0 298.074V673C0 717.183 35.8172 753 80 753H523C567.183 753 603 717.183 603 673V299.159C603 285.916 599.712 272.88 593.432 261.22Z" fill="#34A0A4"/>
<g clip-path="url(#clip1_1_2)">
<path d="M435.177 292.127C431.065 289.992 398.171 315.296 322.257 333.007C285.368 341.613 183.086 370.968 184.784 516.784L145 540.186L157.393 561.879C195.829 537.082 301.215 488.728 407.095 364.672C407.095 364.672 390.718 446.584 203.505 554.222C266.688 586.981 355.607 586.981 423.476 507.418C491.336 427.86 435.177 292.127 435.177 292.127Z" fill="#52B69A"/>
</g>
</g>
<defs>
<clipPath id="clip0_1_2">
<rect width="603" height="753" fill="white"/>
</clipPath>
<clipPath id="clip1_1_2">
<rect width="312" height="312" fill="white" transform="translate(145 277)"/>
</clipPath>
</defs>
</svg>
