<svg width="59" height="42" viewBox="0 0 59 42" fill="none" xmlns="http://www.w3.org/2000/svg">
<g clip-path="url(#clip0_27_139)">
<path d="M42.1237 41.1564C41.6179 41.7038 40.9405 42.0067 40.2373 41.9999C39.5341 41.993 38.8615 41.677 38.3643 41.1198C37.867 40.5626 37.585 39.8088 37.5789 39.0208C37.5728 38.2329 37.8431 37.4737 38.3316 36.9069L49.8448 24.0053H2.68184C1.97057 24.0053 1.28844 23.6886 0.785494 23.125C0.282551 22.5615 0 21.797 0 21C0 20.203 0.282551 19.4385 0.785494 18.8749C1.28844 18.3114 1.97057 17.9947 2.68184 17.9947H49.8448L38.3316 5.09308C37.8431 4.52627 37.5728 3.76714 37.5789 2.97916C37.585 2.19119 37.867 1.43743 38.3643 0.880226C38.8615 0.323023 39.5341 0.00696088 40.2373 0.000113607C40.9405 -0.00673367 41.6179 0.296182 42.1237 0.843618L58.2148 18.8753C58.7176 19.4388 59 20.2031 59 21C59 21.7969 58.7176 22.5612 58.2148 23.1247L42.1237 41.1564Z" fill="white"/>
</g>
<defs>
<clipPath id="clip0_27_139">
<rect width="59" height="42" fill="white"/>
</clipPath>
</defs>
</svg>
