<svg width="129" height="158" viewBox="0 0 129 158" fill="none" xmlns="http://www.w3.org/2000/svg">
<g clip-path="url(#clip0_23_13)">
<path fill-rule="evenodd" clip-rule="evenodd" d="M31.2062 0.146733H97.794C99.3712 0.14666 100.821 0.146586 102.038 0.229327C103.347 0.31823 104.785 0.520754 106.246 1.12385C109.403 2.42673 111.912 4.92568 113.22 8.07101C113.825 9.52705 114.028 10.9599 114.117 12.2629C114.2 13.4756 114.2 14.9194 114.2 16.4911V16.8106C114.2 18.3822 114.2 19.8262 114.117 21.0389C114.028 22.3419 113.825 23.7748 113.22 25.2309C111.912 28.3762 109.403 30.8752 106.246 32.178C104.946 32.7145 103.664 32.9341 102.476 33.0386L115.958 43.9113C124.161 50.5266 128.926 60.4782 128.926 70.9922V119.82C128.926 127.902 126.106 135.731 120.95 141.969L118.312 145.161C111.668 153.198 101.765 157.853 91.3139 157.853H41.6894C37.8702 157.854 35.4138 157.854 33.0421 157.53C26.0214 156.57 19.4591 153.508 14.2242 148.749C12.4558 147.142 10.8834 145.262 8.43887 142.339L8.17992 142.029C2.94209 135.767 0.0736084 127.874 0.0736084 119.724V71.0964C0.0736084 60.5119 4.90323 50.5013 13.1997 43.8893L26.7874 33.0601C25.5265 32.965 24.1509 32.7544 22.7539 32.178C19.5966 30.8752 17.0883 28.3762 15.7805 25.2309C15.1751 23.7748 14.9718 22.342 14.8825 21.0389C14.7994 19.8262 14.7996 18.3823 14.7996 16.8105V16.4914C14.7996 14.9196 14.7994 13.4757 14.8825 12.2629C14.9718 10.9599 15.1751 9.52705 15.7805 8.07101C17.0883 4.92568 19.5966 2.42673 22.7539 1.12385C24.2155 0.520754 25.6538 0.31823 26.9618 0.229327C28.179 0.146586 29.6287 0.14666 31.2062 0.146733ZM52.742 33.1551H76.5952C82.1373 33.1551 83.5967 33.228 84.8801 33.6808C86.1642 34.1336 87.3437 34.9913 91.6518 38.4655L109.009 52.4631C111.241 54.2635 113.101 56.425 114.532 58.8283H14.5299C15.9759 56.428 17.8516 54.2722 20.0991 52.481L37.7934 38.3791C42.082 34.9611 43.2559 34.1172 44.53 33.672C45.8041 33.2268 47.25 33.1551 52.742 33.1551ZM11.1518 69.831H117.854C117.872 70.2169 117.882 70.6042 117.882 70.9922V117.51H11.1181V71.0964C11.1181 70.6731 11.1294 70.2513 11.1518 69.831ZM12.8038 128.513H116.234C115.321 130.836 114.041 133.02 112.424 134.975L109.786 138.166C105.24 143.665 98.4648 146.851 91.3139 146.851H42.0938C37.7358 146.851 36.0759 146.839 34.5439 146.629C29.7403 145.973 25.2503 143.877 21.6686 140.621C20.5264 139.583 19.4544 138.32 16.6645 134.985C15.0293 133.03 13.7316 130.843 12.8038 128.513ZM97.6335 22.1523H78.7975C78.3277 22.1511 77.8469 22.1515 77.3551 22.1519H51.9895C51.5021 22.1515 51.0257 22.1511 50.5603 22.1523H31.3664C29.5755 22.1523 28.5088 22.1494 27.7136 22.0953C27.2216 22.0619 27.0124 22.0171 26.9583 22.0034C26.5251 21.818 26.1798 21.474 25.9936 21.0424C25.9799 20.9885 25.935 20.7802 25.9014 20.2899C25.8472 19.4977 25.8442 18.4351 25.8442 16.6509C25.8442 14.8668 25.8472 13.8042 25.9014 13.0119C25.935 12.5217 25.9799 12.3134 25.9936 12.2594C26.1798 11.8279 26.5251 11.4839 26.9583 11.2985C27.0124 11.2848 27.2216 11.24 27.7136 11.2066C28.5088 11.1525 29.5755 11.1495 31.3664 11.1495H97.6335C99.4242 11.1495 100.491 11.1525 101.286 11.2066C101.778 11.24 101.987 11.2848 102.042 11.2985C102.475 11.4839 102.82 11.8279 103.006 12.2594C103.02 12.3134 103.065 12.5217 103.098 13.0119C103.153 13.8042 103.156 14.8668 103.156 16.6509C103.156 18.4351 103.153 19.4977 103.098 20.2899C103.065 20.7801 103.02 20.9885 103.006 21.0424C102.82 21.474 102.475 21.818 102.042 22.0034C101.987 22.0171 101.778 22.0619 101.286 22.0953C100.491 22.1494 99.4242 22.1523 97.6335 22.1523Z" fill="#5A189A"/>
<path fill-rule="evenodd" clip-rule="evenodd" d="M31.2062 0.146733H97.794C99.3712 0.14666 100.821 0.146586 102.038 0.229327C103.347 0.31823 104.785 0.520754 106.246 1.12385C109.403 2.42673 111.912 4.92568 113.22 8.07101C113.825 9.52705 114.028 10.9599 114.117 12.2629C114.2 13.4756 114.2 14.9194 114.2 16.4911V16.8106C114.2 18.3822 114.2 19.8262 114.117 21.0389C114.028 22.3419 113.825 23.7748 113.22 25.2309C111.912 28.3762 109.403 30.8752 106.246 32.178C104.946 32.7145 103.664 32.9341 102.476 33.0386L115.958 43.9113C124.161 50.5266 128.926 60.4782 128.926 70.9922V119.82C128.926 127.902 126.106 135.731 120.95 141.969L118.312 145.161C111.668 153.198 101.765 157.853 91.3139 157.853H41.6894C37.8702 157.854 35.4138 157.854 33.0421 157.53C26.0214 156.57 19.4591 153.508 14.2242 148.749C12.4558 147.142 10.8834 145.262 8.43887 142.339L8.17992 142.029C2.94209 135.767 0.0736084 127.874 0.0736084 119.724V71.0964C0.0736084 60.5119 4.90323 50.5013 13.1997 43.8893L26.7874 33.0601C25.5265 32.965 24.1509 32.7544 22.7539 32.178C19.5966 30.8752 17.0883 28.3762 15.7805 25.2309C15.1751 23.7748 14.9718 22.342 14.8825 21.0389C14.7994 19.8262 14.7996 18.3823 14.7996 16.8105V16.4914C14.7996 14.9196 14.7994 13.4757 14.8825 12.2629C14.9718 10.9599 15.1751 9.52705 15.7805 8.07101C17.0883 4.92568 19.5966 2.42673 22.7539 1.12385C24.2155 0.520754 25.6538 0.31823 26.9618 0.229327C28.179 0.146586 29.6287 0.14666 31.2062 0.146733ZM52.742 33.1551H76.5952C82.1373 33.1551 83.5967 33.228 84.8801 33.6808C86.1642 34.1336 87.3437 34.9913 91.6518 38.4655L109.009 52.4631C111.241 54.2635 113.101 56.425 114.532 58.8283H14.5299C15.9759 56.428 17.8516 54.2722 20.0991 52.481L37.7934 38.3791C42.082 34.9611 43.2559 34.1172 44.53 33.672C45.8041 33.2268 47.25 33.1551 52.742 33.1551ZM11.1518 69.831H117.854C117.872 70.2169 117.882 70.6042 117.882 70.9922V117.51H11.1181V71.0964C11.1181 70.6731 11.1294 70.2513 11.1518 69.831ZM12.8038 128.513H116.234C115.321 130.836 114.041 133.02 112.424 134.975L109.786 138.166C105.24 143.665 98.4648 146.851 91.3139 146.851H42.0938C37.7358 146.851 36.0759 146.839 34.5439 146.629C29.7403 145.973 25.2503 143.877 21.6686 140.621C20.5264 139.583 19.4544 138.32 16.6645 134.985C15.0293 133.03 13.7316 130.843 12.8038 128.513ZM97.6335 22.1523H78.7975C78.3277 22.1511 77.8469 22.1515 77.3551 22.1519H51.9895C51.5021 22.1515 51.0257 22.1511 50.5603 22.1523H31.3664C29.5755 22.1523 28.5088 22.1494 27.7136 22.0953C27.2216 22.0619 27.0124 22.0171 26.9583 22.0034C26.5251 21.818 26.1798 21.474 25.9936 21.0424C25.9799 20.9885 25.935 20.7802 25.9014 20.2899C25.8472 19.4977 25.8442 18.4351 25.8442 16.6509C25.8442 14.8668 25.8472 13.8042 25.9014 13.0119C25.935 12.5217 25.9799 12.3134 25.9936 12.2594C26.1798 11.8279 26.5251 11.4839 26.9583 11.2985C27.0124 11.2848 27.2216 11.24 27.7136 11.2066C28.5088 11.1525 29.5755 11.1495 31.3664 11.1495H97.6335C99.4242 11.1495 100.491 11.1525 101.286 11.2066C101.778 11.24 101.987 11.2848 102.042 11.2985C102.475 11.4839 102.82 11.8279 103.006 12.2594C103.02 12.3134 103.065 12.5217 103.098 13.0119C103.153 13.8042 103.156 14.8668 103.156 16.6509C103.156 18.4351 103.153 19.4977 103.098 20.2899C103.065 20.7801 103.02 20.9885 103.006 21.0424C102.82 21.474 102.475 21.818 102.042 22.0034C101.987 22.0171 101.778 22.0619 101.286 22.0953C100.491 22.1494 99.4242 22.1523 97.6335 22.1523Z" fill="#C77DFF" fill-opacity="0.2"/>
<path d="M55.5393 76.3788C56.4193 76.3788 57.1426 76.5588 57.7093 76.9188C58.276 77.2721 58.566 77.7988 58.5793 78.4988V78.6188H56.5093V78.5788C56.5093 78.3788 56.436 78.2121 56.2893 78.0788C56.1426 77.9455 55.9193 77.8788 55.6193 77.8788C55.326 77.8788 55.0993 77.9221 54.9393 78.0088C54.786 78.0955 54.7093 78.2021 54.7093 78.3288C54.7093 78.5088 54.816 78.6421 55.0293 78.7288C55.2426 78.8155 55.586 78.9055 56.0593 78.9988C56.6126 79.1121 57.066 79.2321 57.4193 79.3588C57.7793 79.4788 58.0926 79.6788 58.3593 79.9588C58.626 80.2388 58.7626 80.6188 58.7693 81.0988C58.7693 81.9121 58.4926 82.5155 57.9393 82.9088C57.3926 83.3021 56.6593 83.4988 55.7393 83.4988C54.666 83.4988 53.8293 83.3188 53.2293 82.9588C52.636 82.5988 52.3393 81.9621 52.3393 81.0488H54.4293C54.4293 81.3955 54.5193 81.6288 54.6993 81.7488C54.8793 81.8621 55.1593 81.9188 55.5393 81.9188C55.8193 81.9188 56.0493 81.8888 56.2293 81.8288C56.416 81.7688 56.5093 81.6455 56.5093 81.4588C56.5093 81.2921 56.406 81.1688 56.1993 81.0888C55.9993 81.0021 55.6693 80.9121 55.2093 80.8188C54.6493 80.6988 54.186 80.5755 53.8193 80.4488C53.4526 80.3155 53.1326 80.0988 52.8593 79.7988C52.586 79.4988 52.4493 79.0921 52.4493 78.5788C52.4493 77.8255 52.7393 77.2721 53.3193 76.9188C53.906 76.5588 54.646 76.3788 55.5393 76.3788ZM62.4561 77.9788C63.3828 77.9788 64.1094 78.2155 64.6361 78.6888C65.1694 79.1555 65.4361 79.8388 65.4361 80.7388C65.4361 81.6388 65.1694 82.3255 64.6361 82.7988C64.1094 83.2655 63.3828 83.4988 62.4561 83.4988C61.5294 83.4988 60.8028 83.2655 60.2761 82.7988C59.7494 82.3321 59.4861 81.6455 59.4861 80.7388C59.4861 79.8321 59.7494 79.1455 60.2761 78.6788C60.8028 78.2121 61.5294 77.9788 62.4561 77.9788ZM62.4561 79.3288C61.8028 79.3288 61.4761 79.7055 61.4761 80.4588V81.0288C61.4761 81.7755 61.8028 82.1488 62.4561 82.1488C63.1161 82.1488 63.4461 81.7755 63.4461 81.0288V80.4588C63.4461 79.7055 63.1161 79.3288 62.4561 79.3288ZM70.226 83.3788L70.096 82.5788C69.8894 82.8655 69.616 83.0921 69.276 83.2588C68.9427 83.4188 68.5894 83.4988 68.216 83.4988C67.6027 83.4988 67.1427 83.3288 66.836 82.9888C66.5294 82.6488 66.376 82.1588 66.376 81.5188V78.0988H68.366V81.2788C68.366 81.5055 68.4227 81.6888 68.536 81.8288C68.656 81.9621 68.8227 82.0288 69.036 82.0288C69.2827 82.0288 69.4827 81.9488 69.636 81.7888C69.7894 81.6288 69.866 81.4321 69.866 81.1988V78.0988H71.856V83.3788H70.226ZM73.1359 83.3788V76.1288H75.1259V83.3788H73.1359ZM84.4461 76.4988C84.7928 76.4988 85.1094 76.5721 85.3961 76.7188C85.6894 76.8588 85.9194 77.0588 86.0861 77.3188C86.2594 77.5788 86.3461 77.8688 86.3461 78.1888C86.3461 79.0355 85.9628 79.5688 85.1961 79.7888V79.8288C86.0694 80.0288 86.5061 80.6021 86.5061 81.5488C86.5061 81.9088 86.4161 82.2288 86.2361 82.5088C86.0628 82.7821 85.8228 82.9955 85.5161 83.1488C85.2094 83.3021 84.8728 83.3788 84.5061 83.3788H79.8661V76.4988H84.4461ZM82.0761 79.1788H83.5961C83.7428 79.1788 83.8628 79.1288 83.9561 79.0288C84.0561 78.9221 84.1061 78.7921 84.1061 78.6388V78.5388C84.1061 78.3921 84.0561 78.2688 83.9561 78.1688C83.8561 78.0621 83.7361 78.0088 83.5961 78.0088H82.0761V79.1788ZM82.0761 81.7788H83.7561C83.9028 81.7788 84.0228 81.7288 84.1161 81.6288C84.2161 81.5221 84.2661 81.3921 84.2661 81.2388V81.1388C84.2661 80.9855 84.2161 80.8588 84.1161 80.7588C84.0228 80.6521 83.9028 80.5988 83.7561 80.5988H82.0761V81.7788ZM87.5793 83.3788V76.1288H89.5693V83.3788H87.5793ZM93.5694 77.9788C94.536 77.9788 95.2727 78.2055 95.7794 78.6588C96.2927 79.1121 96.5494 79.8055 96.5494 80.7388V81.0788H92.5894C92.5894 81.4588 92.6727 81.7455 92.8394 81.9388C93.0127 82.1321 93.2827 82.2288 93.6494 82.2288C93.9827 82.2288 94.226 82.1588 94.3794 82.0188C94.5394 81.8788 94.6194 81.6921 94.6194 81.4588H96.5494C96.5494 82.0988 96.306 82.5988 95.8194 82.9588C95.3327 83.3188 94.6227 83.4988 93.6894 83.4988C92.7094 83.4988 91.9494 83.2721 91.4094 82.8188C90.8694 82.3588 90.5994 81.6655 90.5994 80.7388C90.5994 79.8321 90.8627 79.1455 91.3894 78.6788C91.916 78.2121 92.6427 77.9788 93.5694 77.9788ZM93.6494 79.2488C93.0227 79.2488 92.6727 79.5455 92.5994 80.1388H94.5394C94.5394 79.8655 94.4594 79.6488 94.2994 79.4888C94.146 79.3288 93.9294 79.2488 93.6494 79.2488ZM101.149 77.9788C101.763 77.9788 102.223 78.1488 102.529 78.4888C102.836 78.8288 102.989 79.3188 102.989 79.9588V83.3788H100.999V80.1988C100.999 79.9721 100.939 79.7921 100.819 79.6588C100.706 79.5188 100.543 79.4488 100.329 79.4488C100.083 79.4488 99.8826 79.5288 99.7293 79.6888C99.576 79.8488 99.4993 80.0455 99.4993 80.2788V83.3788H97.5093V78.0988H99.1393L99.2693 78.8988C99.476 78.6188 99.746 78.3955 100.079 78.2288C100.419 78.0621 100.776 77.9788 101.149 77.9788ZM108.019 83.3788L107.849 82.6288C107.463 83.2088 106.903 83.4988 106.169 83.4988C105.456 83.4988 104.906 83.2655 104.519 82.7988C104.133 82.3321 103.939 81.6421 103.939 80.7288C103.939 79.8221 104.133 79.1388 104.519 78.6788C104.906 78.2121 105.456 77.9788 106.169 77.9788C106.776 77.9788 107.269 78.1821 107.649 78.5888V76.1288H109.639V83.3788H108.019ZM106.789 79.4488C106.216 79.4488 105.929 79.7921 105.929 80.4788V81.0088C105.929 81.6888 106.216 82.0288 106.789 82.0288C107.083 82.0288 107.303 81.9255 107.449 81.7188C107.596 81.5121 107.669 81.2421 107.669 80.9088V80.5788C107.669 80.2455 107.596 79.9755 107.449 79.7688C107.303 79.5555 107.083 79.4488 106.789 79.4488Z" fill="white"/>
<rect x="51.9093" y="89.1226" width="61.8493" height="3.52089" rx="1.76045" fill="#777777"/>
<rect x="51.9093" y="93.7438" width="61.8493" height="3.52089" rx="1.76045" fill="#777777"/>
<rect x="51.9093" y="98.3649" width="61.8493" height="3.52089" rx="1.76045" fill="#777777"/>
<rect x="51.9093" y="102.986" width="61.8493" height="3.52089" rx="1.76045" fill="#777777"/>
<rect x="51.9093" y="107.607" width="61.8493" height="3.52089" rx="1.76045" fill="#777777"/>
<g clip-path="url(#clip1_23_13)">
<g clip-path="url(#clip2_23_13)">
<path d="M42.9016 80.0745C42.5062 79.8649 39.3434 82.3482 32.044 84.0863C28.4969 84.9309 18.6621 87.8117 18.8254 102.122L15 104.418L16.1917 106.547C19.8874 104.114 30.0206 99.3683 40.2014 87.1938C40.2014 87.1938 38.6267 95.2324 20.6255 105.796C26.7008 109.011 35.2507 109.011 41.7766 101.202C48.3015 93.3949 42.9016 80.0745 42.9016 80.0745Z" fill="#52B69A"/>
</g>
</g>
</g>
<defs>
<clipPath id="clip0_23_13">
<rect width="129" height="158" fill="white"/>
</clipPath>
<clipPath id="clip1_23_13">
<rect width="30.0411" height="27.507" fill="white" transform="translate(15.0205 80.1003)"/>
</clipPath>
<clipPath id="clip2_23_13">
<rect width="30" height="28" fill="white" transform="translate(15 80)"/>
</clipPath>
</defs>
</svg>
