<?xml version="1.0" encoding="UTF-8"?>
<!DOCTYPE svg PUBLIC "-//W3C//DTD SVG 1.1//EN" "http://www.w3.org/Graphics/SVG/1.1/DTD/svg11.dtd">
<svg xmlns="http://www.w3.org/2000/svg" version="1.1" width="1370px" height="255px" style="shape-rendering:geometricPrecision; text-rendering:geometricPrecision; image-rendering:optimizeQuality; fill-rule:evenodd; clip-rule:evenodd" xmlns:xlink="http://www.w3.org/1999/xlink">
<g><path style="opacity:0.983" fill="#fefffe" d="M -0.5,-0.5 C 44.1667,-0.5 88.8333,-0.5 133.5,-0.5C 178.056,2.02268 213.222,21.356 239,57.5C 255.705,88.801 260.038,121.801 252,156.5C 237.871,203.625 206.705,232.458 158.5,243C 145.993,245.786 133.326,247.12 120.5,247C 80.168,247.5 39.8347,247.667 -0.5,247.5C -0.5,164.833 -0.5,82.1667 -0.5,-0.5 Z M 72.5,55.5 C 92.8891,55.1005 113.222,55.9339 133.5,58C 165.845,67.0191 182.512,88.3524 183.5,122C 183.409,157.896 166.076,180.229 131.5,189C 111.503,189.5 91.5028,189.667 71.5,189.5C 71.5974,160.162 71.264,130.829 70.5,101.5C 70.5042,86.0775 71.1708,70.7441 72.5,55.5 Z"/></g>
<g><path style="opacity:0.984" fill="#fefffe" d="M 291.5,-0.5 C 315.167,-0.5 338.833,-0.5 362.5,-0.5C 362.5,81.8333 362.5,164.167 362.5,246.5C 338.833,246.5 315.167,246.5 291.5,246.5C 291.5,164.167 291.5,81.8333 291.5,-0.5 Z"/></g>
<g><path style="opacity:0.982" fill="#fefffe" d="M 383.5,-0.5 C 408.5,-0.5 433.5,-0.5 458.5,-0.5C 479.528,51.918 501.528,103.918 524.5,155.5C 547.368,103.553 570.035,51.5534 592.5,-0.5C 615.167,-0.5 637.833,-0.5 660.5,-0.5C 660.804,0.14987 661.137,0.816537 661.5,1.5C 627.349,83.4533 592.515,165.12 557,246.5C 545.24,247.162 533.407,247.495 521.5,247.5C 509.593,247.495 497.76,247.162 486,246.5C 451.11,165.163 416.61,83.6633 382.5,2C 382.743,1.09789 383.077,0.264561 383.5,-0.5 Z"/></g>
<g><path style="opacity:0.983" fill="#fefffe" d="M 671.5,-0.5 C 723.167,-0.5 774.833,-0.5 826.5,-0.5C 826.928,60.8468 826.428,122.18 825,183.5C 818.173,220.994 796.006,243.161 758.5,250C 727.001,255.643 697.001,251.31 668.5,237C 659.431,231.102 651.431,223.935 644.5,215.5C 656.1,199.734 668.934,185.068 683,171.5C 690.535,178.034 698.368,184.201 706.5,190C 718.391,195.513 730.391,195.847 742.5,191C 750.436,186.056 754.602,178.889 755,169.5C 755.845,131.17 756.345,92.8371 756.5,54.5C 728.831,54.6666 701.165,54.5 673.5,54C 673,53.5 672.5,53 672,52.5C 671.5,34.8365 671.333,17.1698 671.5,-0.5 Z"/></g>
<g><path style="opacity:0.983" fill="#fefffe" d="M 954.5,-0.5 C 984.167,-0.5 1013.83,-0.5 1043.5,-0.5C 1083.86,12.358 1112.36,38.358 1129,77.5C 1144.6,125.158 1136.93,168.491 1106,207.5C 1077.37,237.337 1042.2,252.337 1000.5,252.5C 950.327,253.162 910.494,233.496 881,193.5C 862.955,163.888 856.955,131.888 863,97.5C 871.392,58.1949 893.225,29.0282 928.5,10C 937.369,6.7231 946.035,3.2231 954.5,-0.5 Z M 993.5,52.5 C 1032.67,53.5039 1056.17,73.1706 1064,111.5C 1067.97,153.759 1049.8,181.259 1009.5,194C 980.614,196.474 958.114,185.641 942,161.5C 932.261,139.37 930.927,116.703 938,93.5C 949.015,69.646 967.515,55.9793 993.5,52.5 Z"/></g>
<g><path style="opacity:0.988" fill="#fefffe" d="M 1146.5,-0.5 C 1219.5,-0.5 1292.5,-0.5 1365.5,-0.5C 1366.21,0.403972 1367.21,0.737305 1368.5,0.5C 1368.26,1.79105 1368.6,2.79105 1369.5,3.5C 1369.5,18.1667 1369.5,32.8333 1369.5,47.5C 1368.99,49.8422 1367.99,52.0088 1366.5,54C 1342.18,55.0604 1317.84,55.5604 1293.5,55.5C 1293.03,119.184 1292.7,182.85 1292.5,246.5C 1269.17,247.106 1245.84,247.439 1222.5,247.5C 1221.72,183.477 1220.72,119.477 1219.5,55.5C 1195.17,54.7694 1170.84,54.436 1146.5,54.5C 1146.5,36.1667 1146.5,17.8333 1146.5,-0.5 Z"/></g>
</svg>
