<?xml version="1.0" standalone="no"?>
<!DOCTYPE svg PUBLIC "-//W3C//DTD SVG 20010904//EN"
 "http://www.w3.org/TR/2001/REC-SVG-20010904/DTD/svg10.dtd">
<svg version="1.0" xmlns="http://www.w3.org/2000/svg"
 width="1108.000000pt" height="247.000000pt" viewBox="0 0 1108.000000 247.000000"
 preserveAspectRatio="xMidYMid meet">

<g transform="translate(0.000000,247.000000) scale(0.100000,-0.100000)"
fill="#fff" stroke="none">
<path d="M7665 2215 c-66 -23 -140 -52 -165 -64 -133 -69 -300 -218 -374 -333
-120 -188 -166 -344 -166 -559 0 -293 89 -517 284 -717 240 -247 588 -356 986
-309 586 70 981 550 922 1120 -7 62 -21 145 -32 185 -81 290 -318 546 -614
661 -145 57 -193 63 -475 60 l-246 -2 -120 -42z m541 -421 c106 -30 165 -66
236 -143 100 -108 148 -239 148 -402 0 -112 -13 -176 -56 -266 -62 -130 -172
-228 -309 -273 -39 -13 -72 -26 -75 -29 -3 -3 -35 -7 -72 -8 -64 -3 -214 26
-227 44 -3 4 -28 19 -55 33 -63 31 -163 131 -198 195 -90 168 -92 430 -4 603
44 87 153 185 246 222 136 54 240 61 366 24z"/>
<path d="M2428 2240 l-23 -6 0 -984 0 -985 280 0 280 0 0 985 0 985 -257 5
c-141 3 -267 3 -280 0z"/>
<path d="M4842 2242 c-26 -3 -36 -10 -47 -35 -8 -18 -48 -111 -88 -207 -70
-165 -266 -625 -382 -898 -29 -68 -56 -124 -61 -125 -5 -1 -37 66 -71 148 -35
83 -76 182 -93 220 -16 39 -97 234 -180 435 -84 201 -161 386 -172 413 l-20
47 -299 0 c-257 0 -299 -2 -299 -15 0 -12 135 -338 195 -470 8 -16 60 -138
116 -270 56 -132 144 -339 196 -460 53 -121 103 -240 113 -265 10 -25 54 -130
100 -235 45 -104 89 -207 98 -227 l16 -38 277 0 278 0 21 48 c12 26 60 137
107 247 47 110 100 234 118 275 18 41 66 152 105 245 40 94 87 204 105 245 18
41 66 152 105 245 40 94 87 204 105 245 112 254 176 413 168 421 -8 8 -443 17
-511 11z"/>
<path d="M63 1948 c4 -161 7 -607 7 -990 l0 -698 533 0 c416 0 553 3 627 15
321 49 579 200 724 423 104 161 146 297 153 508 6 156 -8 266 -51 391 -107
315 -386 541 -766 619 -74 16 -159 19 -659 22 l-574 3 6 -293z m1085 -174 c98
-22 170 -61 242 -134 111 -111 155 -236 148 -420 -11 -257 -149 -435 -385
-495 -50 -12 -108 -15 -290 -13 l-228 3 -3 534 c-2 421 0 536 10 543 20 13
434 -2 506 -18z"/>
<path d="M5447 2233 c-4 -3 -7 -100 -7 -214 0 -206 0 -207 23 -213 12 -3 165
-6 340 -6 l317 0 0 -464 c0 -531 -1 -536 -76 -606 -52 -48 -107 -64 -196 -57
-87 7 -155 42 -239 123 -36 35 -70 64 -76 64 -14 0 -303 -333 -303 -349 0 -12
110 -114 162 -149 121 -83 277 -129 465 -139 370 -19 622 100 742 349 79 166
76 124 76 938 l0 725 -611 3 c-336 1 -614 -1 -617 -5z"/>
<path d="M9240 2020 l0 -220 284 0 c156 0 291 -3 300 -6 14 -6 16 -72 16 -648
0 -354 3 -698 7 -765 l6 -121 276 2 276 3 3 185 c2 102 -2 254 -8 338 -8 108
-8 157 -1 166 7 8 12 152 13 427 l3 414 295 3 c220 2 296 5 302 15 9 14 11
388 2 411 -6 14 -93 16 -890 16 l-884 0 0 -220z"/>
</g>
</svg>
